<svg width="36" height="37" viewBox="0 0 36 37" fill="none" xmlns="http://www.w3.org/2000/svg">
<g filter="url(#filter0_d_155_786)">
<rect x="5.49902" y="2.75" width="25" height="25" rx="6" fill="#4FD1C5"/>
</g>
<path d="M14.0818 11.5379H21.8943C21.9855 11.5378 22.0767 11.5436 22.1672 11.5552C22.1366 11.3398 22.0626 11.1329 21.9497 10.9469C21.8369 10.7608 21.6876 10.5996 21.5108 10.4728C21.3339 10.3461 21.1333 10.2565 20.9209 10.2094C20.7085 10.1623 20.4887 10.1587 20.2749 10.1988L13.8499 11.2957H13.8425C13.4392 11.3728 13.0806 11.601 12.8398 11.9336C13.2025 11.6757 13.6367 11.5373 14.0818 11.5379Z" fill="white"/>
<path d="M21.894 12.125H14.0815C13.6673 12.1255 13.2701 12.2902 12.9772 12.5831C12.6843 12.8761 12.5195 13.2732 12.519 13.6875V18.375C12.5195 18.7893 12.6843 19.1864 12.9772 19.4794C13.2701 19.7723 13.6673 19.937 14.0815 19.9375H21.894C22.3083 19.937 22.7055 19.7723 22.9984 19.4794C23.2913 19.1864 23.4561 18.7893 23.4565 18.375V13.6875C23.4561 13.2732 23.2913 12.8761 22.9984 12.5831C22.7055 12.2902 22.3083 12.1255 21.894 12.125ZM20.7344 16.8125C20.5799 16.8125 20.4288 16.7667 20.3003 16.6808C20.1719 16.595 20.0717 16.473 20.0126 16.3302C19.9535 16.1875 19.938 16.0304 19.9681 15.8788C19.9983 15.7273 20.0727 15.5881 20.1819 15.4788C20.2912 15.3696 20.4304 15.2952 20.582 15.265C20.7335 15.2349 20.8906 15.2503 21.0333 15.3095C21.1761 15.3686 21.2981 15.4687 21.384 15.5972C21.4698 15.7257 21.5156 15.8767 21.5156 16.0312C21.5156 16.2384 21.4333 16.4372 21.2868 16.5837C21.1403 16.7302 20.9416 16.8125 20.7344 16.8125Z" fill="white"/>
<path d="M12.5312 15.3341V12.9049C12.5312 12.3759 12.8242 11.4889 13.8411 11.2968C14.7041 11.1349 15.5586 11.1349 15.5586 11.1349C15.5586 11.1349 16.1201 11.5255 15.6562 11.5255C15.1924 11.5255 15.2046 12.1237 15.6562 12.1237C16.1079 12.1237 15.6562 12.6974 15.6562 12.6974L13.8374 14.7604L12.5312 15.3341Z" fill="white"/>
<defs>
<filter id="filter0_d_155_786" x="-0.000977039" y="0.75" width="36" height="36" filterUnits="userSpaceOnUse" color-interpolation-filters="sRGB">
<feFlood flood-opacity="0" result="BackgroundImageFix"/>
<feColorMatrix in="SourceAlpha" type="matrix" values="0 0 0 0 0 0 0 0 0 0 0 0 0 0 0 0 0 0 127 0" result="hardAlpha"/>
<feOffset dy="3.5"/>
<feGaussianBlur stdDeviation="2.75"/>
<feColorMatrix type="matrix" values="0 0 0 0 0 0 0 0 0 0 0 0 0 0 0 0 0 0 0.02 0"/>
<feBlend mode="normal" in2="BackgroundImageFix" result="effect1_dropShadow_155_786"/>
<feBlend mode="normal" in="SourceGraphic" in2="effect1_dropShadow_155_786" result="shape"/>
</filter>
</defs>
</svg>
