<svg width="36" height="37" viewBox="0 0 36 37" fill="none" xmlns="http://www.w3.org/2000/svg">
<g filter="url(#filter0_d_155_766)">
<rect x="5.49902" y="2.75" width="25" height="25" rx="6" fill="#4FD1C5"/>
</g>
<path d="M18.562 14.4495H23.2104C23.2426 14.4495 23.2734 14.4622 23.2961 14.4849C23.3188 14.5076 23.3315 14.5384 23.3315 14.5706V20.8127C23.3315 21.3732 23.1089 21.9107 22.7126 22.3071C22.3163 22.7034 21.7787 22.926 21.2183 22.926H13.7808C13.2203 22.926 12.6828 22.7034 12.2864 22.3071C11.8901 21.9107 11.6675 21.3732 11.6675 20.8127V10.1877C11.6675 9.62727 11.8901 9.08975 12.2864 8.69343C12.6828 8.29711 13.2203 8.07446 13.7808 8.07446H16.8354C16.8676 8.07446 16.8984 8.08722 16.9211 8.10993C16.9438 8.13264 16.9565 8.16344 16.9565 8.19556V12.844C16.9565 13.2698 17.1257 13.6781 17.4268 13.9792C17.7279 14.2803 18.1362 14.4495 18.562 14.4495ZM14.8433 19.762H20.1558C20.2998 19.762 20.4379 19.7048 20.5397 19.6029C20.6415 19.5011 20.6987 19.363 20.6987 19.219C20.6987 19.075 20.6415 18.9369 20.5397 18.8351C20.4379 18.7332 20.2998 18.676 20.1558 18.676H14.8433C14.6993 18.676 14.5612 18.7332 14.4593 18.8351C14.3575 18.9369 14.3003 19.075 14.3003 19.219C14.3003 19.363 14.3575 19.5011 14.4593 19.6029C14.5612 19.7048 14.6993 19.762 14.8433 19.762ZM14.8433 17.1057H20.1558C20.2998 17.1057 20.4379 17.0485 20.5397 16.9467C20.6415 16.8449 20.6987 16.7067 20.6987 16.5627C20.6987 16.4187 20.6415 16.2806 20.5397 16.1788C20.4379 16.077 20.2998 16.0198 20.1558 16.0198H14.8433C14.6993 16.0198 14.5612 16.077 14.4593 16.1788C14.3575 16.2806 14.3003 16.4187 14.3003 16.5627C14.3003 16.7067 14.3575 16.8449 14.4593 16.9467C14.5612 17.0485 14.6993 17.1057 14.8433 17.1057Z" fill="white" stroke="#4FD1C5" stroke-width="0.0234375"/>
<path d="M22.9106 13.271L22.9106 13.271C22.9182 13.2787 22.9234 13.2884 22.9255 13.299C22.9276 13.3095 22.9265 13.3205 22.9224 13.3305C22.9182 13.3404 22.9113 13.349 22.9023 13.355C22.8934 13.361 22.8828 13.3642 22.8721 13.3643H18.562C18.4242 13.3643 18.2921 13.3095 18.1946 13.2121C18.0972 13.1147 18.0425 12.9825 18.0425 12.8447V8.53466C18.0425 8.52388 18.0458 8.51336 18.0518 8.50442C18.0578 8.49547 18.0663 8.48849 18.0763 8.48437C18.0862 8.48025 18.0972 8.47917 18.1078 8.48126C18.1183 8.48335 18.1281 8.48852 18.1357 8.49612C18.1357 8.49612 18.1357 8.49612 18.1357 8.49613L22.9106 13.271Z" fill="white" stroke="#4FD1C5" stroke-width="0.0234375"/>
<defs>
<filter id="filter0_d_155_766" x="-0.000977039" y="0.75" width="36" height="36" filterUnits="userSpaceOnUse" color-interpolation-filters="sRGB">
<feFlood flood-opacity="0" result="BackgroundImageFix"/>
<feColorMatrix in="SourceAlpha" type="matrix" values="0 0 0 0 0 0 0 0 0 0 0 0 0 0 0 0 0 0 127 0" result="hardAlpha"/>
<feOffset dy="3.5"/>
<feGaussianBlur stdDeviation="2.75"/>
<feColorMatrix type="matrix" values="0 0 0 0 0 0 0 0 0 0 0 0 0 0 0 0 0 0 0.02 0"/>
<feBlend mode="normal" in2="BackgroundImageFix" result="effect1_dropShadow_155_766"/>
<feBlend mode="normal" in="SourceGraphic" in2="effect1_dropShadow_155_766" result="shape"/>
</filter>
</defs>
</svg>
