<svg width="882" height="564" viewBox="0 0 882 564" fill="none" xmlns="http://www.w3.org/2000/svg">
<mask id="mask0_85_2294" style="mask-type:alpha" maskUnits="userSpaceOnUse" x="0" y="0" width="883" height="564">
<rect width="882.002" height="563.65" fill="#D9D9D9"/>
</mask>
<g mask="url(#mask0_85_2294)">
<path d="M39.5095 628.202H840.482V-148.117H39.5095V628.202Z" fill="#F3F4FB"/>
<mask id="mask1_85_2294" style="mask-type:luminance" maskUnits="userSpaceOnUse" x="-3" y="-63" width="886" height="858">
<path d="M-2.01074 -62.8557H882.002V794.18H-2.01074V-62.8557Z" fill="white"/>
</mask>
<g mask="url(#mask1_85_2294)">
<path d="M644.585 460.629C668.239 409.691 673.034 349.904 653.43 292.565C613.1 174.604 484.781 111.671 366.82 152C248.86 192.33 185.927 320.65 226.256 438.611C228.918 446.396 231.962 453.941 235.363 461.233" stroke="#EBFDFA" stroke-width="2.20662" stroke-miterlimit="10"/>
<path d="M219.677 380.161C220.795 383.43 219.051 386.985 215.782 388.103C212.512 389.221 208.957 387.477 207.839 384.208C206.722 380.939 208.465 377.383 211.734 376.265C215.004 375.148 218.559 376.891 219.677 380.161Z" fill="#4CF4D5"/>
</g>
<mask id="mask2_85_2294" style="mask-type:luminance" maskUnits="userSpaceOnUse" x="-3" y="-63" width="886" height="858">
<path d="M-2.01074 -62.8557H882.002V794.18H-2.01074V-62.8557Z" fill="white"/>
</mask>
<g mask="url(#mask2_85_2294)">
<path d="M685.966 453.756C689.911 442.713 693.157 431.275 695.645 419.482C725.439 278.246 635.098 139.597 493.861 109.802C352.624 80.0074 213.975 170.35 184.18 311.586C174.017 359.763 177.832 407.638 192.877 450.994" stroke="#EBFDFA" stroke-width="2.20662" stroke-miterlimit="10"/>
<path d="M188.689 316.775C188.13 319.425 185.529 321.119 182.88 320.56C180.231 320.001 178.535 317.401 179.094 314.751C179.653 312.102 182.255 310.407 184.904 310.966C187.553 311.525 189.248 314.126 188.689 316.775Z" fill="#3D3F41"/>
<path d="M705.576 345.352C704.611 349.075 700.811 351.31 697.088 350.345C693.366 349.381 691.131 345.581 692.096 341.858C693.06 338.135 696.86 335.9 700.582 336.865C704.305 337.829 706.541 341.629 705.576 345.352Z" fill="#383838"/>
<path d="M368.796 119.704C368.965 132.711 358.557 143.393 345.551 143.562C332.543 143.731 321.861 133.324 321.692 120.316C321.523 107.309 331.931 96.6279 344.938 96.4588C357.945 96.2898 368.627 106.697 368.796 119.704Z" fill="#464748"/>
<path d="M337.719 124.713L342.125 120.539L346.524 124.599L350.816 120.426" stroke="#F3F4FB" stroke-width="0.746356" stroke-linecap="round" stroke-linejoin="round"/>
<path d="M344.997 134.57C344.997 134.57 341.594 135.368 337.691 132.378C331.525 127.654 332.204 123.405 332.373 121.123C332.901 114.022 344.461 104.386 344.461 104.386C344.461 104.386 356.267 113.718 356.979 120.804C357.208 123.08 357.997 127.31 351.956 132.192C348.131 135.283 344.709 134.574 344.709 134.574" stroke="#F3F4FB" stroke-width="0.746356" stroke-linecap="round" stroke-linejoin="round"/>
</g>
<mask id="mask3_85_2294" style="mask-type:luminance" maskUnits="userSpaceOnUse" x="-3" y="-63" width="886" height="858">
<path d="M-2.01074 -62.8557H882.002V794.18H-2.01074V-62.8557Z" fill="white"/>
</mask>
<g mask="url(#mask3_85_2294)">
<path d="M154.554 457.732C131.35 386.15 134.895 305.814 170.718 232.951C243.799 84.3054 423.544 23.0492 572.19 96.1305C707.67 162.739 770.556 317.954 725.3 457.47" stroke="#EBFDFA" stroke-width="2.20662" stroke-miterlimit="10"/>
<path d="M722.539 249.912C721.677 254.272 717.445 257.108 713.085 256.246C708.725 255.384 705.889 251.151 706.751 246.791C707.613 242.432 711.846 239.596 716.206 240.458C720.565 241.32 723.401 245.552 722.539 249.912Z" stroke="#494949" stroke-width="1.10331" stroke-miterlimit="10"/>
<path d="M745.237 367.342C744.529 370.925 741.049 373.257 737.465 372.548C733.881 371.84 731.55 368.36 732.258 364.776C732.967 361.193 736.447 358.861 740.03 359.57C743.615 360.278 745.945 363.758 745.237 367.342Z" fill="#494949"/>
<path d="M751.489 369.151C750.072 376.319 743.113 380.98 735.946 379.563C728.778 378.147 724.115 371.188 725.532 364.02C726.949 356.852 733.909 352.191 741.076 353.607C748.244 355.024 752.906 361.983 751.489 369.151Z" stroke="#494949" stroke-width="1.10331" stroke-miterlimit="10"/>
<path d="M207.434 184.837C206.638 188.862 202.73 191.48 198.705 190.684C194.68 189.888 192.062 185.981 192.858 181.956C193.654 177.93 197.561 175.312 201.587 176.108C205.611 176.904 208.23 180.811 207.434 184.837Z" stroke="#494949" stroke-width="1.10331" stroke-miterlimit="10"/>
</g>
<mask id="mask4_85_2294" style="mask-type:luminance" maskUnits="userSpaceOnUse" x="-3" y="-63" width="886" height="858">
<path d="M-2.01074 -62.8557H882.002V794.18H-2.01074V-62.8557Z" fill="white"/>
</mask>
<g mask="url(#mask4_85_2294)">
<path d="M760.47 456.143C775.876 401.85 777.688 342.909 762.961 284.24C718.13 105.643 537.005 -2.79598 358.407 42.0353C179.81 86.8665 71.3713 267.991 116.203 446.589C117.176 450.466 118.213 454.309 119.313 458.12" stroke="#EBFDFA" stroke-width="2.20662" stroke-miterlimit="10"/>
<path d="M360.298 41.5614C362.328 49.6488 357.419 57.8481 349.332 59.8782C341.244 61.9083 333.045 56.9994 331.015 48.912C328.985 40.8246 333.894 32.6253 341.981 30.5952C350.068 28.5651 358.268 33.474 360.298 41.5614Z" fill="#4CF4D5"/>
</g>
<mask id="mask5_85_2294" style="mask-type:luminance" maskUnits="userSpaceOnUse" x="-3" y="-63" width="886" height="858">
<path d="M-2.01074 -62.8557H882.002V794.18H-2.01074V-62.8557Z" fill="white"/>
</mask>
<g mask="url(#mask5_85_2294)">
<path d="M477.767 243.684V436.498" stroke="#0091E3" stroke-width="1.10331" stroke-miterlimit="10" stroke-dasharray="3.31 3.31"/>
<path d="M563.481 348.5H257.138" stroke="#0091E3" stroke-width="1.10331" stroke-miterlimit="10" stroke-dasharray="3.31 3.31"/>
</g>
<mask id="mask6_85_2294" style="mask-type:luminance" maskUnits="userSpaceOnUse" x="-3" y="-63" width="886" height="858">
<path d="M-2.01074 -62.8557H882.002V794.18H-2.01074V-62.8557Z" fill="white"/>
</mask>
<g mask="url(#mask6_85_2294)">
<path d="M625.456 411.915C632.578 383.515 633.267 353.047 626.246 322.555C602.528 219.548 499.798 155.273 396.791 178.992C293.785 202.71 229.51 305.44 253.228 408.446C259.29 434.773 270.514 458.569 285.583 479.013" stroke="#EBFDFA" stroke-width="2.20662" stroke-miterlimit="10"/>
<path d="M480.698 176.754C481.473 180.121 479.373 183.478 476.006 184.253C472.639 185.028 469.282 182.928 468.507 179.561C467.731 176.194 469.832 172.837 473.199 172.061C476.566 171.286 479.923 173.387 480.698 176.754Z" fill="#4CF4D5"/>
</g>
<mask id="mask7_85_2294" style="mask-type:luminance" maskUnits="userSpaceOnUse" x="-3" y="-63" width="886" height="858">
<path d="M-2.01074 -62.8557H882.002V794.18H-2.01074V-62.8557Z" fill="white"/>
</mask>
<g mask="url(#mask7_85_2294)">
<path d="M614.112 446.895H248.334C244.393 446.895 241.198 443.701 241.198 439.76V200.345C241.198 196.404 244.393 193.21 248.334 193.21H614.112C618.052 193.21 621.247 196.404 621.247 200.345V439.76C621.247 443.701 618.052 446.895 614.112 446.895Z" fill="white"/>
<path d="M614.112 446.895H248.334C244.393 446.895 241.198 443.701 241.198 439.76V200.345C241.198 196.404 244.393 193.21 248.334 193.21H614.112C618.052 193.21 621.247 196.404 621.247 200.345V439.76C621.247 443.701 618.052 446.895 614.112 446.895Z" fill="white" stroke="#303030" stroke-width="3.30993" stroke-miterlimit="10"/>
<path d="M794.624 459.406H58.3763C57.8887 459.406 57.4937 459.011 57.4937 458.523V451.159C57.4937 450.672 57.8887 450.277 58.3763 450.277H794.624C795.111 450.277 795.506 450.672 795.506 451.159V458.523C795.506 459.011 795.111 459.406 794.624 459.406Z" fill="#6B6B6B"/>
<path d="M614.083 194.247H248.374C244.989 194.247 242.245 196.991 242.245 200.376V210.65H620.212V200.376C620.212 196.991 617.468 194.247 614.083 194.247Z" fill="#DDFCF7"/>
<path d="M261.425 257.176H422.437V248.847H261.425V257.176Z" fill="#EBF8F6"/>
<path d="M260.22 292.086H421.233V265.67H260.22V292.086Z" fill="#EBF8F6"/>
<path d="M289.297 202.912C289.196 205.132 287.313 206.85 285.092 206.749C282.873 206.647 281.155 204.765 281.256 202.544C281.358 200.324 283.241 198.606 285.461 198.708C287.681 198.81 289.398 200.692 289.297 202.912Z" fill="#009D90"/>
<path d="M274.071 202.451C274.071 204.674 272.269 206.476 270.046 206.476C267.824 206.476 266.022 204.674 266.022 202.451C266.022 200.229 267.824 198.427 270.046 198.427C272.269 198.427 274.071 200.229 274.071 202.451Z" fill="#4DDFC4"/>
<path d="M258.667 202.417C258.667 204.639 256.865 206.441 254.642 206.441C252.42 206.441 250.618 204.639 250.618 202.417C250.618 200.194 252.42 198.392 254.642 198.392C256.865 198.392 258.667 200.194 258.667 202.417Z" fill="#59B6EC"/>
<path d="M593.124 365.662H286.781" stroke="#494949" stroke-width="1.10331" stroke-miterlimit="10" stroke-dasharray="3.31 3.31"/>
<path d="M439.996 269.168V461.982" stroke="#262626" stroke-width="1.10331" stroke-miterlimit="10" stroke-dasharray="3.31 3.31"/>
<path d="M592.799 257.672C592.799 259.305 591.475 260.629 589.843 260.629C588.209 260.629 586.886 259.305 586.886 257.672C586.886 256.04 588.209 254.716 589.843 254.716C591.475 254.716 592.799 256.04 592.799 257.672Z" fill="#3F3F3F"/>
<path d="M582.105 257.672C582.105 259.305 580.782 260.629 579.15 260.629C577.516 260.629 576.193 259.305 576.193 257.672C576.193 256.04 577.516 254.716 579.15 254.716C580.782 254.716 582.105 256.04 582.105 257.672Z" fill="#353535"/>
<path d="M571.328 257.672C571.328 259.305 570.004 260.629 568.371 260.629C566.738 260.629 565.415 259.305 565.415 257.672C565.415 256.04 566.738 254.716 568.371 254.716C570.004 254.716 571.328 256.04 571.328 257.672Z" fill="#0857A0"/>
<path d="M560.931 257.672C560.931 259.305 559.607 260.629 557.974 260.629C556.341 260.629 555.018 259.305 555.018 257.672C555.018 256.04 556.341 254.716 557.974 254.716C559.607 254.716 560.931 256.04 560.931 257.672Z" fill="#4CF4D5"/>
<path d="M550.026 257.672C550.026 259.305 548.703 260.629 547.07 260.629C545.436 260.629 544.113 259.305 544.113 257.672C544.113 256.04 545.436 254.716 547.07 254.716C548.703 254.716 550.026 256.04 550.026 257.672Z" fill="#3FF2D1"/>
<path d="M539.46 257.672C539.46 259.305 538.136 260.629 536.504 260.629C534.87 260.629 533.547 259.305 533.547 257.672C533.547 256.04 534.87 254.716 536.504 254.716C538.136 254.716 539.46 256.04 539.46 257.672Z" fill="#64C0F6"/>
<path d="M528.809 257.672C528.809 259.305 527.486 260.629 525.853 260.629C524.22 260.629 522.896 259.305 522.896 257.672C522.896 256.04 524.22 254.716 525.853 254.716C527.486 254.716 528.809 256.04 528.809 257.672Z" fill="#434446"/>
<path d="M592.757 274.114C592.757 275.746 591.433 277.07 589.8 277.07C588.167 277.07 586.843 275.746 586.843 274.114C586.843 272.481 588.167 271.157 589.8 271.157C591.433 271.157 592.757 272.481 592.757 274.114Z" fill="#515151"/>
<path d="M582.064 274.114C582.064 275.746 580.739 277.07 579.107 277.07C577.473 277.07 576.149 275.746 576.149 274.114C576.149 272.481 577.473 271.157 579.107 271.157C580.739 271.157 582.064 272.481 582.064 274.114Z" fill="#64C0F6"/>
<path d="M571.285 274.114C571.285 275.746 569.962 277.07 568.33 277.07C566.697 277.07 565.373 275.746 565.373 274.114C565.373 272.481 566.697 271.157 568.33 271.157C569.962 271.157 571.285 272.481 571.285 274.114Z" fill="#3FF2D1"/>
<path d="M560.888 274.114C560.888 275.746 559.564 277.07 557.932 277.07C556.299 277.07 554.975 275.746 554.975 274.114C554.975 272.481 556.299 271.157 557.932 271.157C559.564 271.157 560.888 272.481 560.888 274.114Z" fill="#3FF2D1"/>
<path d="M549.983 274.114C549.983 275.746 548.66 277.07 547.028 277.07C545.395 277.07 544.071 275.746 544.071 274.114C544.071 272.481 545.395 271.157 547.028 271.157C548.66 271.157 549.983 272.481 549.983 274.114Z" fill="#0857A0"/>
<path d="M539.417 274.114C539.417 275.746 538.093 277.07 536.461 277.07C534.827 277.07 533.504 275.746 533.504 274.114C533.504 272.481 534.827 271.157 536.461 271.157C538.093 271.157 539.417 272.481 539.417 274.114Z" fill="#3F3F3F"/>
<path d="M528.766 274.114C528.766 275.746 527.442 277.07 525.81 277.07C524.177 277.07 522.854 275.746 522.854 274.114C522.854 272.481 524.177 271.157 525.81 271.157C527.442 271.157 528.766 272.481 528.766 274.114Z" fill="#595959"/>
<path d="M660.097 450.277H202.62C200.843 450.277 199.403 448.836 199.403 447.06V436.588C199.403 434.811 200.843 433.371 202.62 433.371H660.097C661.873 433.371 663.314 434.811 663.314 436.588V447.06C663.314 448.836 661.873 450.277 660.097 450.277Z" fill="#111111"/>
<path d="M657.352 322.548H585.162H582.71C582.71 322.548 584.823 338.271 569.523 340.131C569.523 340.131 558.28 393.555 620.665 432.482L622.06 433.244H620.383L621.777 432.482C684.163 393.555 672.919 340.131 672.919 340.131C657.619 338.271 659.733 322.548 659.733 322.548H657.281H585.091" fill="#ECF8F6"/>
<path d="M667.02 323.14H594.831H592.379C592.379 323.14 594.492 338.862 579.192 340.722C579.192 340.722 567.948 394.146 630.334 433.073L631.728 433.835H630.052L631.446 433.073C693.831 394.146 682.588 340.722 682.588 340.722C667.288 338.862 669.401 323.14 669.401 323.14H666.95H594.759" fill="#00DDB3"/>
<path d="M667.02 323.14H594.831H592.379C592.379 323.14 594.492 338.862 579.192 340.722C579.192 340.722 567.948 394.146 630.334 433.073L631.728 433.835H630.052L631.446 433.073C693.831 394.146 682.588 340.722 682.588 340.722C667.288 338.862 669.401 323.14 669.401 323.14H666.95H594.759" stroke="#494949" stroke-width="1.10331" stroke-miterlimit="10"/>
<mask id="mask8_85_2294" style="mask-type:luminance" maskUnits="userSpaceOnUse" x="-3" y="-63" width="886" height="858">
<path d="M-2.01074 -62.8557H882.002V794.18H-2.01074V-62.8557Z" fill="white"/>
</mask>
<g mask="url(#mask8_85_2294)">
<path d="M644.616 401.418C628.905 407.455 611.275 399.613 605.239 383.902C599.203 368.192 607.046 350.562 622.756 344.526C638.467 338.49 656.096 346.332 662.133 362.042C668.169 377.753 660.326 395.382 644.616 401.418Z" stroke="#F3F4FB" stroke-width="2.20662" stroke-miterlimit="10"/>
<path d="M646.279 405.891C642.749 407.248 638.788 405.485 637.432 401.956C636.076 398.426 637.837 394.464 641.367 393.108C644.897 391.752 648.858 393.515 650.214 397.045C651.57 400.574 649.809 404.535 646.279 405.891Z" fill="#F3F4FB"/>
<path d="M646.279 405.891C642.749 407.248 638.788 405.485 637.432 401.956C636.076 398.426 637.837 394.464 641.367 393.108C644.897 391.752 648.858 393.515 650.214 397.045C651.57 400.574 649.809 404.535 646.279 405.891Z" stroke="#00DDB3" stroke-width="2.20662" stroke-miterlimit="10"/>
<path d="M625.497 352.438C621.967 353.794 618.006 352.032 616.65 348.502C615.293 344.972 617.056 341.01 620.586 339.654C624.116 338.298 628.076 340.06 629.432 343.59C630.788 347.12 629.027 351.081 625.497 352.438Z" fill="#F3F4FB"/>
<path d="M625.497 352.438C621.967 353.794 618.006 352.032 616.65 348.502C615.293 344.972 617.056 341.01 620.586 339.654C624.116 338.298 628.076 340.06 629.432 343.59C630.788 347.12 629.027 351.081 625.497 352.438Z" stroke="#00DDB3" stroke-width="2.20662" stroke-miterlimit="10"/>
<path d="M633.368 354.962V383.872" stroke="#F3F4FB" stroke-width="2.20662" stroke-linecap="round" stroke-linejoin="round"/>
<path d="M621.669 364.767L633.368 353.439L645.844 364.767" stroke="#F3F4FB" stroke-width="2.20662" stroke-linecap="round" stroke-linejoin="round"/>
</g>
</g>
<mask id="mask9_85_2294" style="mask-type:luminance" maskUnits="userSpaceOnUse" x="-3" y="-63" width="886" height="858">
<path d="M-2.01074 -62.8557H882.002V794.18H-2.01074V-62.8557Z" fill="white"/>
</mask>
<g mask="url(#mask9_85_2294)">
<path d="M281.822 329.734L320.115 371.831L357.478 363.209L388.417 395.754C388.417 395.754 390.796 393.924 394.829 390.822" stroke="#64C0F6" stroke-width="2.20662" stroke-miterlimit="10"/>
<path d="M394.174 394.499C394.174 397.559 391.694 400.039 388.633 400.039C385.574 400.039 383.093 397.559 383.093 394.499C383.093 391.439 385.574 388.958 388.633 388.958C391.694 388.958 394.174 391.439 394.174 394.499Z" fill="#F3F4FB"/>
<path d="M394.174 394.499C394.174 397.559 391.694 400.039 388.633 400.039C385.574 400.039 383.093 397.559 383.093 394.499C383.093 391.439 385.574 388.958 388.633 388.958C391.694 388.958 394.174 391.439 394.174 394.499Z" stroke="#64C0F6" stroke-width="2.20662" stroke-miterlimit="10"/>
<path d="M325.248 370.955C325.248 374.014 322.768 376.495 319.707 376.495C316.648 376.495 314.167 374.014 314.167 370.955C314.167 367.895 316.648 365.414 319.707 365.414C322.768 365.414 325.248 367.895 325.248 370.955Z" fill="#F3F4FB"/>
<path d="M325.248 370.955C325.248 374.014 322.768 376.495 319.707 376.495C316.648 376.495 314.167 374.014 314.167 370.955C314.167 367.895 316.648 365.414 319.707 365.414C322.768 365.414 325.248 367.895 325.248 370.955Z" stroke="#64C0F6" stroke-width="2.20662" stroke-miterlimit="10"/>
<path d="M283.992 324.971C283.992 328.031 281.511 330.511 278.451 330.511C275.391 330.511 272.911 328.031 272.911 324.971C272.911 321.911 275.391 319.43 278.451 319.43C281.511 319.43 283.992 321.911 283.992 324.971Z" fill="#F3F4FB"/>
<path d="M283.992 324.971C283.992 328.031 281.511 330.511 278.451 330.511C275.391 330.511 272.911 328.031 272.911 324.971C272.911 321.911 275.391 319.43 278.451 319.43C281.511 319.43 283.992 321.911 283.992 324.971Z" stroke="#64C0F6" stroke-width="2.20662" stroke-miterlimit="10"/>
</g>
</g>
</svg>
