<svg width="861" height="308" viewBox="0 0 861 308" fill="none" xmlns="http://www.w3.org/2000/svg">
<rect x="0.941406" y="0.130859" width="859.086" height="307.608" rx="12" fill="url(#paint0_linear_353_1486)"/>
<rect x="136.732" y="121.373" width="9.69936" height="137.869" rx="4.84968" fill="white"/>
<rect x="219.87" y="160.863" width="9.69936" height="98.3792" rx="4.84968" fill="white"/>
<rect x="303.007" y="206.589" width="9.69936" height="52.6536" rx="4.84968" fill="white"/>
<rect x="386.145" y="135.922" width="9.69936" height="123.32" rx="4.84968" fill="white"/>
<rect x="469.282" y="46.5496" width="9.69936" height="212.693" rx="4.84968" fill="white"/>
<rect x="552.419" y="83.9614" width="9.69936" height="175.281" rx="4.84968" fill="white"/>
<rect x="635.557" y="59.0201" width="9.69936" height="200.222" rx="4.84968" fill="#4FD1C5"/>
<rect x="718.693" y="135.922" width="9.69936" height="123.32" rx="4.84968" fill="#4FD1C5"/>
<rect x="801.831" y="189.961" width="9.69936" height="69.2811" rx="4.84968" fill="#4FD1C5"/>
<path d="M44.2432 251.528C44.2432 252.342 44.3099 252.965 44.4434 253.398C44.5768 253.828 44.8503 254.043 45.2637 254.043C45.6771 254.043 45.9473 253.828 46.0742 253.398C46.2044 252.965 46.2695 252.342 46.2695 251.528C46.2695 250.675 46.2044 250.044 46.0742 249.634C45.9473 249.224 45.6771 249.019 45.2637 249.019C44.8503 249.019 44.5768 249.224 44.4434 249.634C44.3099 250.044 44.2432 250.675 44.2432 251.528ZM45.2637 247.871C46.1654 247.871 46.7969 248.188 47.1582 248.823C47.5228 249.458 47.7051 250.36 47.7051 251.528C47.7051 252.697 47.5228 253.597 47.1582 254.229C46.7969 254.86 46.1654 255.176 45.2637 255.176C44.362 255.176 43.7288 254.86 43.3643 254.229C43.0029 253.597 42.8223 252.697 42.8223 251.528C42.8223 250.36 43.0029 249.458 43.3643 248.823C43.7288 248.188 44.362 247.871 45.2637 247.871Z" fill="white"/>
<path d="M43.2031 210.627V209.68C43.6426 209.66 43.9502 209.631 44.126 209.592C44.4059 209.53 44.6338 209.406 44.8096 209.221C44.93 209.094 45.0212 208.924 45.083 208.713C45.1188 208.586 45.1367 208.492 45.1367 208.43H46.2939V215.51H44.8682V210.627H43.2031ZM49.8096 212.038C49.8096 212.852 49.8763 213.475 50.0098 213.908C50.1432 214.338 50.4167 214.553 50.8301 214.553C51.2435 214.553 51.5137 214.338 51.6406 213.908C51.7708 213.475 51.8359 212.852 51.8359 212.038C51.8359 211.185 51.7708 210.554 51.6406 210.144C51.5137 209.733 51.2435 209.528 50.8301 209.528C50.4167 209.528 50.1432 209.733 50.0098 210.144C49.8763 210.554 49.8096 211.185 49.8096 212.038ZM50.8301 208.381C51.7318 208.381 52.3633 208.698 52.7246 209.333C53.0892 209.968 53.2715 210.869 53.2715 212.038C53.2715 213.207 53.0892 214.107 52.7246 214.738C52.3633 215.37 51.7318 215.686 50.8301 215.686C49.9284 215.686 49.2952 215.37 48.9307 214.738C48.5693 214.107 48.3887 213.207 48.3887 212.038C48.3887 210.869 48.5693 209.968 48.9307 209.333C49.2952 208.698 49.9284 208.381 50.8301 208.381ZM55.376 212.038C55.376 212.852 55.4427 213.475 55.5762 213.908C55.7096 214.338 55.9831 214.553 56.3965 214.553C56.8099 214.553 57.0801 214.338 57.207 213.908C57.3372 213.475 57.4023 212.852 57.4023 212.038C57.4023 211.185 57.3372 210.554 57.207 210.144C57.0801 209.733 56.8099 209.528 56.3965 209.528C55.9831 209.528 55.7096 209.733 55.5762 210.144C55.4427 210.554 55.376 211.185 55.376 212.038ZM56.3965 208.381C57.2982 208.381 57.9297 208.698 58.291 209.333C58.6556 209.968 58.8379 210.869 58.8379 212.038C58.8379 213.207 58.6556 214.107 58.291 214.738C57.9297 215.37 57.2982 215.686 56.3965 215.686C55.4948 215.686 54.8617 215.37 54.4971 214.738C54.1357 214.107 53.9551 213.207 53.9551 212.038C53.9551 210.869 54.1357 209.968 54.4971 209.333C54.8617 208.698 55.4948 208.381 56.3965 208.381Z" fill="white"/>
<path d="M42.8223 175.327C42.8353 174.819 42.9443 174.355 43.1494 173.935C43.348 173.463 43.8167 172.964 44.5557 172.436C45.1969 171.977 45.612 171.648 45.8008 171.45C46.0905 171.141 46.2354 170.802 46.2354 170.434C46.2354 170.135 46.1523 169.886 45.9863 169.687C45.8203 169.489 45.5827 169.389 45.2734 169.389C44.8503 169.389 44.5622 169.547 44.4092 169.863C44.3213 170.045 44.2692 170.335 44.2529 170.732H42.9004C42.9232 170.13 43.0322 169.643 43.2275 169.272C43.5986 168.566 44.2578 168.213 45.2051 168.213C45.9538 168.213 46.5495 168.421 46.9922 168.838C47.4349 169.251 47.6562 169.799 47.6562 170.483C47.6562 171.007 47.5 171.473 47.1875 171.88C46.9824 172.15 46.6455 172.451 46.1768 172.783L45.6201 173.178C45.2718 173.426 45.0326 173.605 44.9023 173.715C44.7754 173.826 44.668 173.955 44.5801 174.101H47.6709V175.327H42.8223ZM49.8096 171.855C49.8096 172.669 49.8763 173.292 50.0098 173.725C50.1432 174.155 50.4167 174.37 50.8301 174.37C51.2435 174.37 51.5137 174.155 51.6406 173.725C51.7708 173.292 51.8359 172.669 51.8359 171.855C51.8359 171.002 51.7708 170.371 51.6406 169.961C51.5137 169.55 51.2435 169.345 50.8301 169.345C50.4167 169.345 50.1432 169.55 50.0098 169.961C49.8763 170.371 49.8096 171.002 49.8096 171.855ZM50.8301 168.198C51.7318 168.198 52.3633 168.515 52.7246 169.15C53.0892 169.785 53.2715 170.686 53.2715 171.855C53.2715 173.024 53.0892 173.924 52.7246 174.555C52.3633 175.187 51.7318 175.503 50.8301 175.503C49.9284 175.503 49.2952 175.187 48.9307 174.555C48.5693 173.924 48.3887 173.024 48.3887 171.855C48.3887 170.686 48.5693 169.785 48.9307 169.15C49.2952 168.515 49.9284 168.198 50.8301 168.198ZM55.376 171.855C55.376 172.669 55.4427 173.292 55.5762 173.725C55.7096 174.155 55.9831 174.37 56.3965 174.37C56.8099 174.37 57.0801 174.155 57.207 173.725C57.3372 173.292 57.4023 172.669 57.4023 171.855C57.4023 171.002 57.3372 170.371 57.207 169.961C57.0801 169.55 56.8099 169.345 56.3965 169.345C55.9831 169.345 55.7096 169.55 55.5762 169.961C55.4427 170.371 55.376 171.002 55.376 171.855ZM56.3965 168.198C57.2982 168.198 57.9297 168.515 58.291 169.15C58.6556 169.785 58.8379 170.686 58.8379 171.855C58.8379 173.024 58.6556 173.924 58.291 174.555C57.9297 175.187 57.2982 175.503 56.3965 175.503C55.4948 175.503 54.8617 175.187 54.4971 174.555C54.1357 173.924 53.9551 173.024 53.9551 171.855C53.9551 170.686 54.1357 169.785 54.4971 169.15C54.8617 168.515 55.4948 168.198 56.3965 168.198Z" fill="white"/>
<path d="M44.1406 132.971C44.1406 133.254 44.1862 133.488 44.2773 133.674C44.4466 134.016 44.7542 134.187 45.2002 134.187C45.4736 134.187 45.7113 134.094 45.9131 133.908C46.1182 133.72 46.2207 133.449 46.2207 133.098C46.2207 132.632 46.0319 132.321 45.6543 132.165C45.4395 132.077 45.1009 132.033 44.6387 132.033V131.037C45.0911 131.031 45.4069 130.987 45.5859 130.905C45.8952 130.769 46.0498 130.492 46.0498 130.075C46.0498 129.805 45.9701 129.585 45.8105 129.416C45.6543 129.247 45.4329 129.162 45.1465 129.162C44.8177 129.162 44.5752 129.266 44.4189 129.475C44.266 129.683 44.1927 129.961 44.1992 130.31H42.9004C42.9134 129.958 42.9736 129.624 43.0811 129.309C43.195 129.032 43.374 128.776 43.6182 128.542C43.8005 128.376 44.0169 128.249 44.2676 128.161C44.5182 128.073 44.8258 128.029 45.1904 128.029C45.8675 128.029 46.4128 128.205 46.8262 128.557C47.2428 128.905 47.4512 129.374 47.4512 129.963C47.4512 130.38 47.3275 130.731 47.0801 131.018C46.9238 131.197 46.7611 131.319 46.5918 131.384C46.7188 131.384 46.901 131.493 47.1387 131.711C47.4935 132.04 47.6709 132.489 47.6709 133.059C47.6709 133.658 47.4626 134.185 47.0459 134.641C46.6325 135.093 46.0189 135.319 45.2051 135.319C44.2025 135.319 43.5059 134.992 43.1152 134.338C42.9102 133.99 42.7962 133.534 42.7734 132.971H44.1406ZM49.8096 131.672C49.8096 132.486 49.8763 133.109 50.0098 133.542C50.1432 133.972 50.4167 134.187 50.8301 134.187C51.2435 134.187 51.5137 133.972 51.6406 133.542C51.7708 133.109 51.8359 132.486 51.8359 131.672C51.8359 130.819 51.7708 130.188 51.6406 129.777C51.5137 129.367 51.2435 129.162 50.8301 129.162C50.4167 129.162 50.1432 129.367 50.0098 129.777C49.8763 130.188 49.8096 130.819 49.8096 131.672ZM50.8301 128.015C51.7318 128.015 52.3633 128.332 52.7246 128.967C53.0892 129.602 53.2715 130.503 53.2715 131.672C53.2715 132.841 53.0892 133.741 52.7246 134.372C52.3633 135.004 51.7318 135.319 50.8301 135.319C49.9284 135.319 49.2952 135.004 48.9307 134.372C48.5693 133.741 48.3887 132.841 48.3887 131.672C48.3887 130.503 48.5693 129.602 48.9307 128.967C49.2952 128.332 49.9284 128.015 50.8301 128.015ZM55.376 131.672C55.376 132.486 55.4427 133.109 55.5762 133.542C55.7096 133.972 55.9831 134.187 56.3965 134.187C56.8099 134.187 57.0801 133.972 57.207 133.542C57.3372 133.109 57.4023 132.486 57.4023 131.672C57.4023 130.819 57.3372 130.188 57.207 129.777C57.0801 129.367 56.8099 129.162 56.3965 129.162C55.9831 129.162 55.7096 129.367 55.5762 129.777C55.4427 130.188 55.376 130.819 55.376 131.672ZM56.3965 128.015C57.2982 128.015 57.9297 128.332 58.291 128.967C58.6556 129.602 58.8379 130.503 58.8379 131.672C58.8379 132.841 58.6556 133.741 58.291 134.372C57.9297 135.004 57.2982 135.319 56.3965 135.319C55.4948 135.319 54.8617 135.004 54.4971 134.372C54.1357 133.741 53.9551 132.841 53.9551 131.672C53.9551 130.503 54.1357 129.602 54.4971 128.967C54.8617 128.332 55.4948 128.015 56.3965 128.015Z" fill="white"/>
<path d="M47.7393 93.4372H46.9385V94.9606H45.5762V93.4372H42.7734V92.2214L45.376 87.9245H46.9385V92.3483H47.7393V93.4372ZM45.5762 92.3483V89.2917L43.8037 92.3483H45.5762ZM49.8096 91.489C49.8096 92.3028 49.8763 92.9261 50.0098 93.3591C50.1432 93.7888 50.4167 94.0036 50.8301 94.0036C51.2435 94.0036 51.5137 93.7888 51.6406 93.3591C51.7708 92.9261 51.8359 92.3028 51.8359 91.489C51.8359 90.6361 51.7708 90.0046 51.6406 89.5944C51.5137 89.1843 51.2435 88.9792 50.8301 88.9792C50.4167 88.9792 50.1432 89.1843 50.0098 89.5944C49.8763 90.0046 49.8096 90.6361 49.8096 91.489ZM50.8301 87.8317C51.7318 87.8317 52.3633 88.1491 52.7246 88.7839C53.0892 89.4186 53.2715 90.3203 53.2715 91.489C53.2715 92.6576 53.0892 93.5576 52.7246 94.1891C52.3633 94.8207 51.7318 95.1364 50.8301 95.1364C49.9284 95.1364 49.2952 94.8207 48.9307 94.1891C48.5693 93.5576 48.3887 92.6576 48.3887 91.489C48.3887 90.3203 48.5693 89.4186 48.9307 88.7839C49.2952 88.1491 49.9284 87.8317 50.8301 87.8317ZM55.376 91.489C55.376 92.3028 55.4427 92.9261 55.5762 93.3591C55.7096 93.7888 55.9831 94.0036 56.3965 94.0036C56.8099 94.0036 57.0801 93.7888 57.207 93.3591C57.3372 92.9261 57.4023 92.3028 57.4023 91.489C57.4023 90.6361 57.3372 90.0046 57.207 89.5944C57.0801 89.1843 56.8099 88.9792 56.3965 88.9792C55.9831 88.9792 55.7096 89.1843 55.5762 89.5944C55.4427 90.0046 55.376 90.6361 55.376 91.489ZM56.3965 87.8317C57.2982 87.8317 57.9297 88.1491 58.291 88.7839C58.6556 89.4186 58.8379 90.3203 58.8379 91.489C58.8379 92.6576 58.6556 93.5576 58.291 94.1891C57.9297 94.8207 57.2982 95.1364 56.3965 95.1364C55.4948 95.1364 54.8617 94.8207 54.4971 94.1891C54.1357 93.5576 53.9551 92.6576 53.9551 91.489C53.9551 90.3203 54.1357 89.4186 54.4971 88.7839C54.8617 88.1491 55.4948 87.8317 56.3965 87.8317Z" fill="white"/>
<path d="M44.1602 52.8831C44.2155 53.1858 44.3213 53.4202 44.4775 53.5862C44.6338 53.7489 44.8617 53.8303 45.1611 53.8303C45.5062 53.8303 45.7682 53.7099 45.9473 53.469C46.1296 53.2249 46.2207 52.9189 46.2207 52.551C46.2207 52.1897 46.1361 51.8853 45.9668 51.6379C45.7975 51.3873 45.5339 51.262 45.1758 51.262C45.0065 51.262 44.86 51.2831 44.7363 51.3254C44.5182 51.4036 44.3538 51.5484 44.2432 51.76L42.9932 51.7014L43.4912 47.7903H47.3926V48.9719H44.4971L44.2432 50.5198C44.458 50.3798 44.6257 50.287 44.7461 50.2415C44.9479 50.1666 45.1937 50.1292 45.4834 50.1292C46.0693 50.1292 46.5804 50.3261 47.0166 50.72C47.4528 51.1139 47.6709 51.6868 47.6709 52.4387C47.6709 53.093 47.4609 53.6773 47.041 54.1917C46.6211 54.706 45.9928 54.9631 45.1562 54.9631C44.4824 54.9631 43.929 54.7825 43.4961 54.4211C43.0632 54.0598 42.8223 53.5471 42.7734 52.8831H44.1602ZM49.8096 51.3059C49.8096 52.1197 49.8763 52.7431 50.0098 53.176C50.1432 53.6057 50.4167 53.8206 50.8301 53.8206C51.2435 53.8206 51.5137 53.6057 51.6406 53.176C51.7708 52.7431 51.8359 52.1197 51.8359 51.3059C51.8359 50.453 51.7708 49.8215 51.6406 49.4114C51.5137 49.0012 51.2435 48.7961 50.8301 48.7961C50.4167 48.7961 50.1432 49.0012 50.0098 49.4114C49.8763 49.8215 49.8096 50.453 49.8096 51.3059ZM50.8301 47.6487C51.7318 47.6487 52.3633 47.9661 52.7246 48.6008C53.0892 49.2356 53.2715 50.1373 53.2715 51.3059C53.2715 52.4745 53.0892 53.3746 52.7246 54.0061C52.3633 54.6376 51.7318 54.9534 50.8301 54.9534C49.9284 54.9534 49.2952 54.6376 48.9307 54.0061C48.5693 53.3746 48.3887 52.4745 48.3887 51.3059C48.3887 50.1373 48.5693 49.2356 48.9307 48.6008C49.2952 47.9661 49.9284 47.6487 50.8301 47.6487ZM55.376 51.3059C55.376 52.1197 55.4427 52.7431 55.5762 53.176C55.7096 53.6057 55.9831 53.8206 56.3965 53.8206C56.8099 53.8206 57.0801 53.6057 57.207 53.176C57.3372 52.7431 57.4023 52.1197 57.4023 51.3059C57.4023 50.453 57.3372 49.8215 57.207 49.4114C57.0801 49.0012 56.8099 48.7961 56.3965 48.7961C55.9831 48.7961 55.7096 49.0012 55.5762 49.4114C55.4427 49.8215 55.376 50.453 55.376 51.3059ZM56.3965 47.6487C57.2982 47.6487 57.9297 47.9661 58.291 48.6008C58.6556 49.2356 58.8379 50.1373 58.8379 51.3059C58.8379 52.4745 58.6556 53.3746 58.291 54.0061C57.9297 54.6376 57.2982 54.9534 56.3965 54.9534C55.4948 54.9534 54.8617 54.6376 54.4971 54.0061C54.1357 53.3746 53.9551 52.4745 53.9551 51.3059C53.9551 50.1373 54.1357 49.2356 54.4971 48.6008C54.8617 47.9661 55.4948 47.6487 56.3965 47.6487Z" fill="white"/>
<defs>
<linearGradient id="paint0_linear_353_1486" x1="23.1114" y1="307.739" x2="677.472" y2="38.5818" gradientUnits="userSpaceOnUse">
<stop stop-color="#313860"/>
<stop offset="1" stop-color="#151928"/>
</linearGradient>
</defs>
</svg>
