<svg width="500" height="363" viewBox="0 0 500 363" fill="none" xmlns="http://www.w3.org/2000/svg">
<path d="M316.884 15.7877L248.898 214.513C247.958 217.259 249.422 220.246 252.168 221.185L418.235 278C420.981 278.939 423.969 277.475 424.909 274.73L492.895 76.0045C493.835 73.2587 492.371 70.2714 489.625 69.3319L323.558 12.5174C320.812 11.5779 317.824 13.0419 316.884 15.7877Z" fill="#3D476A"/>
<path d="M317.466 14.0892L249.479 212.814C248.539 215.56 250.004 218.547 252.749 219.487L418.816 276.301C421.562 277.241 424.55 275.777 425.49 273.031L493.476 74.306C494.416 71.5602 492.952 68.5729 490.206 67.6334L324.139 10.8189C321.394 9.87943 318.405 11.3434 317.466 14.0892Z" fill="#666666"/>
<path d="M272.533 220.08L264.092 244.75L278.462 239.819L286.224 251.643L294.456 227.58L274.976 220.916L272.533 220.08Z" fill="#0B3AE3"/>
<g style="mix-blend-mode:multiply" opacity="0.55">
<path d="M478.567 78.491L482.039 68.3413L329.913 16.296L326.441 26.4457L478.567 78.491Z" fill="#040F38"/>
</g>
<path d="M255.856 214.375L419.491 270.358L488.285 69.2783L324.65 13.2958L255.856 214.375ZM475.348 74.2932C473.682 73.723 472.772 71.9764 473.314 70.3914C473.856 68.8064 475.646 67.9826 477.312 68.5528C478.978 69.123 479.888 70.8696 479.347 72.4545C478.804 74.0393 477.014 74.8634 475.348 74.2932ZM464.262 70.4998C462.597 69.9296 461.686 68.183 462.228 66.5981C462.77 65.0131 464.56 64.1904 466.226 64.7606C467.892 65.3308 468.802 67.0774 468.261 68.6624C467.718 70.2472 465.928 71.07 464.262 70.4998ZM453.177 66.7077C451.511 66.1375 450.602 64.3911 451.143 62.8061C451.685 61.2212 453.475 60.3971 455.141 60.9673C456.806 61.5375 457.717 63.2841 457.175 64.8691C456.633 66.454 454.842 67.2779 453.177 66.7077ZM442.092 62.9158C440.426 62.3456 439.516 60.5977 440.058 59.0128C440.599 57.4278 442.39 56.6052 444.056 57.1754C445.722 57.7456 446.631 59.492 446.089 61.077C445.547 62.6619 443.758 63.486 442.092 62.9158ZM431.006 59.1224C429.34 58.5522 428.43 56.8056 428.972 55.2207C429.513 53.6357 431.304 52.8118 432.97 53.382C434.636 53.9522 435.546 55.6988 435.003 57.2836C434.462 58.8686 432.672 59.6926 431.006 59.1224ZM419.92 55.3303C418.254 54.7601 417.344 53.0123 417.886 51.4273C418.428 49.8423 420.218 49.0197 421.884 49.5899C423.55 50.1601 424.46 51.9067 423.917 53.4915C423.376 55.0765 421.586 55.9005 419.92 55.3303ZM408.834 51.537C407.169 50.9668 406.259 49.2203 406.801 47.6354C407.343 46.0504 409.132 45.2276 410.798 45.7978C412.464 46.368 413.374 48.1146 412.833 49.6996C412.29 51.2844 410.5 52.1072 408.834 51.537ZM397.748 47.7449C396.083 47.1747 395.174 45.4282 395.715 43.8433C396.257 42.2583 398.047 41.4342 399.712 42.0044C401.378 42.5746 402.289 44.3212 401.747 45.9062C401.205 47.4912 399.414 48.3151 397.748 47.7449ZM387.454 44.2222C385.788 43.652 384.879 41.9056 385.421 40.3206C385.963 38.7356 387.752 37.9128 389.418 38.483C391.084 39.0532 391.994 40.7998 391.452 42.3848C390.911 43.9697 389.12 44.7924 387.454 44.2222ZM376.369 40.4303C374.703 39.8601 373.793 38.1135 374.335 36.5285C374.877 34.9435 376.666 34.1195 378.332 34.6897C379.998 35.2599 380.908 37.0064 380.366 38.5914C379.825 40.1764 378.035 41.0005 376.369 40.4303ZM365.284 36.6369C363.618 36.0667 362.707 34.3201 363.249 32.7351C363.791 31.1502 365.58 30.3273 367.246 30.8975C368.912 31.4677 369.824 33.2145 369.281 34.7993C368.739 36.3843 366.949 37.2071 365.284 36.6369ZM354.198 32.8448C352.532 32.2746 351.621 30.528 352.163 28.943C352.705 27.358 354.496 26.5354 356.161 27.1056C357.827 27.6758 358.737 29.421 358.195 31.006C357.653 32.5909 355.863 33.415 354.198 32.8448ZM343.112 29.0527C341.446 28.4825 340.536 26.7346 341.077 25.1497C341.619 23.5647 343.41 22.7421 345.076 23.3123C346.741 23.8825 347.652 25.6291 347.11 27.214C346.568 28.799 344.777 29.6229 343.112 29.0527ZM332.026 25.2593C330.36 24.6891 329.451 22.9427 329.993 21.3577C330.534 19.7728 332.324 18.9499 333.99 19.5201C335.656 20.0903 336.566 21.8369 336.024 23.4219C335.482 25.0069 333.692 25.8295 332.026 25.2593Z" fill="#EAFFFC"/>
<path d="M438.148 44.9837L435.961 51.3766L434.335 56.1289C433.975 57.1798 432.831 57.7402 431.781 57.3804L431.684 57.3483C430.633 56.9884 430.072 55.8444 430.432 54.7935L432.057 50.041L434.245 43.6483C434.604 42.5974 435.749 42.0357 436.8 42.3956L436.896 42.429C437.947 42.7888 438.508 43.9328 438.148 44.9837ZM359.823 16.0601L359.728 16.0282C358.677 15.6683 357.533 16.23 357.173 17.281L354.985 23.6737L353.361 28.4248C353.001 29.4758 353.56 30.6208 354.612 30.9809L354.709 31.013C355.76 31.3728 356.904 30.8112 357.264 29.7602L358.888 25.0091L361.076 18.6164C361.436 17.5654 360.874 16.42 359.823 16.0601ZM425.728 38.6577L425.633 38.6258C424.582 38.2659 423.438 38.8264 423.078 39.8773L420.89 46.2713L419.266 51.0224C418.906 52.0734 419.466 53.2173 420.517 53.5772L420.613 53.6104C421.664 53.9703 422.809 53.4088 423.169 52.3578L424.794 47.6067L426.981 41.2127C427.341 40.1618 426.779 39.0176 425.728 38.6577ZM403.6 31.0381L403.505 31.0049C402.454 30.645 401.309 31.2067 400.95 32.2576L398.762 38.6503L397.137 43.4028C396.777 44.4537 397.338 45.5976 398.389 45.9575L398.486 45.9896C399.536 46.3495 400.68 45.7891 401.04 44.7382L402.665 39.9857L404.853 33.593C405.213 32.5421 404.651 31.3979 403.6 31.0381ZM414.61 34.8037L414.514 34.7718C413.463 34.4119 412.319 34.9723 411.959 36.0232L409.772 42.4172L408.146 47.1682C407.786 48.2191 408.348 49.3633 409.399 49.7232L409.494 49.7563C410.545 50.1162 411.689 49.5545 412.049 48.5036L413.675 43.7526L415.862 37.3599C416.222 36.309 415.661 35.1636 414.61 34.8037ZM371.146 19.9342L371.049 19.9009C369.998 19.541 368.854 20.1027 368.494 21.1536L366.307 27.5476L364.682 32.2988C364.322 33.3497 364.884 34.4938 365.935 34.8537L366.03 34.8869C367.081 35.2468 368.225 34.6851 368.585 33.6342L370.211 28.8831L372.397 22.489C372.757 21.4381 372.197 20.2941 371.146 19.9342ZM382.154 23.7009L382.059 23.6678C381.008 23.3079 379.864 23.8696 379.504 24.9205L377.316 31.3132L375.69 36.0654C375.33 37.1164 375.892 38.2605 376.943 38.6204L377.039 38.6523C378.09 39.0122 379.235 38.4519 379.595 37.401L381.22 32.6486L383.407 26.2559C383.767 25.205 383.205 24.0608 382.154 23.7009ZM393.112 27.45L393.015 27.4166C391.965 27.0567 390.82 27.6184 390.46 28.6693L388.274 35.0622L386.648 39.8132C386.288 40.8641 386.85 42.0096 387.901 42.3694L387.996 42.4013C389.047 42.7612 390.191 42.1995 390.551 41.1486L392.177 36.3976L394.363 30.0047C394.723 28.9538 394.163 27.8098 393.112 27.45ZM447.905 46.1944L447.809 46.1625C446.758 45.8026 445.614 46.3643 445.254 47.4152L443.067 53.8079L441.441 58.5589C441.081 59.6098 441.643 60.7553 442.693 61.1151L442.789 61.147C443.84 61.5069 444.984 60.9452 445.344 59.8943L446.97 55.1433L449.157 48.7506C449.517 47.6997 448.956 46.5543 447.905 46.1944ZM337.794 8.52369L337.698 8.49178C336.648 8.1319 335.502 8.69216 335.142 9.74308L332.956 16.1372L331.33 20.8882C330.97 21.9391 331.532 23.0833 332.583 23.4432L332.678 23.4763C333.73 23.8364 334.873 23.2745 335.233 22.2236L336.859 17.4726L339.046 11.0785C339.405 10.0276 338.845 8.88358 337.794 8.52369ZM458.915 49.9613L458.819 49.9281C457.768 49.5682 456.623 50.1297 456.263 51.1807L454.077 57.5748L452.451 62.3258C452.091 63.3767 452.652 64.5209 453.703 64.8808L453.799 64.9139C454.85 65.2738 455.994 64.7121 456.354 63.6612L457.98 58.9102L460.167 52.5162C460.527 51.4653 459.965 50.3212 458.915 49.9613ZM470.204 53.8242L470.108 53.7909C469.056 53.4308 467.913 53.9927 467.553 55.0436L465.367 61.4377L463.741 66.1887C463.381 67.2396 463.942 68.3838 464.993 68.7437L465.089 68.7768C466.14 69.1367 467.284 68.575 467.644 67.5241L469.27 62.7719L471.456 56.379C471.816 55.3281 471.255 54.1841 470.204 53.8242ZM481.213 57.5896L481.118 57.5577C480.067 57.1978 478.922 57.7595 478.563 58.8105L476.375 65.2032L474.749 69.9542C474.389 71.0051 474.951 72.1505 476.002 72.5104L476.097 72.5423C477.148 72.9022 478.294 72.3407 478.654 71.2897L480.278 66.5386L482.466 60.1458C482.826 59.0937 482.264 57.9495 481.213 57.5896ZM348.97 12.3482L348.875 12.3151C347.824 11.9552 346.68 12.5169 346.32 13.5678L344.133 19.9605L342.506 24.7127C342.147 25.7637 342.708 26.9078 343.759 27.2677L343.855 27.2996C344.906 27.6595 346.05 27.0991 346.41 26.0481L348.036 21.2959L350.223 14.9032C350.583 13.8523 350.021 12.7081 348.97 12.3482Z" fill="#575A64"/>
<path d="M332.906 62.6919L427.927 95.1542" stroke="#4ED0C4" stroke-width="4.87887" stroke-miterlimit="10"/>
<path d="M322.536 92.4204L417.557 124.883" stroke="#4ED0C4" stroke-width="4.87887" stroke-miterlimit="10"/>
<path d="M312.344 122.211L407.365 154.674" stroke="#4ED0C4" stroke-width="4.87887" stroke-miterlimit="10"/>
<path d="M302.343 152.068L397.364 184.53" stroke="#4ED0C4" stroke-width="4.87887" stroke-miterlimit="10"/>
<path d="M292.152 181.857L387.172 214.32" stroke="#4ED0C4" stroke-width="4.87887" stroke-miterlimit="10"/>
<path d="M421.123 159.07L424.705 164.778L434.948 159.199" stroke="#00FFE5" stroke-width="3.14416" stroke-miterlimit="10"/>
<path d="M431.668 127.75L435.25 133.457L445.493 127.878" stroke="#00FFE5" stroke-width="3.14416" stroke-miterlimit="10"/>
<path d="M441.989 97.7052L445.571 103.412L455.814 97.8338" stroke="#00FFE5" stroke-width="3.14416" stroke-miterlimit="10"/>
<path d="M262.949 316.109L196.043 332.82L58.1922 360.754L1.65105 81.7329L210.321 39.448L252.141 245.826L262.949 316.109Z" fill="#EAFFFC"/>
<path d="M262.949 316.109L196.043 332.82L58.1922 360.754L1.65105 81.7329L210.321 39.448L252.141 245.826L262.949 316.109Z" stroke="#4ED0C4" stroke-width="1.83161"/>
<path d="M99.3023 257.786L67.8608 264.158L61.4894 232.715L92.9309 226.343L99.3023 257.786ZM70.8728 259.614L94.7601 254.773L89.9189 230.887L66.0316 235.728L70.8728 259.614Z" fill="#4ED0C4"/>
<path d="M73.1061 245.992L80.2402 249.675L87.4281 237.773" stroke="#00FFE5" stroke-width="3.75481" stroke-miterlimit="10"/>
<path d="M107.922 301.537L76.4805 307.909L70.1091 276.466L101.551 270.094L107.922 301.537ZM79.4925 303.365L103.38 298.524L98.5386 274.638L74.6513 279.479L79.4925 303.365Z" fill="#4ED0C4"/>
<path d="M81.9226 289.746L89.0566 293.43L96.2445 281.527" stroke="#00FFE5" stroke-width="3.75481" stroke-miterlimit="10"/>
<path d="M188.935 85.7486L146.703 94.3053C145.219 94.6065 143.771 93.6469 143.47 92.1627C143.169 90.6785 144.13 89.2306 145.614 88.9294L187.845 80.3727C189.329 80.0715 190.777 81.0311 191.078 82.5153C191.379 83.9995 190.419 85.4474 188.935 85.7486Z" fill="#4ED0C4"/>
<path d="M191.921 100.485L149.69 109.042C148.206 109.343 146.758 108.383 146.457 106.899C146.155 105.415 147.116 103.967 148.6 103.666L190.831 95.109C192.316 94.8078 193.763 95.7674 194.065 97.2516C194.366 98.7358 193.405 100.184 191.921 100.485Z" fill="#213FAA"/>
<path d="M197.531 128.168L155.3 136.725C153.816 137.026 152.368 136.066 152.067 134.582C151.766 133.098 152.726 131.65 154.21 131.349L196.442 122.792C197.926 122.491 199.374 123.451 199.675 124.935C199.976 126.419 199.015 127.867 197.531 128.168Z" fill="#00FFE5"/>
<path d="M200.517 142.905L158.286 151.463C156.802 151.764 155.354 150.804 155.053 149.319C154.752 147.835 155.713 146.387 157.197 146.086L199.428 137.529C200.912 137.228 202.36 138.188 202.661 139.672C202.962 141.156 202.002 142.604 200.517 142.905Z" fill="#4ED0C4"/>
<path d="M204.661 163.352L55.7978 193.517C54.3136 193.818 52.8659 192.858 52.5647 191.374C52.2635 189.89 53.2242 188.442 54.7084 188.141L203.571 157.976C205.056 157.674 206.503 158.634 206.804 160.118C207.106 161.602 206.145 163.05 204.661 163.352Z" fill="#4ED0C4"/>
<path d="M207.32 176.479L58.457 206.644C56.9728 206.945 55.525 205.986 55.2239 204.502C54.9227 203.017 55.8834 201.569 57.3676 201.268L206.23 171.103C207.715 170.802 209.162 171.762 209.464 173.246C209.765 174.73 208.804 176.178 207.32 176.479Z" fill="#4ED0C4"/>
<path d="M184.21 229.811L116.198 243.592C114.714 243.893 113.267 242.934 112.966 241.449C112.665 239.965 113.625 238.517 115.109 238.216L183.121 224.435C184.606 224.134 186.052 225.093 186.353 226.578C186.655 228.062 185.694 229.51 184.21 229.811Z" fill="#4ED0C4"/>
<path d="M212.986 208.637L113.212 228.856C111.728 229.157 110.281 228.196 109.98 226.712C109.679 225.228 110.639 223.78 112.123 223.479L211.896 203.261C213.38 202.96 214.828 203.921 215.129 205.405C215.431 206.889 214.47 208.336 212.986 208.637Z" fill="#4ED0C4"/>
<path d="M192.83 273.562L124.818 287.343C123.334 287.644 121.887 286.685 121.586 285.2C121.285 283.716 122.244 282.268 123.728 281.967L191.741 268.186C193.225 267.885 194.672 268.844 194.973 270.329C195.274 271.813 194.314 273.261 192.83 273.562Z" fill="#4ED0C4"/>
<path d="M221.605 252.387L121.832 272.607C120.348 272.908 118.901 271.947 118.599 270.463C118.298 268.979 119.259 267.531 120.743 267.229L220.516 247.011C222 246.71 223.448 247.671 223.749 249.155C224.05 250.639 223.09 252.086 221.605 252.387Z" fill="#4ED0C4"/>
<path d="M109.488 161.35L82.13 166.894L73.8062 125.816L101.165 120.272L109.488 161.35Z" fill="#00FFE5"/>
<path d="M77.6681 167.799L50.3097 173.342L44.4687 144.52L71.8271 138.976L77.6681 167.799Z" fill="#4ED0C4"/>
<path d="M141.309 154.902L113.951 160.446L101.442 98.7158L128.801 93.172L141.309 154.902Z" fill="#213FAA"/>
<g style="mix-blend-mode:multiply" opacity="0.3">
<g style="mix-blend-mode:multiply">
<path d="M208.064 252.458C194.801 254.727 185.888 267.319 188.157 280.582C190.425 293.845 203.017 302.757 216.28 300.488C229.544 298.219 238.455 285.627 236.186 272.364C233.918 259.101 221.327 250.189 208.064 252.458Z" stroke="#00FFE5" stroke-width="6.41064" stroke-miterlimit="10"/>
</g>
</g>
<g style="mix-blend-mode:multiply" opacity="0.3">
<g style="mix-blend-mode:multiply">
<path d="M206.589 243.84C188.566 246.924 176.457 264.033 179.539 282.056C182.622 300.078 199.732 312.189 217.754 309.106C235.777 306.022 247.888 288.913 244.804 270.89C241.722 252.868 224.612 240.757 206.589 243.84Z" stroke="#00FFE5" stroke-width="2.3811" stroke-miterlimit="10"/>
</g>
</g>
<path d="M222.98 267.721L210.219 284.469L200.113 277.82" stroke="#00FFE5" stroke-width="5.678" stroke-miterlimit="10"/>
<path d="M233.854 135.612L264.814 163.452L274.818 152.328L243.859 124.488L233.854 135.612Z" fill="#212121"/>
<path d="M253.862 161.489L311.082 212.944C316.562 217.873 324.999 217.425 329.927 211.945C334.854 206.464 334.408 198.028 328.927 193.1L271.708 141.645L253.862 161.489Z" fill="#26292F"/>
<g opacity="0.2">
<path d="M251.217 92.8454C252.715 121.092 231.031 145.206 202.785 146.703C174.538 148.201 150.425 126.518 148.927 98.271C147.429 70.0244 169.112 45.9109 197.359 44.413C225.606 42.9151 249.719 64.5988 251.217 92.8454Z" fill="#00FFE5"/>
</g>
<path d="M152.86 52.7141C129.12 79.1132 131.275 119.759 157.675 143.499C184.074 167.239 224.72 165.083 248.459 138.684C272.199 112.285 270.044 71.6391 243.645 47.8993C217.245 24.1594 176.6 26.315 152.86 52.7141ZM163.798 62.5503C182.106 42.1918 213.45 40.5301 233.808 58.8378C254.167 77.1456 255.829 108.49 237.521 128.848C219.213 149.206 187.869 150.868 167.511 132.56C147.152 114.253 145.491 82.9087 163.798 62.5503Z" fill="#26292F"/>
</svg>
