<svg width="620" height="223" viewBox="0 0 620 223" fill="none" xmlns="http://www.w3.org/2000/svg">
<rect y="0.75" width="620" height="222" rx="12" fill="url(#paint0_linear_321_1331)"/>
<rect x="98" y="88.25" width="7" height="99.5" rx="3.5" fill="white"/>
<rect x="158" y="116.75" width="7" height="71" rx="3.5" fill="white"/>
<rect x="218" y="149.75" width="7" height="38" rx="3.5" fill="white"/>
<rect x="278" y="98.75" width="7" height="89" rx="3.5" fill="white"/>
<rect x="338" y="34.25" width="7" height="153.5" rx="3.5" fill="white"/>
<rect x="398" y="61.25" width="7" height="126.5" rx="3.5" fill="white"/>
<rect x="458" y="43.25" width="7" height="144.5" rx="3.5" fill="white"/>
<rect x="518" y="98.75" width="7" height="89" rx="3.5" fill="white"/>
<rect x="578" y="137.75" width="7" height="50" rx="3.5" fill="white"/>
<path d="M31.7334 184.278C31.7334 185.092 31.8001 185.715 31.9336 186.148C32.0671 186.578 32.3405 186.793 32.7539 186.793C33.1673 186.793 33.4375 186.578 33.5645 186.148C33.6947 185.715 33.7598 185.092 33.7598 184.278C33.7598 183.425 33.6947 182.794 33.5645 182.384C33.4375 181.974 33.1673 181.769 32.7539 181.769C32.3405 181.769 32.0671 181.974 31.9336 182.384C31.8001 182.794 31.7334 183.425 31.7334 184.278ZM32.7539 180.621C33.6556 180.621 34.2871 180.938 34.6484 181.573C35.013 182.208 35.1953 183.11 35.1953 184.278C35.1953 185.447 35.013 186.347 34.6484 186.979C34.2871 187.61 33.6556 187.926 32.7539 187.926C31.8522 187.926 31.2191 187.61 30.8545 186.979C30.4932 186.347 30.3125 185.447 30.3125 184.278C30.3125 183.11 30.4932 182.208 30.8545 181.573C31.2191 180.938 31.8522 180.621 32.7539 180.621Z" fill="white"/>
<path d="M30.6934 154.367V153.42C31.1328 153.4 31.4404 153.371 31.6162 153.332C31.8962 153.27 32.124 153.146 32.2998 152.961C32.4202 152.834 32.5114 152.665 32.5732 152.453C32.609 152.326 32.627 152.232 32.627 152.17H33.7842V159.25H32.3584V154.367H30.6934ZM37.2998 155.778C37.2998 156.592 37.3665 157.215 37.5 157.648C37.6335 158.078 37.9069 158.293 38.3203 158.293C38.7337 158.293 39.0039 158.078 39.1309 157.648C39.2611 157.215 39.3262 156.592 39.3262 155.778C39.3262 154.925 39.2611 154.294 39.1309 153.884C39.0039 153.474 38.7337 153.269 38.3203 153.269C37.9069 153.269 37.6335 153.474 37.5 153.884C37.3665 154.294 37.2998 154.925 37.2998 155.778ZM38.3203 152.121C39.222 152.121 39.8535 152.438 40.2148 153.073C40.5794 153.708 40.7617 154.61 40.7617 155.778C40.7617 156.947 40.5794 157.847 40.2148 158.479C39.8535 159.11 39.222 159.426 38.3203 159.426C37.4186 159.426 36.7855 159.11 36.4209 158.479C36.0596 157.847 35.8789 156.947 35.8789 155.778C35.8789 154.61 36.0596 153.708 36.4209 153.073C36.7855 152.438 37.4186 152.121 38.3203 152.121ZM42.8662 155.778C42.8662 156.592 42.9329 157.215 43.0664 157.648C43.1999 158.078 43.4733 158.293 43.8867 158.293C44.3001 158.293 44.5703 158.078 44.6973 157.648C44.8275 157.215 44.8926 156.592 44.8926 155.778C44.8926 154.925 44.8275 154.294 44.6973 153.884C44.5703 153.474 44.3001 153.269 43.8867 153.269C43.4733 153.269 43.1999 153.474 43.0664 153.884C42.9329 154.294 42.8662 154.925 42.8662 155.778ZM43.8867 152.121C44.7884 152.121 45.4199 152.438 45.7812 153.073C46.1458 153.708 46.3281 154.61 46.3281 155.778C46.3281 156.947 46.1458 157.847 45.7812 158.479C45.4199 159.11 44.7884 159.426 43.8867 159.426C42.985 159.426 42.3519 159.11 41.9873 158.479C41.626 157.847 41.4453 156.947 41.4453 155.778C41.4453 154.61 41.626 153.708 41.9873 153.073C42.3519 152.438 42.985 152.121 43.8867 152.121Z" fill="white"/>
<path d="M30.3125 130.25C30.3255 129.742 30.4346 129.278 30.6396 128.858C30.8382 128.386 31.307 127.887 32.0459 127.359C32.6872 126.9 33.1022 126.572 33.291 126.373C33.5807 126.064 33.7256 125.725 33.7256 125.357C33.7256 125.058 33.6426 124.809 33.4766 124.61C33.3105 124.412 33.0729 124.312 32.7637 124.312C32.3405 124.312 32.0524 124.47 31.8994 124.786C31.8115 124.968 31.7594 125.258 31.7432 125.655H30.3906C30.4134 125.053 30.5225 124.566 30.7178 124.195C31.0889 123.489 31.748 123.136 32.6953 123.136C33.444 123.136 34.0397 123.344 34.4824 123.761C34.9251 124.174 35.1465 124.723 35.1465 125.406C35.1465 125.93 34.9902 126.396 34.6777 126.803C34.4727 127.073 34.1357 127.374 33.667 127.706L33.1104 128.102C32.762 128.349 32.5228 128.528 32.3926 128.639C32.2656 128.749 32.1582 128.878 32.0703 129.024H35.1611V130.25H30.3125ZM37.2998 126.778C37.2998 127.592 37.3665 128.215 37.5 128.648C37.6335 129.078 37.9069 129.293 38.3203 129.293C38.7337 129.293 39.0039 129.078 39.1309 128.648C39.2611 128.215 39.3262 127.592 39.3262 126.778C39.3262 125.925 39.2611 125.294 39.1309 124.884C39.0039 124.474 38.7337 124.269 38.3203 124.269C37.9069 124.269 37.6335 124.474 37.5 124.884C37.3665 125.294 37.2998 125.925 37.2998 126.778ZM38.3203 123.121C39.222 123.121 39.8535 123.438 40.2148 124.073C40.5794 124.708 40.7617 125.61 40.7617 126.778C40.7617 127.947 40.5794 128.847 40.2148 129.479C39.8535 130.11 39.222 130.426 38.3203 130.426C37.4186 130.426 36.7855 130.11 36.4209 129.479C36.0596 128.847 35.8789 127.947 35.8789 126.778C35.8789 125.61 36.0596 124.708 36.4209 124.073C36.7855 123.438 37.4186 123.121 38.3203 123.121ZM42.8662 126.778C42.8662 127.592 42.9329 128.215 43.0664 128.648C43.1999 129.078 43.4733 129.293 43.8867 129.293C44.3001 129.293 44.5703 129.078 44.6973 128.648C44.8275 128.215 44.8926 127.592 44.8926 126.778C44.8926 125.925 44.8275 125.294 44.6973 124.884C44.5703 124.474 44.3001 124.269 43.8867 124.269C43.4733 124.269 43.1999 124.474 43.0664 124.884C42.9329 125.294 42.8662 125.925 42.8662 126.778ZM43.8867 123.121C44.7884 123.121 45.4199 123.438 45.7812 124.073C46.1458 124.708 46.3281 125.61 46.3281 126.778C46.3281 127.947 46.1458 128.847 45.7812 129.479C45.4199 130.11 44.7884 130.426 43.8867 130.426C42.985 130.426 42.3519 130.11 41.9873 129.479C41.626 128.847 41.4453 127.947 41.4453 126.778C41.4453 125.61 41.626 124.708 41.9873 124.073C42.3519 123.438 42.985 123.121 43.8867 123.121Z" fill="white"/>
<path d="M31.6309 99.0771C31.6309 99.3604 31.6764 99.5947 31.7676 99.7803C31.9368 100.122 32.2445 100.293 32.6904 100.293C32.9639 100.293 33.2015 100.2 33.4033 100.015C33.6084 99.8258 33.7109 99.5557 33.7109 99.2041C33.7109 98.7386 33.5221 98.4277 33.1445 98.2715C32.9297 98.1836 32.5911 98.1396 32.1289 98.1396V97.1436C32.5814 97.137 32.8971 97.0931 33.0762 97.0117C33.3854 96.875 33.54 96.5983 33.54 96.1816C33.54 95.9115 33.4603 95.6917 33.3008 95.5225C33.1445 95.3532 32.9232 95.2686 32.6367 95.2686C32.3079 95.2686 32.0654 95.3727 31.9092 95.5811C31.7562 95.7894 31.6829 96.0677 31.6895 96.416H30.3906C30.4036 96.0645 30.4639 95.7308 30.5713 95.415C30.6852 95.1383 30.8643 94.8828 31.1084 94.6484C31.2907 94.4824 31.5072 94.3555 31.7578 94.2676C32.0085 94.1797 32.3161 94.1357 32.6807 94.1357C33.3577 94.1357 33.903 94.3115 34.3164 94.6631C34.7331 95.0114 34.9414 95.4801 34.9414 96.0693C34.9414 96.486 34.8177 96.8376 34.5703 97.124C34.4141 97.3031 34.2513 97.4251 34.082 97.4902C34.209 97.4902 34.3913 97.5993 34.6289 97.8174C34.9837 98.1462 35.1611 98.5954 35.1611 99.165C35.1611 99.764 34.9528 100.291 34.5361 100.747C34.1227 101.2 33.5091 101.426 32.6953 101.426C31.6927 101.426 30.9961 101.099 30.6055 100.444C30.4004 100.096 30.2865 99.6403 30.2637 99.0771H31.6309ZM37.2998 97.7783C37.2998 98.5921 37.3665 99.2155 37.5 99.6484C37.6335 100.078 37.9069 100.293 38.3203 100.293C38.7337 100.293 39.0039 100.078 39.1309 99.6484C39.2611 99.2155 39.3262 98.5921 39.3262 97.7783C39.3262 96.9255 39.2611 96.2939 39.1309 95.8838C39.0039 95.4736 38.7337 95.2686 38.3203 95.2686C37.9069 95.2686 37.6335 95.4736 37.5 95.8838C37.3665 96.2939 37.2998 96.9255 37.2998 97.7783ZM38.3203 94.1211C39.222 94.1211 39.8535 94.4385 40.2148 95.0732C40.5794 95.708 40.7617 96.6097 40.7617 97.7783C40.7617 98.9469 40.5794 99.847 40.2148 100.479C39.8535 101.11 39.222 101.426 38.3203 101.426C37.4186 101.426 36.7855 101.11 36.4209 100.479C36.0596 99.847 35.8789 98.9469 35.8789 97.7783C35.8789 96.6097 36.0596 95.708 36.4209 95.0732C36.7855 94.4385 37.4186 94.1211 38.3203 94.1211ZM42.8662 97.7783C42.8662 98.5921 42.9329 99.2155 43.0664 99.6484C43.1999 100.078 43.4733 100.293 43.8867 100.293C44.3001 100.293 44.5703 100.078 44.6973 99.6484C44.8275 99.2155 44.8926 98.5921 44.8926 97.7783C44.8926 96.9255 44.8275 96.2939 44.6973 95.8838C44.5703 95.4736 44.3001 95.2686 43.8867 95.2686C43.4733 95.2686 43.1999 95.4736 43.0664 95.8838C42.9329 96.2939 42.8662 96.9255 42.8662 97.7783ZM43.8867 94.1211C44.7884 94.1211 45.4199 94.4385 45.7812 95.0732C46.1458 95.708 46.3281 96.6097 46.3281 97.7783C46.3281 98.9469 46.1458 99.847 45.7812 100.479C45.4199 101.11 44.7884 101.426 43.8867 101.426C42.985 101.426 42.3519 101.11 41.9873 100.479C41.626 99.847 41.4453 98.9469 41.4453 97.7783C41.4453 96.6097 41.626 95.708 41.9873 95.0732C42.3519 94.4385 42.985 94.1211 43.8867 94.1211Z" fill="white"/>
<path d="M35.2295 70.7266H34.4287V72.25H33.0664V70.7266H30.2637V69.5107L32.8662 65.2139H34.4287V69.6377H35.2295V70.7266ZM33.0664 69.6377V66.5811L31.2939 69.6377H33.0664ZM37.2998 68.7783C37.2998 69.5921 37.3665 70.2155 37.5 70.6484C37.6335 71.0781 37.9069 71.293 38.3203 71.293C38.7337 71.293 39.0039 71.0781 39.1309 70.6484C39.2611 70.2155 39.3262 69.5921 39.3262 68.7783C39.3262 67.9255 39.2611 67.2939 39.1309 66.8838C39.0039 66.4736 38.7337 66.2686 38.3203 66.2686C37.9069 66.2686 37.6335 66.4736 37.5 66.8838C37.3665 67.2939 37.2998 67.9255 37.2998 68.7783ZM38.3203 65.1211C39.222 65.1211 39.8535 65.4385 40.2148 66.0732C40.5794 66.708 40.7617 67.6097 40.7617 68.7783C40.7617 69.9469 40.5794 70.847 40.2148 71.4785C39.8535 72.11 39.222 72.4258 38.3203 72.4258C37.4186 72.4258 36.7855 72.11 36.4209 71.4785C36.0596 70.847 35.8789 69.9469 35.8789 68.7783C35.8789 67.6097 36.0596 66.708 36.4209 66.0732C36.7855 65.4385 37.4186 65.1211 38.3203 65.1211ZM42.8662 68.7783C42.8662 69.5921 42.9329 70.2155 43.0664 70.6484C43.1999 71.0781 43.4733 71.293 43.8867 71.293C44.3001 71.293 44.5703 71.0781 44.6973 70.6484C44.8275 70.2155 44.8926 69.5921 44.8926 68.7783C44.8926 67.9255 44.8275 67.2939 44.6973 66.8838C44.5703 66.4736 44.3001 66.2686 43.8867 66.2686C43.4733 66.2686 43.1999 66.4736 43.0664 66.8838C42.9329 67.2939 42.8662 67.9255 42.8662 68.7783ZM43.8867 65.1211C44.7884 65.1211 45.4199 65.4385 45.7812 66.0732C46.1458 66.708 46.3281 67.6097 46.3281 68.7783C46.3281 69.9469 46.1458 70.847 45.7812 71.4785C45.4199 72.11 44.7884 72.4258 43.8867 72.4258C42.985 72.4258 42.3519 72.11 41.9873 71.4785C41.626 70.847 41.4453 69.9469 41.4453 68.7783C41.4453 67.6097 41.626 66.708 41.9873 66.0732C42.3519 65.4385 42.985 65.1211 43.8867 65.1211Z" fill="white"/>
<path d="M31.6504 41.3555C31.7057 41.6582 31.8115 41.8926 31.9678 42.0586C32.124 42.2214 32.3519 42.3027 32.6514 42.3027C32.9964 42.3027 33.2585 42.1823 33.4375 41.9414C33.6198 41.6973 33.7109 41.3913 33.7109 41.0234C33.7109 40.6621 33.6263 40.3577 33.457 40.1104C33.2878 39.8597 33.0241 39.7344 32.666 39.7344C32.4967 39.7344 32.3503 39.7555 32.2266 39.7979C32.0085 39.876 31.8441 40.0208 31.7334 40.2324L30.4834 40.1738L30.9814 36.2627H34.8828V37.4443H31.9873L31.7334 38.9922C31.9482 38.8522 32.1159 38.7594 32.2363 38.7139C32.4382 38.639 32.6839 38.6016 32.9736 38.6016C33.5596 38.6016 34.0706 38.7985 34.5068 39.1924C34.943 39.5863 35.1611 40.1592 35.1611 40.9111C35.1611 41.5654 34.9512 42.1497 34.5312 42.6641C34.1113 43.1784 33.4831 43.4355 32.6465 43.4355C31.9727 43.4355 31.4193 43.2549 30.9863 42.8936C30.5534 42.5322 30.3125 42.0195 30.2637 41.3555H31.6504ZM37.2998 39.7783C37.2998 40.5921 37.3665 41.2155 37.5 41.6484C37.6335 42.0781 37.9069 42.293 38.3203 42.293C38.7337 42.293 39.0039 42.0781 39.1309 41.6484C39.2611 41.2155 39.3262 40.5921 39.3262 39.7783C39.3262 38.9255 39.2611 38.2939 39.1309 37.8838C39.0039 37.4736 38.7337 37.2686 38.3203 37.2686C37.9069 37.2686 37.6335 37.4736 37.5 37.8838C37.3665 38.2939 37.2998 38.9255 37.2998 39.7783ZM38.3203 36.1211C39.222 36.1211 39.8535 36.4385 40.2148 37.0732C40.5794 37.708 40.7617 38.6097 40.7617 39.7783C40.7617 40.9469 40.5794 41.847 40.2148 42.4785C39.8535 43.11 39.222 43.4258 38.3203 43.4258C37.4186 43.4258 36.7855 43.11 36.4209 42.4785C36.0596 41.847 35.8789 40.9469 35.8789 39.7783C35.8789 38.6097 36.0596 37.708 36.4209 37.0732C36.7855 36.4385 37.4186 36.1211 38.3203 36.1211ZM42.8662 39.7783C42.8662 40.5921 42.9329 41.2155 43.0664 41.6484C43.1999 42.0781 43.4733 42.293 43.8867 42.293C44.3001 42.293 44.5703 42.0781 44.6973 41.6484C44.8275 41.2155 44.8926 40.5921 44.8926 39.7783C44.8926 38.9255 44.8275 38.2939 44.6973 37.8838C44.5703 37.4736 44.3001 37.2686 43.8867 37.2686C43.4733 37.2686 43.1999 37.4736 43.0664 37.8838C42.9329 38.2939 42.8662 38.9255 42.8662 39.7783ZM43.8867 36.1211C44.7884 36.1211 45.4199 36.4385 45.7812 37.0732C46.1458 37.708 46.3281 38.6097 46.3281 39.7783C46.3281 40.9469 46.1458 41.847 45.7812 42.4785C45.4199 43.11 44.7884 43.4258 43.8867 43.4258C42.985 43.4258 42.3519 43.11 41.9873 42.4785C41.626 41.847 41.4453 40.9469 41.4453 39.7783C41.4453 38.6097 41.626 37.708 41.9873 37.0732C42.3519 36.4385 42.985 36.1211 43.8867 36.1211Z" fill="white"/>
<defs>
<linearGradient id="paint0_linear_321_1331" x1="16" y1="222.75" x2="488.25" y2="28.5" gradientUnits="userSpaceOnUse">
<stop stop-color="#313860"/>
<stop offset="1" stop-color="#151928"/>
</linearGradient>
</defs>
</svg>
