<svg width="608" height="361" viewBox="0 0 608 361" fill="none" xmlns="http://www.w3.org/2000/svg">
<path d="M19.042 19.166C18.6546 17.4948 17.7083 16.3271 16.2031 15.6631C15.362 15.2979 14.4268 15.1152 13.3975 15.1152C11.4274 15.1152 9.80599 15.8623 8.5332 17.3564C7.27148 18.8395 6.64062 21.0752 6.64062 24.0635C6.64062 27.0739 7.32682 29.2044 8.69922 30.4551C10.0716 31.7057 11.6322 32.3311 13.3809 32.3311C15.0964 32.3311 16.502 31.8385 17.5977 30.8535C18.6934 29.8574 19.3685 28.557 19.623 26.9521H13.9619V22.8682H24.1553V36H20.7686L20.2539 32.9453C19.2689 34.1074 18.3835 34.9264 17.5977 35.4023C16.2474 36.2324 14.5872 36.6475 12.6172 36.6475C9.37435 36.6475 6.7181 35.5241 4.64844 33.2773C2.49023 31.0195 1.41113 27.9316 1.41113 24.0137C1.41113 20.0514 2.5013 16.875 4.68164 14.4844C6.86198 12.0938 9.74512 10.8984 13.3311 10.8984C16.4411 10.8984 18.9368 11.6898 20.8184 13.2725C22.7109 14.8441 23.7956 16.8086 24.0723 19.166H19.042ZM38.499 17.4727C38.5876 17.4727 38.6595 17.4782 38.7148 17.4893C38.7812 17.4893 38.9196 17.4948 39.1299 17.5059V22.3535C38.8311 22.3203 38.5654 22.2982 38.333 22.2871C38.1006 22.276 37.9124 22.2705 37.7686 22.2705C35.8649 22.2705 34.5866 22.8903 33.9336 24.1299C33.5684 24.8271 33.3857 25.9007 33.3857 27.3506V36H28.6211V17.9043H33.1367V21.0586C33.8672 19.8522 34.5036 19.0277 35.0459 18.585C35.9313 17.8434 37.0824 17.4727 38.499 17.4727ZM51.8965 27.2012C51.5977 27.3893 51.2933 27.5443 50.9834 27.666C50.6846 27.7767 50.2695 27.8818 49.7383 27.9814L48.6758 28.1807C47.6797 28.3577 46.9658 28.5736 46.5342 28.8281C45.8037 29.2598 45.4385 29.9294 45.4385 30.8369C45.4385 31.6449 45.6598 32.2314 46.1025 32.5967C46.5563 32.9508 47.1042 33.1279 47.7461 33.1279C48.7643 33.1279 49.6995 32.8291 50.5518 32.2314C51.415 31.6338 51.8633 30.5436 51.8965 28.9609V27.2012ZM49.0244 24.9932C49.8988 24.8825 50.5241 24.7441 50.9004 24.5781C51.5755 24.2904 51.9131 23.8421 51.9131 23.2334C51.9131 22.4919 51.653 21.9827 51.1328 21.7061C50.6237 21.4183 49.8711 21.2744 48.875 21.2744C47.7572 21.2744 46.9658 21.5511 46.501 22.1045C46.1689 22.514 45.9476 23.0674 45.8369 23.7646H41.2715C41.3711 22.182 41.8138 20.8815 42.5996 19.8633C43.8503 18.2695 45.9974 17.4727 49.041 17.4727C51.0221 17.4727 52.7819 17.8656 54.3203 18.6514C55.8587 19.4372 56.6279 20.9202 56.6279 23.1006V31.4014C56.6279 31.9769 56.639 32.6742 56.6611 33.4932C56.6943 34.113 56.7884 34.5335 56.9434 34.7549C57.0983 34.9762 57.3307 35.1589 57.6406 35.3027V36H52.4941C52.3503 35.6348 52.2507 35.2917 52.1953 34.9707C52.14 34.6497 52.0957 34.2845 52.0625 33.875C51.4095 34.5833 50.6569 35.1865 49.8047 35.6846C48.7865 36.2712 47.6354 36.5645 46.3516 36.5645C44.7135 36.5645 43.3577 36.0996 42.2842 35.1699C41.2217 34.2292 40.6904 32.901 40.6904 31.1855C40.6904 28.9609 41.5482 27.3506 43.2637 26.3545C44.2044 25.8122 45.5879 25.4248 47.4141 25.1924L49.0244 24.9932ZM73.3125 26.9521C73.3125 25.5576 72.9915 24.3236 72.3496 23.25C71.7188 22.1764 70.6895 21.6396 69.2617 21.6396C67.5462 21.6396 66.3675 22.4531 65.7256 24.0801C65.3936 24.9434 65.2275 26.0391 65.2275 27.3672C65.2275 29.4701 65.7865 30.9476 66.9043 31.7998C67.5684 32.2979 68.3542 32.5469 69.2617 32.5469C70.5788 32.5469 71.5804 32.0378 72.2666 31.0195C72.9639 30.0013 73.3125 28.6455 73.3125 26.9521ZM70.623 17.5059C72.737 17.5059 74.5244 18.2861 75.9854 19.8467C77.4574 21.4072 78.1934 23.6982 78.1934 26.7197C78.1934 29.9072 77.474 32.3366 76.0352 34.0078C74.6074 35.679 72.7646 36.5146 70.5068 36.5146C69.068 36.5146 67.8727 36.1549 66.9209 35.4355C66.4007 35.0371 65.8916 34.4561 65.3936 33.6924V43.1221H60.7119V17.9043H65.2441V20.5771C65.7533 19.7913 66.2956 19.1715 66.8711 18.7178C67.9225 17.9098 69.1732 17.5059 70.623 17.5059ZM91.6074 17.4395C92.7253 17.4395 93.738 17.6331 94.6455 18.0205C95.5641 18.4079 96.3167 19 96.9033 19.7969C97.4014 20.472 97.7057 21.1693 97.8164 21.8887C97.9271 22.597 97.9824 23.7591 97.9824 25.375V36H93.1514V24.9932C93.1514 24.0192 92.9854 23.2334 92.6533 22.6357C92.2217 21.7946 91.4027 21.374 90.1963 21.374C88.9456 21.374 87.9938 21.7946 87.3408 22.6357C86.6989 23.4658 86.3779 24.6556 86.3779 26.2051V36H81.6631V11.6123H86.3779V20.2617C87.0641 19.2103 87.8555 18.4798 88.752 18.0703C89.6595 17.6497 90.6113 17.4395 91.6074 17.4395ZM123.084 32.3477C125.109 32.3477 126.714 31.6006 127.898 30.1064C129.094 28.6123 129.691 26.4873 129.691 23.7314C129.691 20.9867 129.094 18.8672 127.898 17.373C126.714 15.8678 125.109 15.1152 123.084 15.1152C121.059 15.1152 119.443 15.8623 118.236 17.3564C117.03 18.8506 116.427 20.9756 116.427 23.7314C116.427 26.4873 117.03 28.6123 118.236 30.1064C119.443 31.6006 121.059 32.3477 123.084 32.3477ZM134.805 23.7314C134.805 28.1253 133.571 31.4899 131.103 33.8252C129.254 35.7288 126.581 36.6807 123.084 36.6807C119.587 36.6807 116.914 35.7288 115.065 33.8252C112.586 31.4899 111.347 28.1253 111.347 23.7314C111.347 19.249 112.586 15.8844 115.065 13.6377C116.914 11.734 119.587 10.7822 123.084 10.7822C126.581 10.7822 129.254 11.734 131.103 13.6377C133.571 15.8844 134.805 19.249 134.805 23.7314ZM145.015 11.2803C145.313 11.2803 145.585 11.2913 145.828 11.3135C146.072 11.3245 146.404 11.3467 146.824 11.3799V15.2314C146.559 15.1982 146.11 15.1761 145.479 15.165C144.86 15.1429 144.428 15.2812 144.185 15.5801C143.952 15.8678 143.836 16.1888 143.836 16.543C143.836 16.8971 143.836 17.4062 143.836 18.0703H146.94V21.4072H143.836V36H139.121V21.4072H136.481V18.0703H139.071V16.9082C139.071 14.9714 139.398 13.6377 140.051 12.9072C140.737 11.8226 142.392 11.2803 145.015 11.2803ZM177.288 11.5293V15.8623H169.967V36H164.82V15.8623H157.466V11.5293H177.288ZM187.88 17.4727C187.968 17.4727 188.04 17.4782 188.096 17.4893C188.162 17.4893 188.3 17.4948 188.511 17.5059V22.3535C188.212 22.3203 187.946 22.2982 187.714 22.2871C187.481 22.276 187.293 22.2705 187.149 22.2705C185.246 22.2705 183.967 22.8903 183.314 24.1299C182.949 24.8271 182.767 25.9007 182.767 27.3506V36H178.002V17.9043H182.518V21.0586C183.248 19.8522 183.884 19.0277 184.427 18.585C185.312 17.8434 186.463 17.4727 187.88 17.4727ZM198.438 21.3242C197.343 21.3242 196.491 21.6673 195.882 22.3535C195.284 23.0397 194.908 23.9694 194.753 25.1426H202.107C202.03 23.8919 201.648 22.9456 200.962 22.3037C200.287 21.6507 199.446 21.3242 198.438 21.3242ZM198.438 17.4229C199.944 17.4229 201.299 17.7051 202.506 18.2695C203.712 18.834 204.708 19.7249 205.494 20.9424C206.202 22.016 206.662 23.2611 206.872 24.6777C206.994 25.5078 207.044 26.7031 207.021 28.2637H194.637C194.703 30.0788 195.273 31.3516 196.347 32.082C197 32.5358 197.785 32.7627 198.704 32.7627C199.678 32.7627 200.469 32.486 201.078 31.9326C201.41 31.6338 201.703 31.2188 201.958 30.6875H206.789C206.667 31.7611 206.108 32.8512 205.112 33.958C203.563 35.7178 201.394 36.5977 198.604 36.5977C196.302 36.5977 194.271 35.8561 192.512 34.373C190.752 32.89 189.872 30.4772 189.872 27.1348C189.872 24.0026 190.663 21.6009 192.246 19.9297C193.84 18.2585 195.904 17.4229 198.438 17.4229ZM220.253 17.4727C222.123 17.4727 223.651 17.9652 224.835 18.9502C226.03 19.9242 226.628 21.5456 226.628 23.8145V36H221.78V24.9932C221.78 24.0413 221.653 23.3109 221.398 22.8018C220.934 21.8721 220.048 21.4072 218.742 21.4072C217.137 21.4072 216.036 22.0879 215.438 23.4492C215.129 24.1686 214.974 25.0872 214.974 26.2051V36H210.259V17.9375H214.824V20.5771C215.433 19.6475 216.008 18.9779 216.551 18.5684C217.525 17.8379 218.759 17.4727 220.253 17.4727ZM237.685 17.4727C238.78 17.4727 239.754 17.7161 240.606 18.2031C241.459 18.679 242.15 19.3431 242.682 20.1953V11.5625H247.479V36H242.881V33.4932C242.206 34.5667 241.437 35.347 240.573 35.834C239.71 36.321 238.636 36.5645 237.353 36.5645C235.239 36.5645 233.457 35.7122 232.007 34.0078C230.568 32.2923 229.849 30.0954 229.849 27.417C229.849 24.3291 230.557 21.8997 231.974 20.1289C233.401 18.3581 235.305 17.4727 237.685 17.4727ZM238.714 32.5801C240.053 32.5801 241.071 32.082 241.769 31.0859C242.466 30.0898 242.814 28.8005 242.814 27.2178C242.814 25.0042 242.256 23.4215 241.138 22.4697C240.451 21.8942 239.655 21.6064 238.747 21.6064C237.364 21.6064 236.345 22.1322 235.692 23.1836C235.05 24.224 234.729 25.5189 234.729 27.0684C234.729 28.7396 235.056 30.0788 235.709 31.0859C236.373 32.082 237.375 32.5801 238.714 32.5801ZM255.481 30.2227C255.581 31.0638 255.797 31.6615 256.129 32.0156C256.715 32.6465 257.8 32.9619 259.383 32.9619C260.312 32.9619 261.049 32.8236 261.591 32.5469C262.144 32.2702 262.421 31.8551 262.421 31.3018C262.421 30.7705 262.2 30.3665 261.757 30.0898C261.314 29.8132 259.671 29.3372 256.826 28.6621C254.779 28.153 253.334 27.5166 252.493 26.7529C251.652 26.0003 251.231 24.9157 251.231 23.499C251.231 21.8278 251.884 20.3945 253.19 19.1992C254.507 17.9928 256.356 17.3896 258.735 17.3896C260.993 17.3896 262.83 17.8434 264.247 18.751C265.675 19.6475 266.494 21.2025 266.704 23.416H261.973C261.906 22.8073 261.735 22.3258 261.458 21.9717C260.938 21.3298 260.052 21.0088 258.802 21.0088C257.772 21.0088 257.036 21.1693 256.594 21.4902C256.162 21.8112 255.946 22.1875 255.946 22.6191C255.946 23.1615 256.179 23.5544 256.644 23.7979C257.108 24.0524 258.752 24.4896 261.574 25.1094C263.456 25.5521 264.867 26.2217 265.808 27.1182C266.737 28.0257 267.202 29.1602 267.202 30.5215C267.202 32.3145 266.533 33.7809 265.193 34.9209C263.865 36.0498 261.807 36.6143 259.018 36.6143C256.173 36.6143 254.07 36.0166 252.709 34.8213C251.359 33.6149 250.684 32.082 250.684 30.2227H255.481Z" fill="#2D3748"/>
<path d="M22.0215 116.422V125H20.9375V117.775L18.752 118.572V117.594L21.8516 116.422H22.0215ZM30.5645 120.055V121.355C30.5645 122.055 30.502 122.645 30.377 123.125C30.252 123.605 30.0723 123.992 29.8379 124.285C29.6035 124.578 29.3203 124.791 28.9883 124.924C28.6602 125.053 28.2891 125.117 27.875 125.117C27.5469 125.117 27.2441 125.076 26.9668 124.994C26.6895 124.912 26.4395 124.781 26.2168 124.602C25.998 124.418 25.8105 124.18 25.6543 123.887C25.498 123.594 25.3789 123.238 25.2969 122.82C25.2148 122.402 25.1738 121.914 25.1738 121.355V120.055C25.1738 119.355 25.2363 118.77 25.3613 118.297C25.4902 117.824 25.6719 117.445 25.9062 117.16C26.1406 116.871 26.4219 116.664 26.75 116.539C27.082 116.414 27.4531 116.352 27.8633 116.352C28.1953 116.352 28.5 116.393 28.7773 116.475C29.0586 116.553 29.3086 116.68 29.5273 116.855C29.7461 117.027 29.9316 117.258 30.084 117.547C30.2402 117.832 30.3594 118.182 30.4414 118.596C30.5234 119.01 30.5645 119.496 30.5645 120.055ZM29.4746 121.531V119.873C29.4746 119.49 29.4512 119.154 29.4043 118.865C29.3613 118.572 29.2969 118.322 29.2109 118.115C29.125 117.908 29.0156 117.74 28.8828 117.611C28.7539 117.482 28.6035 117.389 28.4316 117.33C28.2637 117.268 28.0742 117.236 27.8633 117.236C27.6055 117.236 27.377 117.285 27.1777 117.383C26.9785 117.477 26.8105 117.627 26.6738 117.834C26.541 118.041 26.4395 118.312 26.3691 118.648C26.2988 118.984 26.2637 119.393 26.2637 119.873V121.531C26.2637 121.914 26.2852 122.252 26.3281 122.545C26.375 122.838 26.4434 123.092 26.5332 123.307C26.623 123.518 26.7324 123.691 26.8613 123.828C26.9902 123.965 27.1387 124.066 27.3066 124.133C27.4785 124.195 27.668 124.227 27.875 124.227C28.1406 124.227 28.373 124.176 28.5723 124.074C28.7715 123.973 28.9375 123.814 29.0703 123.6C29.207 123.381 29.3086 123.102 29.375 122.762C29.4414 122.418 29.4746 122.008 29.4746 121.531ZM37.3145 120.055V121.355C37.3145 122.055 37.252 122.645 37.127 123.125C37.002 123.605 36.8223 123.992 36.5879 124.285C36.3535 124.578 36.0703 124.791 35.7383 124.924C35.4102 125.053 35.0391 125.117 34.625 125.117C34.2969 125.117 33.9941 125.076 33.7168 124.994C33.4395 124.912 33.1895 124.781 32.9668 124.602C32.748 124.418 32.5605 124.18 32.4043 123.887C32.248 123.594 32.1289 123.238 32.0469 122.82C31.9648 122.402 31.9238 121.914 31.9238 121.355V120.055C31.9238 119.355 31.9863 118.77 32.1113 118.297C32.2402 117.824 32.4219 117.445 32.6562 117.16C32.8906 116.871 33.1719 116.664 33.5 116.539C33.832 116.414 34.2031 116.352 34.6133 116.352C34.9453 116.352 35.25 116.393 35.5273 116.475C35.8086 116.553 36.0586 116.68 36.2773 116.855C36.4961 117.027 36.6816 117.258 36.834 117.547C36.9902 117.832 37.1094 118.182 37.1914 118.596C37.2734 119.01 37.3145 119.496 37.3145 120.055ZM36.2246 121.531V119.873C36.2246 119.49 36.2012 119.154 36.1543 118.865C36.1113 118.572 36.0469 118.322 35.9609 118.115C35.875 117.908 35.7656 117.74 35.6328 117.611C35.5039 117.482 35.3535 117.389 35.1816 117.33C35.0137 117.268 34.8242 117.236 34.6133 117.236C34.3555 117.236 34.127 117.285 33.9277 117.383C33.7285 117.477 33.5605 117.627 33.4238 117.834C33.291 118.041 33.1895 118.312 33.1191 118.648C33.0488 118.984 33.0137 119.393 33.0137 119.873V121.531C33.0137 121.914 33.0352 122.252 33.0781 122.545C33.125 122.838 33.1934 123.092 33.2832 123.307C33.373 123.518 33.4824 123.691 33.6113 123.828C33.7402 123.965 33.8887 124.066 34.0566 124.133C34.2285 124.195 34.418 124.227 34.625 124.227C34.8906 124.227 35.123 124.176 35.3223 124.074C35.5215 123.973 35.6875 123.814 35.8203 123.6C35.957 123.381 36.0586 123.102 36.125 122.762C36.1914 122.418 36.2246 122.008 36.2246 121.531Z" fill="black" fill-opacity="0.87"/>
<line x1="46" y1="120.5" x2="52" y2="120.5" stroke="black" stroke-opacity="0.87"/>
<path d="M26.2871 159.258H26.3984C27.0234 159.258 27.5312 159.171 27.9219 158.995C28.3125 158.819 28.6133 158.583 28.8242 158.286C29.0352 157.989 29.1797 157.655 29.2578 157.284C29.3359 156.909 29.375 156.524 29.375 156.13V154.823C29.375 154.436 29.3301 154.092 29.2402 153.792C29.1543 153.491 29.0332 153.239 28.877 153.036C28.7246 152.833 28.5508 152.678 28.3555 152.573C28.1602 152.467 27.9531 152.415 27.7344 152.415C27.4844 152.415 27.2598 152.465 27.0605 152.567C26.8652 152.665 26.6992 152.803 26.5625 152.983C26.4297 153.163 26.3281 153.374 26.2578 153.616C26.1875 153.858 26.1523 154.122 26.1523 154.407C26.1523 154.661 26.1836 154.907 26.2461 155.145C26.3086 155.383 26.4043 155.598 26.5332 155.79C26.6621 155.981 26.8223 156.133 27.0137 156.247C27.209 156.356 27.4375 156.411 27.6992 156.411C27.9414 156.411 28.168 156.364 28.3789 156.27C28.5938 156.172 28.7832 156.042 28.9473 155.878C29.1152 155.71 29.248 155.52 29.3457 155.309C29.4473 155.098 29.5059 154.878 29.5215 154.647H30.0371C30.0371 154.971 29.9727 155.292 29.8438 155.608C29.7188 155.921 29.543 156.206 29.3164 156.464C29.0898 156.721 28.8242 156.928 28.5195 157.085C28.2148 157.237 27.8828 157.313 27.5234 157.313C27.1016 157.313 26.7363 157.231 26.4277 157.067C26.1191 156.903 25.8652 156.684 25.666 156.411C25.4707 156.137 25.3242 155.833 25.2266 155.497C25.1328 155.157 25.0859 154.813 25.0859 154.465C25.0859 154.059 25.1426 153.678 25.2559 153.323C25.3691 152.967 25.5371 152.655 25.7598 152.385C25.9824 152.112 26.2578 151.899 26.5859 151.747C26.918 151.594 27.3008 151.518 27.7344 151.518C28.2227 151.518 28.6387 151.616 28.9824 151.811C29.3262 152.006 29.6055 152.268 29.8203 152.596C30.0391 152.924 30.1992 153.294 30.3008 153.704C30.4023 154.114 30.4531 154.536 30.4531 154.969V155.362C30.4531 155.803 30.4238 156.253 30.3652 156.71C30.3105 157.163 30.2031 157.596 30.043 158.01C29.8867 158.424 29.6582 158.796 29.3574 159.124C29.0566 159.448 28.6641 159.706 28.1797 159.897C27.6992 160.085 27.1055 160.178 26.3984 160.178H26.2871V159.258ZM37.3145 155.221V156.522C37.3145 157.221 37.252 157.811 37.127 158.292C37.002 158.772 36.8223 159.159 36.5879 159.452C36.3535 159.745 36.0703 159.958 35.7383 160.09C35.4102 160.219 35.0391 160.284 34.625 160.284C34.2969 160.284 33.9941 160.243 33.7168 160.161C33.4395 160.079 33.1895 159.948 32.9668 159.768C32.748 159.585 32.5605 159.346 32.4043 159.053C32.248 158.76 32.1289 158.405 32.0469 157.987C31.9648 157.569 31.9238 157.081 31.9238 156.522V155.221C31.9238 154.522 31.9863 153.936 32.1113 153.464C32.2402 152.991 32.4219 152.612 32.6562 152.327C32.8906 152.038 33.1719 151.831 33.5 151.706C33.832 151.581 34.2031 151.518 34.6133 151.518C34.9453 151.518 35.25 151.559 35.5273 151.641C35.8086 151.719 36.0586 151.846 36.2773 152.022C36.4961 152.194 36.6816 152.424 36.834 152.714C36.9902 152.999 37.1094 153.348 37.1914 153.762C37.2734 154.176 37.3145 154.663 37.3145 155.221ZM36.2246 156.698V155.04C36.2246 154.657 36.2012 154.321 36.1543 154.032C36.1113 153.739 36.0469 153.489 35.9609 153.282C35.875 153.075 35.7656 152.907 35.6328 152.778C35.5039 152.649 35.3535 152.555 35.1816 152.497C35.0137 152.434 34.8242 152.403 34.6133 152.403C34.3555 152.403 34.127 152.452 33.9277 152.549C33.7285 152.643 33.5605 152.794 33.4238 153.001C33.291 153.208 33.1895 153.479 33.1191 153.815C33.0488 154.151 33.0137 154.559 33.0137 155.04V156.698C33.0137 157.081 33.0352 157.419 33.0781 157.712C33.125 158.005 33.1934 158.258 33.2832 158.473C33.373 158.684 33.4824 158.858 33.6113 158.995C33.7402 159.131 33.8887 159.233 34.0566 159.299C34.2285 159.362 34.418 159.393 34.625 159.393C34.8906 159.393 35.123 159.342 35.3223 159.241C35.5215 159.139 35.6875 158.981 35.8203 158.766C35.957 158.547 36.0586 158.268 36.125 157.928C36.1914 157.585 36.2246 157.174 36.2246 156.698Z" fill="black" fill-opacity="0.87"/>
<line x1="46" y1="155.667" x2="52" y2="155.667" stroke="black" stroke-opacity="0.87"/>
<path d="M30.5879 193.025C30.5879 193.544 30.4668 193.986 30.2246 194.349C29.9863 194.708 29.6621 194.982 29.252 195.169C28.8457 195.357 28.3867 195.451 27.875 195.451C27.3633 195.451 26.9023 195.357 26.4922 195.169C26.082 194.982 25.7578 194.708 25.5195 194.349C25.2812 193.986 25.1621 193.544 25.1621 193.025C25.1621 192.685 25.2266 192.374 25.3555 192.093C25.4883 191.808 25.6738 191.56 25.9121 191.349C26.1543 191.138 26.4395 190.976 26.7676 190.863C27.0996 190.745 27.4648 190.687 27.8633 190.687C28.3867 190.687 28.8535 190.788 29.2637 190.992C29.6738 191.191 29.9961 191.466 30.2305 191.818C30.4688 192.169 30.5879 192.572 30.5879 193.025ZM29.498 193.001C29.498 192.685 29.4297 192.406 29.293 192.163C29.1562 191.917 28.9648 191.726 28.7188 191.589C28.4727 191.453 28.1875 191.384 27.8633 191.384C27.5312 191.384 27.2441 191.453 27.002 191.589C26.7637 191.726 26.5781 191.917 26.4453 192.163C26.3125 192.406 26.2461 192.685 26.2461 193.001C26.2461 193.329 26.3105 193.611 26.4395 193.845C26.5723 194.076 26.7598 194.253 27.002 194.378C27.248 194.499 27.5391 194.56 27.875 194.56C28.2109 194.56 28.5 194.499 28.7422 194.378C28.9844 194.253 29.1699 194.076 29.2988 193.845C29.4316 193.611 29.498 193.329 29.498 193.001ZM30.3887 189.023C30.3887 189.437 30.2793 189.81 30.0605 190.142C29.8418 190.474 29.543 190.736 29.1641 190.927C28.7852 191.119 28.3555 191.214 27.875 191.214C27.3867 191.214 26.9512 191.119 26.5684 190.927C26.1895 190.736 25.8926 190.474 25.6777 190.142C25.4629 189.81 25.3555 189.437 25.3555 189.023C25.3555 188.527 25.4629 188.105 25.6777 187.757C25.8965 187.41 26.1953 187.144 26.5742 186.96C26.9531 186.777 27.3848 186.685 27.8691 186.685C28.3574 186.685 28.791 186.777 29.1699 186.96C29.5488 187.144 29.8457 187.41 30.0605 187.757C30.2793 188.105 30.3887 188.527 30.3887 189.023ZM29.3047 189.04C29.3047 188.755 29.2441 188.503 29.123 188.285C29.002 188.066 28.834 187.894 28.6191 187.769C28.4043 187.64 28.1543 187.576 27.8691 187.576C27.584 187.576 27.334 187.636 27.1191 187.757C26.9082 187.874 26.7422 188.042 26.6211 188.261C26.5039 188.48 26.4453 188.74 26.4453 189.04C26.4453 189.333 26.5039 189.589 26.6211 189.808C26.7422 190.027 26.9102 190.197 27.125 190.318C27.3398 190.439 27.5898 190.499 27.875 190.499C28.1602 190.499 28.4082 190.439 28.6191 190.318C28.834 190.197 29.002 190.027 29.123 189.808C29.2441 189.589 29.3047 189.333 29.3047 189.04ZM37.3145 190.388V191.689C37.3145 192.388 37.252 192.978 37.127 193.458C37.002 193.939 36.8223 194.326 36.5879 194.619C36.3535 194.911 36.0703 195.124 35.7383 195.257C35.4102 195.386 35.0391 195.451 34.625 195.451C34.2969 195.451 33.9941 195.41 33.7168 195.328C33.4395 195.245 33.1895 195.115 32.9668 194.935C32.748 194.751 32.5605 194.513 32.4043 194.22C32.248 193.927 32.1289 193.572 32.0469 193.154C31.9648 192.736 31.9238 192.247 31.9238 191.689V190.388C31.9238 189.689 31.9863 189.103 32.1113 188.63C32.2402 188.158 32.4219 187.779 32.6562 187.494C32.8906 187.204 33.1719 186.997 33.5 186.872C33.832 186.747 34.2031 186.685 34.6133 186.685C34.9453 186.685 35.25 186.726 35.5273 186.808C35.8086 186.886 36.0586 187.013 36.2773 187.189C36.4961 187.361 36.6816 187.591 36.834 187.88C36.9902 188.165 37.1094 188.515 37.1914 188.929C37.2734 189.343 37.3145 189.829 37.3145 190.388ZM36.2246 191.865V190.206C36.2246 189.824 36.2012 189.488 36.1543 189.199C36.1113 188.906 36.0469 188.656 35.9609 188.449C35.875 188.242 35.7656 188.074 35.6328 187.945C35.5039 187.816 35.3535 187.722 35.1816 187.663C35.0137 187.601 34.8242 187.57 34.6133 187.57C34.3555 187.57 34.127 187.619 33.9277 187.716C33.7285 187.81 33.5605 187.96 33.4238 188.167C33.291 188.374 33.1895 188.646 33.1191 188.982C33.0488 189.318 33.0137 189.726 33.0137 190.206V191.865C33.0137 192.247 33.0352 192.585 33.0781 192.878C33.125 193.171 33.1934 193.425 33.2832 193.64C33.373 193.851 33.4824 194.025 33.6113 194.161C33.7402 194.298 33.8887 194.4 34.0566 194.466C34.2285 194.529 34.418 194.56 34.625 194.56C34.8906 194.56 35.123 194.509 35.3223 194.408C35.5215 194.306 35.6875 194.148 35.8203 193.933C35.957 193.714 36.0586 193.435 36.125 193.095C36.1914 192.751 36.2246 192.341 36.2246 191.865Z" fill="black" fill-opacity="0.87"/>
<line x1="46" y1="190.833" x2="52" y2="190.833" stroke="black" stroke-opacity="0.87"/>
<path d="M29.3691 221.957H29.4629V222.877H29.3691C28.7949 222.877 28.3145 222.971 27.9277 223.158C27.541 223.342 27.2344 223.59 27.0078 223.902C26.7812 224.211 26.6172 224.559 26.5156 224.945C26.418 225.332 26.3691 225.725 26.3691 226.123V227.377C26.3691 227.756 26.4141 228.092 26.5039 228.385C26.5938 228.674 26.7168 228.918 26.873 229.117C27.0293 229.316 27.2051 229.467 27.4004 229.568C27.5996 229.67 27.8066 229.721 28.0215 229.721C28.2715 229.721 28.4941 229.674 28.6895 229.58C28.8848 229.482 29.0488 229.348 29.1816 229.176C29.3184 229 29.4219 228.793 29.4922 228.555C29.5625 228.316 29.5977 228.055 29.5977 227.77C29.5977 227.516 29.5664 227.271 29.5039 227.037C29.4414 226.799 29.3457 226.588 29.2168 226.404C29.0879 226.217 28.9258 226.07 28.7305 225.965C28.5391 225.855 28.3105 225.801 28.0449 225.801C27.7441 225.801 27.4629 225.875 27.2012 226.023C26.9434 226.168 26.7305 226.359 26.5625 226.598C26.3984 226.832 26.3047 227.088 26.2812 227.365L25.707 227.359C25.7617 226.922 25.8633 226.549 26.0117 226.24C26.1641 225.928 26.3516 225.674 26.5742 225.479C26.8008 225.279 27.0527 225.135 27.3301 225.045C27.6113 224.951 27.9082 224.904 28.2207 224.904C28.6465 224.904 29.0137 224.984 29.3223 225.145C29.6309 225.305 29.8848 225.52 30.084 225.789C30.2832 226.055 30.4297 226.355 30.5234 226.691C30.6211 227.023 30.6699 227.365 30.6699 227.717C30.6699 228.119 30.6133 228.496 30.5 228.848C30.3867 229.199 30.2168 229.508 29.9902 229.773C29.7676 230.039 29.4922 230.246 29.1641 230.395C28.8359 230.543 28.4551 230.617 28.0215 230.617C27.5605 230.617 27.1582 230.523 26.8145 230.336C26.4707 230.145 26.1855 229.891 25.959 229.574C25.7324 229.258 25.5625 228.906 25.4492 228.52C25.3359 228.133 25.2793 227.74 25.2793 227.342V226.832C25.2793 226.23 25.3398 225.641 25.4609 225.062C25.582 224.484 25.791 223.961 26.0879 223.492C26.3887 223.023 26.8047 222.65 27.3359 222.373C27.8672 222.096 28.5449 221.957 29.3691 221.957ZM37.3145 225.555V226.855C37.3145 227.555 37.252 228.145 37.127 228.625C37.002 229.105 36.8223 229.492 36.5879 229.785C36.3535 230.078 36.0703 230.291 35.7383 230.424C35.4102 230.553 35.0391 230.617 34.625 230.617C34.2969 230.617 33.9941 230.576 33.7168 230.494C33.4395 230.412 33.1895 230.281 32.9668 230.102C32.748 229.918 32.5605 229.68 32.4043 229.387C32.248 229.094 32.1289 228.738 32.0469 228.32C31.9648 227.902 31.9238 227.414 31.9238 226.855V225.555C31.9238 224.855 31.9863 224.27 32.1113 223.797C32.2402 223.324 32.4219 222.945 32.6562 222.66C32.8906 222.371 33.1719 222.164 33.5 222.039C33.832 221.914 34.2031 221.852 34.6133 221.852C34.9453 221.852 35.25 221.893 35.5273 221.975C35.8086 222.053 36.0586 222.18 36.2773 222.355C36.4961 222.527 36.6816 222.758 36.834 223.047C36.9902 223.332 37.1094 223.682 37.1914 224.096C37.2734 224.51 37.3145 224.996 37.3145 225.555ZM36.2246 227.031V225.373C36.2246 224.99 36.2012 224.654 36.1543 224.365C36.1113 224.072 36.0469 223.822 35.9609 223.615C35.875 223.408 35.7656 223.24 35.6328 223.111C35.5039 222.982 35.3535 222.889 35.1816 222.83C35.0137 222.768 34.8242 222.736 34.6133 222.736C34.3555 222.736 34.127 222.785 33.9277 222.883C33.7285 222.977 33.5605 223.127 33.4238 223.334C33.291 223.541 33.1895 223.812 33.1191 224.148C33.0488 224.484 33.0137 224.893 33.0137 225.373V227.031C33.0137 227.414 33.0352 227.752 33.0781 228.045C33.125 228.338 33.1934 228.592 33.2832 228.807C33.373 229.018 33.4824 229.191 33.6113 229.328C33.7402 229.465 33.8887 229.566 34.0566 229.633C34.2285 229.695 34.418 229.727 34.625 229.727C34.8906 229.727 35.123 229.676 35.3223 229.574C35.5215 229.473 35.6875 229.314 35.8203 229.1C35.957 228.881 36.0586 228.602 36.125 228.262C36.1914 227.918 36.2246 227.508 36.2246 227.031Z" fill="black" fill-opacity="0.87"/>
<line x1="46" y1="226" x2="52" y2="226" stroke="black" stroke-opacity="0.87"/>
<path d="M30.9746 262.796V263.686H24.8105V263.047L28.6309 257.135H29.5156L28.5664 258.846L26.041 262.796H30.9746ZM29.7852 257.135V265.667H28.7012V257.135H29.7852ZM37.3145 260.721V262.022C37.3145 262.721 37.252 263.311 37.127 263.792C37.002 264.272 36.8223 264.659 36.5879 264.952C36.3535 265.245 36.0703 265.458 35.7383 265.59C35.4102 265.719 35.0391 265.784 34.625 265.784C34.2969 265.784 33.9941 265.743 33.7168 265.661C33.4395 265.579 33.1895 265.448 32.9668 265.268C32.748 265.085 32.5605 264.846 32.4043 264.553C32.248 264.26 32.1289 263.905 32.0469 263.487C31.9648 263.069 31.9238 262.581 31.9238 262.022V260.721C31.9238 260.022 31.9863 259.436 32.1113 258.964C32.2402 258.491 32.4219 258.112 32.6562 257.827C32.8906 257.538 33.1719 257.331 33.5 257.206C33.832 257.081 34.2031 257.018 34.6133 257.018C34.9453 257.018 35.25 257.059 35.5273 257.141C35.8086 257.219 36.0586 257.346 36.2773 257.522C36.4961 257.694 36.6816 257.924 36.834 258.214C36.9902 258.499 37.1094 258.848 37.1914 259.262C37.2734 259.676 37.3145 260.163 37.3145 260.721ZM36.2246 262.198V260.54C36.2246 260.157 36.2012 259.821 36.1543 259.532C36.1113 259.239 36.0469 258.989 35.9609 258.782C35.875 258.575 35.7656 258.407 35.6328 258.278C35.5039 258.149 35.3535 258.055 35.1816 257.997C35.0137 257.934 34.8242 257.903 34.6133 257.903C34.3555 257.903 34.127 257.952 33.9277 258.049C33.7285 258.143 33.5605 258.294 33.4238 258.501C33.291 258.708 33.1895 258.979 33.1191 259.315C33.0488 259.651 33.0137 260.059 33.0137 260.54V262.198C33.0137 262.581 33.0352 262.919 33.0781 263.212C33.125 263.505 33.1934 263.758 33.2832 263.973C33.373 264.184 33.4824 264.358 33.6113 264.495C33.7402 264.631 33.8887 264.733 34.0566 264.799C34.2285 264.862 34.418 264.893 34.625 264.893C34.8906 264.893 35.123 264.842 35.3223 264.741C35.5215 264.639 35.6875 264.481 35.8203 264.266C35.957 264.047 36.0586 263.768 36.125 263.428C36.1914 263.085 36.2246 262.674 36.2246 262.198Z" fill="black" fill-opacity="0.87"/>
<line x1="46" y1="261.167" x2="52" y2="261.167" stroke="black" stroke-opacity="0.87"/>
<path d="M30.7988 299.943V300.833H25.2148V300.054L28.0098 296.943C28.3535 296.56 28.6191 296.236 28.8066 295.97C28.998 295.701 29.1309 295.46 29.2051 295.249C29.2832 295.035 29.3223 294.816 29.3223 294.593C29.3223 294.312 29.2637 294.058 29.1465 293.831C29.0332 293.601 28.8652 293.417 28.6426 293.281C28.4199 293.144 28.1504 293.076 27.834 293.076C27.4551 293.076 27.1387 293.15 26.8848 293.298C26.6348 293.443 26.4473 293.646 26.3223 293.908C26.1973 294.169 26.1348 294.47 26.1348 294.81H25.0508C25.0508 294.329 25.1562 293.89 25.3672 293.492C25.5781 293.093 25.8906 292.777 26.3047 292.542C26.7188 292.304 27.2285 292.185 27.834 292.185C28.373 292.185 28.834 292.281 29.2168 292.472C29.5996 292.66 29.8926 292.925 30.0957 293.269C30.3027 293.609 30.4062 294.007 30.4062 294.464C30.4062 294.714 30.3633 294.968 30.2773 295.226C30.1953 295.48 30.0801 295.734 29.9316 295.988C29.7871 296.242 29.6172 296.492 29.4219 296.738C29.2305 296.984 29.0254 297.226 28.8066 297.464L26.5215 299.943H30.7988ZM37.3145 295.888V297.189C37.3145 297.888 37.252 298.478 37.127 298.958C37.002 299.439 36.8223 299.826 36.5879 300.119C36.3535 300.411 36.0703 300.624 35.7383 300.757C35.4102 300.886 35.0391 300.951 34.625 300.951C34.2969 300.951 33.9941 300.91 33.7168 300.828C33.4395 300.745 33.1895 300.615 32.9668 300.435C32.748 300.251 32.5605 300.013 32.4043 299.72C32.248 299.427 32.1289 299.072 32.0469 298.654C31.9648 298.236 31.9238 297.747 31.9238 297.189V295.888C31.9238 295.189 31.9863 294.603 32.1113 294.13C32.2402 293.658 32.4219 293.279 32.6562 292.994C32.8906 292.704 33.1719 292.497 33.5 292.372C33.832 292.247 34.2031 292.185 34.6133 292.185C34.9453 292.185 35.25 292.226 35.5273 292.308C35.8086 292.386 36.0586 292.513 36.2773 292.689C36.4961 292.861 36.6816 293.091 36.834 293.38C36.9902 293.665 37.1094 294.015 37.1914 294.429C37.2734 294.843 37.3145 295.329 37.3145 295.888ZM36.2246 297.365V295.706C36.2246 295.324 36.2012 294.988 36.1543 294.699C36.1113 294.406 36.0469 294.156 35.9609 293.949C35.875 293.742 35.7656 293.574 35.6328 293.445C35.5039 293.316 35.3535 293.222 35.1816 293.163C35.0137 293.101 34.8242 293.07 34.6133 293.07C34.3555 293.07 34.127 293.119 33.9277 293.216C33.7285 293.31 33.5605 293.46 33.4238 293.667C33.291 293.874 33.1895 294.146 33.1191 294.482C33.0488 294.818 33.0137 295.226 33.0137 295.706V297.365C33.0137 297.747 33.0352 298.085 33.0781 298.378C33.125 298.671 33.1934 298.925 33.2832 299.14C33.373 299.351 33.4824 299.525 33.6113 299.661C33.7402 299.798 33.8887 299.9 34.0566 299.966C34.2285 300.029 34.418 300.06 34.625 300.06C34.8906 300.06 35.123 300.009 35.3223 299.908C35.5215 299.806 35.6875 299.648 35.8203 299.433C35.957 299.214 36.0586 298.935 36.125 298.595C36.1914 298.251 36.2246 297.841 36.2246 297.365Z" fill="black" fill-opacity="0.87"/>
<line x1="46" y1="296.333" x2="52" y2="296.333" stroke="black" stroke-opacity="0.87"/>
<path d="M37.3145 331.055V332.355C37.3145 333.055 37.252 333.645 37.127 334.125C37.002 334.605 36.8223 334.992 36.5879 335.285C36.3535 335.578 36.0703 335.791 35.7383 335.924C35.4102 336.053 35.0391 336.117 34.625 336.117C34.2969 336.117 33.9941 336.076 33.7168 335.994C33.4395 335.912 33.1895 335.781 32.9668 335.602C32.748 335.418 32.5605 335.18 32.4043 334.887C32.248 334.594 32.1289 334.238 32.0469 333.82C31.9648 333.402 31.9238 332.914 31.9238 332.355V331.055C31.9238 330.355 31.9863 329.77 32.1113 329.297C32.2402 328.824 32.4219 328.445 32.6562 328.16C32.8906 327.871 33.1719 327.664 33.5 327.539C33.832 327.414 34.2031 327.352 34.6133 327.352C34.9453 327.352 35.25 327.393 35.5273 327.475C35.8086 327.553 36.0586 327.68 36.2773 327.855C36.4961 328.027 36.6816 328.258 36.834 328.547C36.9902 328.832 37.1094 329.182 37.1914 329.596C37.2734 330.01 37.3145 330.496 37.3145 331.055ZM36.2246 332.531V330.873C36.2246 330.49 36.2012 330.154 36.1543 329.865C36.1113 329.572 36.0469 329.322 35.9609 329.115C35.875 328.908 35.7656 328.74 35.6328 328.611C35.5039 328.482 35.3535 328.389 35.1816 328.33C35.0137 328.268 34.8242 328.236 34.6133 328.236C34.3555 328.236 34.127 328.285 33.9277 328.383C33.7285 328.477 33.5605 328.627 33.4238 328.834C33.291 329.041 33.1895 329.312 33.1191 329.648C33.0488 329.984 33.0137 330.393 33.0137 330.873V332.531C33.0137 332.914 33.0352 333.252 33.0781 333.545C33.125 333.838 33.1934 334.092 33.2832 334.307C33.373 334.518 33.4824 334.691 33.6113 334.828C33.7402 334.965 33.8887 335.066 34.0566 335.133C34.2285 335.195 34.418 335.227 34.625 335.227C34.8906 335.227 35.123 335.176 35.3223 335.074C35.5215 334.973 35.6875 334.814 35.8203 334.6C35.957 334.381 36.0586 334.102 36.125 333.762C36.1914 333.418 36.2246 333.008 36.2246 332.531Z" fill="black" fill-opacity="0.87"/>
<line x1="46" y1="331.5" x2="52" y2="331.5" stroke="black" stroke-opacity="0.87"/>
<rect x="52" y="120" width="1" height="212" fill="black" fill-opacity="0.87"/>
<path d="M51.5278 315.25L125.2 297.289C125.796 297.144 126.379 296.944 126.939 296.691L194.428 266.285C194.935 266.056 195.423 265.786 195.885 265.476L263.989 219.862C264.599 219.453 265.252 219.113 265.936 218.847L332.313 193.095C333.219 192.743 334.068 192.262 334.835 191.665L400.595 140.524C401.716 139.651 403.012 139.028 404.393 138.695L475 121.7" stroke="#4FD1C5" stroke-width="2" stroke-linecap="round" stroke-linejoin="round"/>
<path d="M62 314.9C62 317.661 59.7614 319.9 57 319.9C54.2386 319.9 52 317.661 52 314.9C52 312.139 54.2386 309.9 57 309.9C59.7614 309.9 62 312.139 62 314.9Z" fill="white" stroke="#4FD1C5" stroke-width="2"/>
<path d="M131.167 297.4C131.167 300.161 128.928 302.4 126.167 302.4C123.405 302.4 121.167 300.161 121.167 297.4C121.167 294.639 123.405 292.4 126.167 292.4C128.928 292.4 131.167 294.639 131.167 297.4Z" fill="white" stroke="#4FD1C5" stroke-width="2"/>
<circle cx="195.333" cy="266.6" r="5" fill="white" stroke="#4FD1C5" stroke-width="2"/>
<circle cx="264.5" cy="219.7" r="5" fill="white" stroke="#4FD1C5" stroke-width="2"/>
<circle cx="333.667" cy="193.1" r="5" fill="white" stroke="#4FD1C5" stroke-width="2"/>
<circle cx="402.833" cy="139.9" r="5" fill="white" stroke="#4FD1C5" stroke-width="2"/>
<circle cx="472" cy="121.7" r="5" fill="white" stroke="#4FD1C5" stroke-width="2"/>
<path d="M51.5278 315.25L125.2 297.289C125.796 297.144 126.379 296.944 126.939 296.691L194.428 266.285C194.935 266.056 195.423 265.786 195.885 265.476L263.989 219.862C264.599 219.453 265.252 219.113 265.936 218.847L332.313 193.095C333.219 192.743 334.068 192.262 334.835 191.665L400.595 140.524C401.716 139.651 403.012 139.028 404.393 138.695L475 121.7" stroke="#4FD1C5" stroke-width="2" stroke-linecap="round" stroke-linejoin="round"/>
<path d="M62 314.2C62 316.961 59.7614 319.2 57 319.2C54.2386 319.2 52 316.961 52 314.2C52 311.439 54.2386 309.2 57 309.2C59.7614 309.2 62 311.439 62 314.2Z" fill="white" stroke="#4FD1C5" stroke-width="2"/>
<path d="M131.167 297.4C131.167 300.161 128.928 302.4 126.167 302.4C123.405 302.4 121.167 300.161 121.167 297.4C121.167 294.639 123.405 292.4 126.167 292.4C128.928 292.4 131.167 294.639 131.167 297.4Z" fill="white" stroke="#4FD1C5" stroke-width="2"/>
<circle cx="195.333" cy="266.6" r="5" fill="white" stroke="#4FD1C5" stroke-width="2"/>
<circle cx="264.5" cy="219.7" r="5" fill="white" stroke="#4FD1C5" stroke-width="2"/>
<circle cx="333.667" cy="193.1" r="5" fill="white" stroke="#4FD1C5" stroke-width="2"/>
<circle cx="402.833" cy="139.9" r="5" fill="white" stroke="#4FD1C5" stroke-width="2"/>
<circle cx="472" cy="127.3" r="5" fill="white" stroke="#4FD1C5" stroke-width="2"/>
<path d="M56 235.204L119.767 310.802C122.891 314.506 128.222 315.437 132.417 313.011L194.333 277.204L259.343 237.728C261.967 236.135 265.178 235.835 268.052 236.915L331.413 260.733C332.245 261.046 333.032 261.468 333.752 261.989L396.333 307.228C399.654 309.629 404.102 309.761 407.559 307.562L471 267.204" stroke="#EF5350" stroke-width="2" stroke-linecap="round" stroke-linejoin="round"/>
<circle cx="57" cy="236" r="5" fill="white" stroke="#EF5350" stroke-width="2"/>
<circle cx="126.167" cy="318" r="5" fill="white" stroke="#EF5350" stroke-width="2"/>
<circle cx="195.333" cy="278" r="5" fill="white" stroke="#EF5350" stroke-width="2"/>
<circle cx="264.5" cy="236" r="5" fill="white" stroke="#EF5350" stroke-width="2"/>
<circle cx="333.667" cy="262" r="5" fill="white" stroke="#EF5350" stroke-width="2"/>
<circle cx="402.833" cy="312" r="5" fill="white" stroke="#EF5350" stroke-width="2"/>
<circle cx="472" cy="268" r="5" fill="white" stroke="#EF5350" stroke-width="2"/>
<path d="M62 314.9C62 317.661 59.7614 319.9 57 319.9C54.2386 319.9 52 317.661 52 314.9C52 312.139 54.2386 309.9 57 309.9C59.7614 309.9 62 312.139 62 314.9Z" fill="white" stroke="#4FD1C5" stroke-width="2"/>
<path d="M131.167 297.4C131.167 300.161 128.928 302.4 126.167 302.4C123.405 302.4 121.167 300.161 121.167 297.4C121.167 294.639 123.405 292.4 126.167 292.4C128.928 292.4 131.167 294.639 131.167 297.4Z" fill="white" stroke="#4FD1C5" stroke-width="2"/>
<circle cx="195.333" cy="266.6" r="5" fill="white" stroke="#4FD1C5" stroke-width="2"/>
<circle cx="264.5" cy="219.7" r="5" fill="white" stroke="#4FD1C5" stroke-width="2"/>
<circle cx="333.667" cy="193.1" r="5" fill="white" stroke="#4FD1C5" stroke-width="2"/>
<circle cx="402.833" cy="139.9" r="5" fill="white" stroke="#4FD1C5" stroke-width="2"/>
<circle cx="472" cy="121.7" r="5" fill="white" stroke="#4FD1C5" stroke-width="2"/>
<rect x="52" y="331" width="423" height="1" fill="black" fill-opacity="0.87"/>
<rect x="52" y="332" width="1" height="6" fill="black" fill-opacity="0.87"/>
<rect x="474" y="332" width="1" height="6" fill="black" fill-opacity="0.87"/>
<path d="M55.6895 347.055V348.355C55.6895 349.055 55.627 349.645 55.502 350.125C55.377 350.605 55.1973 350.992 54.9629 351.285C54.7285 351.578 54.4453 351.791 54.1133 351.924C53.7852 352.053 53.4141 352.117 53 352.117C52.6719 352.117 52.3691 352.076 52.0918 351.994C51.8145 351.912 51.5645 351.781 51.3418 351.602C51.123 351.418 50.9355 351.18 50.7793 350.887C50.623 350.594 50.5039 350.238 50.4219 349.82C50.3398 349.402 50.2988 348.914 50.2988 348.355V347.055C50.2988 346.355 50.3613 345.77 50.4863 345.297C50.6152 344.824 50.7969 344.445 51.0312 344.16C51.2656 343.871 51.5469 343.664 51.875 343.539C52.207 343.414 52.5781 343.352 52.9883 343.352C53.3203 343.352 53.625 343.393 53.9023 343.475C54.1836 343.553 54.4336 343.68 54.6523 343.855C54.8711 344.027 55.0566 344.258 55.209 344.547C55.3652 344.832 55.4844 345.182 55.5664 345.596C55.6484 346.01 55.6895 346.496 55.6895 347.055ZM54.5996 348.531V346.873C54.5996 346.49 54.5762 346.154 54.5293 345.865C54.4863 345.572 54.4219 345.322 54.3359 345.115C54.25 344.908 54.1406 344.74 54.0078 344.611C53.8789 344.482 53.7285 344.389 53.5566 344.33C53.3887 344.268 53.1992 344.236 52.9883 344.236C52.7305 344.236 52.502 344.285 52.3027 344.383C52.1035 344.477 51.9355 344.627 51.7988 344.834C51.666 345.041 51.5645 345.312 51.4941 345.648C51.4238 345.984 51.3887 346.393 51.3887 346.873V348.531C51.3887 348.914 51.4102 349.252 51.4531 349.545C51.5 349.838 51.5684 350.092 51.6582 350.307C51.748 350.518 51.8574 350.691 51.9863 350.828C52.1152 350.965 52.2637 351.066 52.4316 351.133C52.6035 351.195 52.793 351.227 53 351.227C53.2656 351.227 53.498 351.176 53.6973 351.074C53.8965 350.973 54.0625 350.814 54.1953 350.6C54.332 350.381 54.4336 350.102 54.5 349.762C54.5664 349.418 54.5996 349.008 54.5996 348.531Z" fill="black" fill-opacity="0.87"/>
<line x1="122.667" y1="338" x2="122.667" y2="332" stroke="black" stroke-opacity="0.87"/>
<path d="M122.715 351.109V352H117.131V351.221L119.926 348.109C120.27 347.727 120.536 347.402 120.723 347.137C120.915 346.867 121.047 346.627 121.122 346.416C121.2 346.201 121.239 345.982 121.239 345.76C121.239 345.479 121.18 345.225 121.063 344.998C120.95 344.768 120.782 344.584 120.559 344.447C120.336 344.311 120.067 344.242 119.75 344.242C119.372 344.242 119.055 344.316 118.801 344.465C118.551 344.609 118.364 344.812 118.239 345.074C118.114 345.336 118.051 345.637 118.051 345.977H116.967C116.967 345.496 117.073 345.057 117.284 344.658C117.495 344.26 117.807 343.943 118.221 343.709C118.635 343.471 119.145 343.352 119.75 343.352C120.29 343.352 120.75 343.447 121.133 343.639C121.516 343.826 121.809 344.092 122.012 344.436C122.219 344.775 122.323 345.174 122.323 345.631C122.323 345.881 122.28 346.135 122.194 346.393C122.112 346.646 121.997 346.9 121.848 347.154C121.704 347.408 121.534 347.658 121.338 347.904C121.147 348.15 120.942 348.393 120.723 348.631L118.438 351.109H122.715ZM129.231 347.055V348.355C129.231 349.055 129.168 349.645 129.043 350.125C128.918 350.605 128.739 350.992 128.504 351.285C128.27 351.578 127.987 351.791 127.655 351.924C127.327 352.053 126.956 352.117 126.542 352.117C126.213 352.117 125.911 352.076 125.633 351.994C125.356 351.912 125.106 351.781 124.883 351.602C124.665 351.418 124.477 351.18 124.321 350.887C124.165 350.594 124.045 350.238 123.963 349.82C123.881 349.402 123.84 348.914 123.84 348.355V347.055C123.84 346.355 123.903 345.77 124.028 345.297C124.157 344.824 124.338 344.445 124.573 344.16C124.807 343.871 125.088 343.664 125.417 343.539C125.749 343.414 126.12 343.352 126.53 343.352C126.862 343.352 127.167 343.393 127.444 343.475C127.725 343.553 127.975 343.68 128.194 343.855C128.413 344.027 128.598 344.258 128.75 344.547C128.907 344.832 129.026 345.182 129.108 345.596C129.19 346.01 129.231 346.496 129.231 347.055ZM128.141 348.531V346.873C128.141 346.49 128.118 346.154 128.071 345.865C128.028 345.572 127.963 345.322 127.877 345.115C127.792 344.908 127.682 344.74 127.549 344.611C127.42 344.482 127.27 344.389 127.098 344.33C126.93 344.268 126.741 344.236 126.53 344.236C126.272 344.236 126.043 344.285 125.844 344.383C125.645 344.477 125.477 344.627 125.34 344.834C125.208 345.041 125.106 345.312 125.036 345.648C124.965 345.984 124.93 346.393 124.93 346.873V348.531C124.93 348.914 124.952 349.252 124.995 349.545C125.042 349.838 125.11 350.092 125.2 350.307C125.29 350.518 125.399 350.691 125.528 350.828C125.657 350.965 125.805 351.066 125.973 351.133C126.145 351.195 126.334 351.227 126.542 351.227C126.807 351.227 127.04 351.176 127.239 351.074C127.438 350.973 127.604 350.814 127.737 350.6C127.874 350.381 127.975 350.102 128.042 349.762C128.108 349.418 128.141 349.008 128.141 348.531Z" fill="black" fill-opacity="0.87"/>
<line x1="192.833" y1="338" x2="192.833" y2="332" stroke="black" stroke-opacity="0.87"/>
<path d="M193.058 349.129V350.02H186.894V349.381L190.714 343.469H191.599L190.65 345.18L188.125 349.129H193.058ZM191.869 343.469V352H190.785V343.469H191.869ZM199.398 347.055V348.355C199.398 349.055 199.335 349.645 199.21 350.125C199.085 350.605 198.906 350.992 198.671 351.285C198.437 351.578 198.154 351.791 197.822 351.924C197.494 352.053 197.123 352.117 196.708 352.117C196.38 352.117 196.078 352.076 195.8 351.994C195.523 351.912 195.273 351.781 195.05 351.602C194.832 351.418 194.644 351.18 194.488 350.887C194.332 350.594 194.212 350.238 194.13 349.82C194.048 349.402 194.007 348.914 194.007 348.355V347.055C194.007 346.355 194.07 345.77 194.195 345.297C194.324 344.824 194.505 344.445 194.74 344.16C194.974 343.871 195.255 343.664 195.583 343.539C195.916 343.414 196.287 343.352 196.697 343.352C197.029 343.352 197.333 343.393 197.611 343.475C197.892 343.553 198.142 343.68 198.361 343.855C198.58 344.027 198.765 344.258 198.917 344.547C199.074 344.832 199.193 345.182 199.275 345.596C199.357 346.01 199.398 346.496 199.398 347.055ZM198.308 348.531V346.873C198.308 346.49 198.285 346.154 198.238 345.865C198.195 345.572 198.13 345.322 198.044 345.115C197.958 344.908 197.849 344.74 197.716 344.611C197.587 344.482 197.437 344.389 197.265 344.33C197.097 344.268 196.908 344.236 196.697 344.236C196.439 344.236 196.21 344.285 196.011 344.383C195.812 344.477 195.644 344.627 195.507 344.834C195.375 345.041 195.273 345.312 195.203 345.648C195.132 345.984 195.097 346.393 195.097 346.873V348.531C195.097 348.914 195.119 349.252 195.162 349.545C195.208 349.838 195.277 350.092 195.367 350.307C195.457 350.518 195.566 350.691 195.695 350.828C195.824 350.965 195.972 351.066 196.14 351.133C196.312 351.195 196.501 351.227 196.708 351.227C196.974 351.227 197.207 351.176 197.406 351.074C197.605 350.973 197.771 350.814 197.904 350.6C198.041 350.381 198.142 350.102 198.208 349.762C198.275 349.418 198.308 349.008 198.308 348.531Z" fill="black" fill-opacity="0.87"/>
<line x1="263" y1="338" x2="263" y2="332" stroke="black" stroke-opacity="0.87"/>
<path d="M261.619 343.457H261.713V344.377H261.619C261.045 344.377 260.564 344.471 260.178 344.658C259.791 344.842 259.484 345.09 259.258 345.402C259.031 345.711 258.867 346.059 258.766 346.445C258.668 346.832 258.619 347.225 258.619 347.623V348.877C258.619 349.256 258.664 349.592 258.754 349.885C258.844 350.174 258.967 350.418 259.123 350.617C259.279 350.816 259.455 350.967 259.65 351.068C259.85 351.17 260.057 351.221 260.271 351.221C260.521 351.221 260.744 351.174 260.939 351.08C261.135 350.982 261.299 350.848 261.432 350.676C261.568 350.5 261.672 350.293 261.742 350.055C261.812 349.816 261.848 349.555 261.848 349.27C261.848 349.016 261.816 348.771 261.754 348.537C261.691 348.299 261.596 348.088 261.467 347.904C261.338 347.717 261.176 347.57 260.98 347.465C260.789 347.355 260.561 347.301 260.295 347.301C259.994 347.301 259.713 347.375 259.451 347.523C259.193 347.668 258.98 347.859 258.812 348.098C258.648 348.332 258.555 348.588 258.531 348.865L257.957 348.859C258.012 348.422 258.113 348.049 258.262 347.74C258.414 347.428 258.602 347.174 258.824 346.979C259.051 346.779 259.303 346.635 259.58 346.545C259.861 346.451 260.158 346.404 260.471 346.404C260.896 346.404 261.264 346.484 261.572 346.645C261.881 346.805 262.135 347.02 262.334 347.289C262.533 347.555 262.68 347.855 262.773 348.191C262.871 348.523 262.92 348.865 262.92 349.217C262.92 349.619 262.863 349.996 262.75 350.348C262.637 350.699 262.467 351.008 262.24 351.273C262.018 351.539 261.742 351.746 261.414 351.895C261.086 352.043 260.705 352.117 260.271 352.117C259.811 352.117 259.408 352.023 259.064 351.836C258.721 351.645 258.436 351.391 258.209 351.074C257.982 350.758 257.812 350.406 257.699 350.02C257.586 349.633 257.529 349.24 257.529 348.842V348.332C257.529 347.73 257.59 347.141 257.711 346.562C257.832 345.984 258.041 345.461 258.338 344.992C258.639 344.523 259.055 344.15 259.586 343.873C260.117 343.596 260.795 343.457 261.619 343.457ZM269.564 347.055V348.355C269.564 349.055 269.502 349.645 269.377 350.125C269.252 350.605 269.072 350.992 268.838 351.285C268.604 351.578 268.32 351.791 267.988 351.924C267.66 352.053 267.289 352.117 266.875 352.117C266.547 352.117 266.244 352.076 265.967 351.994C265.689 351.912 265.439 351.781 265.217 351.602C264.998 351.418 264.811 351.18 264.654 350.887C264.498 350.594 264.379 350.238 264.297 349.82C264.215 349.402 264.174 348.914 264.174 348.355V347.055C264.174 346.355 264.236 345.77 264.361 345.297C264.49 344.824 264.672 344.445 264.906 344.16C265.141 343.871 265.422 343.664 265.75 343.539C266.082 343.414 266.453 343.352 266.863 343.352C267.195 343.352 267.5 343.393 267.777 343.475C268.059 343.553 268.309 343.68 268.527 343.855C268.746 344.027 268.932 344.258 269.084 344.547C269.24 344.832 269.359 345.182 269.441 345.596C269.523 346.01 269.564 346.496 269.564 347.055ZM268.475 348.531V346.873C268.475 346.49 268.451 346.154 268.404 345.865C268.361 345.572 268.297 345.322 268.211 345.115C268.125 344.908 268.016 344.74 267.883 344.611C267.754 344.482 267.604 344.389 267.432 344.33C267.264 344.268 267.074 344.236 266.863 344.236C266.605 344.236 266.377 344.285 266.178 344.383C265.979 344.477 265.811 344.627 265.674 344.834C265.541 345.041 265.439 345.312 265.369 345.648C265.299 345.984 265.264 346.393 265.264 346.873V348.531C265.264 348.914 265.285 349.252 265.328 349.545C265.375 349.838 265.443 350.092 265.533 350.307C265.623 350.518 265.732 350.691 265.861 350.828C265.99 350.965 266.139 351.066 266.307 351.133C266.479 351.195 266.668 351.227 266.875 351.227C267.141 351.227 267.373 351.176 267.572 351.074C267.771 350.973 267.938 350.814 268.07 350.6C268.207 350.381 268.309 350.102 268.375 349.762C268.441 349.418 268.475 349.008 268.475 348.531Z" fill="black" fill-opacity="0.87"/>
<line x1="333.167" y1="338" x2="333.167" y2="332" stroke="black" stroke-opacity="0.87"/>
<path d="M333.004 349.691C333.004 350.211 332.883 350.652 332.641 351.016C332.403 351.375 332.079 351.648 331.668 351.836C331.262 352.023 330.803 352.117 330.292 352.117C329.78 352.117 329.319 352.023 328.909 351.836C328.499 351.648 328.174 351.375 327.936 351.016C327.698 350.652 327.579 350.211 327.579 349.691C327.579 349.352 327.643 349.041 327.772 348.76C327.905 348.475 328.09 348.227 328.329 348.016C328.571 347.805 328.856 347.643 329.184 347.529C329.516 347.412 329.881 347.354 330.28 347.354C330.803 347.354 331.27 347.455 331.68 347.658C332.09 347.857 332.413 348.133 332.647 348.484C332.885 348.836 333.004 349.238 333.004 349.691ZM331.915 349.668C331.915 349.352 331.846 349.072 331.709 348.83C331.573 348.584 331.381 348.393 331.135 348.256C330.889 348.119 330.604 348.051 330.28 348.051C329.948 348.051 329.661 348.119 329.418 348.256C329.18 348.393 328.995 348.584 328.862 348.83C328.729 349.072 328.663 349.352 328.663 349.668C328.663 349.996 328.727 350.277 328.856 350.512C328.989 350.742 329.176 350.92 329.418 351.045C329.665 351.166 329.956 351.227 330.292 351.227C330.627 351.227 330.917 351.166 331.159 351.045C331.401 350.92 331.586 350.742 331.715 350.512C331.848 350.277 331.915 349.996 331.915 349.668ZM332.805 345.689C332.805 346.104 332.696 346.477 332.477 346.809C332.258 347.141 331.959 347.402 331.581 347.594C331.202 347.785 330.772 347.881 330.292 347.881C329.803 347.881 329.368 347.785 328.985 347.594C328.606 347.402 328.309 347.141 328.094 346.809C327.879 346.477 327.772 346.104 327.772 345.689C327.772 345.193 327.879 344.771 328.094 344.424C328.313 344.076 328.612 343.811 328.991 343.627C329.37 343.443 329.801 343.352 330.286 343.352C330.774 343.352 331.208 343.443 331.586 343.627C331.965 343.811 332.262 344.076 332.477 344.424C332.696 344.771 332.805 345.193 332.805 345.689ZM331.721 345.707C331.721 345.422 331.661 345.17 331.54 344.951C331.418 344.732 331.25 344.561 331.036 344.436C330.821 344.307 330.571 344.242 330.286 344.242C330 344.242 329.75 344.303 329.536 344.424C329.325 344.541 329.159 344.709 329.038 344.928C328.92 345.146 328.862 345.406 328.862 345.707C328.862 346 328.92 346.256 329.038 346.475C329.159 346.693 329.327 346.863 329.542 346.984C329.756 347.105 330.006 347.166 330.292 347.166C330.577 347.166 330.825 347.105 331.036 346.984C331.25 346.863 331.418 346.693 331.54 346.475C331.661 346.256 331.721 346 331.721 345.707ZM339.731 347.055V348.355C339.731 349.055 339.668 349.645 339.543 350.125C339.418 350.605 339.239 350.992 339.004 351.285C338.77 351.578 338.487 351.791 338.155 351.924C337.827 352.053 337.456 352.117 337.042 352.117C336.713 352.117 336.411 352.076 336.133 351.994C335.856 351.912 335.606 351.781 335.383 351.602C335.165 351.418 334.977 351.18 334.821 350.887C334.665 350.594 334.545 350.238 334.463 349.82C334.381 349.402 334.34 348.914 334.34 348.355V347.055C334.34 346.355 334.403 345.77 334.528 345.297C334.657 344.824 334.838 344.445 335.073 344.16C335.307 343.871 335.588 343.664 335.917 343.539C336.249 343.414 336.62 343.352 337.03 343.352C337.362 343.352 337.667 343.393 337.944 343.475C338.225 343.553 338.475 343.68 338.694 343.855C338.913 344.027 339.098 344.258 339.25 344.547C339.407 344.832 339.526 345.182 339.608 345.596C339.69 346.01 339.731 346.496 339.731 347.055ZM338.641 348.531V346.873C338.641 346.49 338.618 346.154 338.571 345.865C338.528 345.572 338.463 345.322 338.377 345.115C338.292 344.908 338.182 344.74 338.049 344.611C337.92 344.482 337.77 344.389 337.598 344.33C337.43 344.268 337.241 344.236 337.03 344.236C336.772 344.236 336.543 344.285 336.344 344.383C336.145 344.477 335.977 344.627 335.84 344.834C335.708 345.041 335.606 345.312 335.536 345.648C335.465 345.984 335.43 346.393 335.43 346.873V348.531C335.43 348.914 335.452 349.252 335.495 349.545C335.542 349.838 335.61 350.092 335.7 350.307C335.79 350.518 335.899 350.691 336.028 350.828C336.157 350.965 336.305 351.066 336.473 351.133C336.645 351.195 336.834 351.227 337.042 351.227C337.307 351.227 337.54 351.176 337.739 351.074C337.938 350.973 338.104 350.814 338.237 350.6C338.374 350.381 338.475 350.102 338.542 349.762C338.608 349.418 338.641 349.008 338.641 348.531Z" fill="black" fill-opacity="0.87"/>
<line x1="403.333" y1="338" x2="403.333" y2="332" stroke="black" stroke-opacity="0.87"/>
<path d="M398.871 351.092H398.982C399.607 351.092 400.115 351.004 400.505 350.828C400.896 350.652 401.197 350.416 401.408 350.119C401.619 349.822 401.763 349.488 401.841 349.117C401.919 348.742 401.958 348.357 401.958 347.963V346.656C401.958 346.27 401.914 345.926 401.824 345.625C401.738 345.324 401.617 345.072 401.46 344.869C401.308 344.666 401.134 344.512 400.939 344.406C400.744 344.301 400.537 344.248 400.318 344.248C400.068 344.248 399.843 344.299 399.644 344.4C399.449 344.498 399.283 344.637 399.146 344.816C399.013 344.996 398.912 345.207 398.841 345.449C398.771 345.691 398.736 345.955 398.736 346.24C398.736 346.494 398.767 346.74 398.83 346.979C398.892 347.217 398.988 347.432 399.117 347.623C399.246 347.814 399.406 347.967 399.597 348.08C399.792 348.189 400.021 348.244 400.283 348.244C400.525 348.244 400.751 348.197 400.962 348.104C401.177 348.006 401.367 347.875 401.531 347.711C401.699 347.543 401.832 347.354 401.929 347.143C402.031 346.932 402.089 346.711 402.105 346.48H402.621C402.621 346.805 402.556 347.125 402.427 347.441C402.302 347.754 402.126 348.039 401.9 348.297C401.673 348.555 401.408 348.762 401.103 348.918C400.798 349.07 400.466 349.146 400.107 349.146C399.685 349.146 399.32 349.064 399.011 348.9C398.703 348.736 398.449 348.518 398.25 348.244C398.054 347.971 397.908 347.666 397.81 347.33C397.716 346.99 397.669 346.646 397.669 346.299C397.669 345.893 397.726 345.512 397.839 345.156C397.953 344.801 398.121 344.488 398.343 344.219C398.566 343.945 398.841 343.732 399.169 343.58C399.501 343.428 399.884 343.352 400.318 343.352C400.806 343.352 401.222 343.449 401.566 343.645C401.91 343.84 402.189 344.102 402.404 344.43C402.623 344.758 402.783 345.127 402.884 345.537C402.986 345.947 403.037 346.369 403.037 346.803V347.195C403.037 347.637 403.007 348.086 402.949 348.543C402.894 348.996 402.787 349.43 402.626 349.844C402.47 350.258 402.242 350.629 401.941 350.957C401.64 351.281 401.248 351.539 400.763 351.73C400.283 351.918 399.689 352.012 398.982 352.012H398.871V351.092ZM409.898 347.055V348.355C409.898 349.055 409.835 349.645 409.71 350.125C409.585 350.605 409.406 350.992 409.171 351.285C408.937 351.578 408.654 351.791 408.322 351.924C407.994 352.053 407.623 352.117 407.208 352.117C406.88 352.117 406.578 352.076 406.3 351.994C406.023 351.912 405.773 351.781 405.55 351.602C405.332 351.418 405.144 351.18 404.988 350.887C404.832 350.594 404.712 350.238 404.63 349.82C404.548 349.402 404.507 348.914 404.507 348.355V347.055C404.507 346.355 404.57 345.77 404.695 345.297C404.824 344.824 405.005 344.445 405.24 344.16C405.474 343.871 405.755 343.664 406.083 343.539C406.416 343.414 406.787 343.352 407.197 343.352C407.529 343.352 407.833 343.393 408.111 343.475C408.392 343.553 408.642 343.68 408.861 343.855C409.08 344.027 409.265 344.258 409.417 344.547C409.574 344.832 409.693 345.182 409.775 345.596C409.857 346.01 409.898 346.496 409.898 347.055ZM408.808 348.531V346.873C408.808 346.49 408.785 346.154 408.738 345.865C408.695 345.572 408.63 345.322 408.544 345.115C408.458 344.908 408.349 344.74 408.216 344.611C408.087 344.482 407.937 344.389 407.765 344.33C407.597 344.268 407.408 344.236 407.197 344.236C406.939 344.236 406.71 344.285 406.511 344.383C406.312 344.477 406.144 344.627 406.007 344.834C405.875 345.041 405.773 345.312 405.703 345.648C405.632 345.984 405.597 346.393 405.597 346.873V348.531C405.597 348.914 405.619 349.252 405.662 349.545C405.708 349.838 405.777 350.092 405.867 350.307C405.957 350.518 406.066 350.691 406.195 350.828C406.324 350.965 406.472 351.066 406.64 351.133C406.812 351.195 407.001 351.227 407.208 351.227C407.474 351.227 407.707 351.176 407.906 351.074C408.105 350.973 408.271 350.814 408.404 350.6C408.541 350.381 408.642 350.102 408.708 349.762C408.775 349.418 408.808 349.008 408.808 348.531Z" fill="black" fill-opacity="0.87"/>
<path d="M470.174 351.109V352H464.59V351.221L467.385 348.109C467.729 347.727 467.994 347.402 468.182 347.137C468.373 346.867 468.506 346.627 468.58 346.416C468.658 346.201 468.697 345.982 468.697 345.76C468.697 345.479 468.639 345.225 468.521 344.998C468.408 344.768 468.24 344.584 468.018 344.447C467.795 344.311 467.525 344.242 467.209 344.242C466.83 344.242 466.514 344.316 466.26 344.465C466.01 344.609 465.822 344.812 465.697 345.074C465.572 345.336 465.51 345.637 465.51 345.977H464.426C464.426 345.496 464.531 345.057 464.742 344.658C464.953 344.26 465.266 343.943 465.68 343.709C466.094 343.471 466.604 343.352 467.209 343.352C467.748 343.352 468.209 343.447 468.592 343.639C468.975 343.826 469.268 344.092 469.471 344.436C469.678 344.775 469.781 345.174 469.781 345.631C469.781 345.881 469.738 346.135 469.652 346.393C469.57 346.646 469.455 346.9 469.307 347.154C469.162 347.408 468.992 347.658 468.797 347.904C468.605 348.15 468.4 348.393 468.182 348.631L465.896 351.109H470.174ZM476.689 347.055V348.355C476.689 349.055 476.627 349.645 476.502 350.125C476.377 350.605 476.197 350.992 475.963 351.285C475.729 351.578 475.445 351.791 475.113 351.924C474.785 352.053 474.414 352.117 474 352.117C473.672 352.117 473.369 352.076 473.092 351.994C472.814 351.912 472.564 351.781 472.342 351.602C472.123 351.418 471.936 351.18 471.779 350.887C471.623 350.594 471.504 350.238 471.422 349.82C471.34 349.402 471.299 348.914 471.299 348.355V347.055C471.299 346.355 471.361 345.77 471.486 345.297C471.615 344.824 471.797 344.445 472.031 344.16C472.266 343.871 472.547 343.664 472.875 343.539C473.207 343.414 473.578 343.352 473.988 343.352C474.32 343.352 474.625 343.393 474.902 343.475C475.184 343.553 475.434 343.68 475.652 343.855C475.871 344.027 476.057 344.258 476.209 344.547C476.365 344.832 476.484 345.182 476.566 345.596C476.648 346.01 476.689 346.496 476.689 347.055ZM475.6 348.531V346.873C475.6 346.49 475.576 346.154 475.529 345.865C475.486 345.572 475.422 345.322 475.336 345.115C475.25 344.908 475.141 344.74 475.008 344.611C474.879 344.482 474.729 344.389 474.557 344.33C474.389 344.268 474.199 344.236 473.988 344.236C473.73 344.236 473.502 344.285 473.303 344.383C473.104 344.477 472.936 344.627 472.799 344.834C472.666 345.041 472.564 345.312 472.494 345.648C472.424 345.984 472.389 346.393 472.389 346.873V348.531C472.389 348.914 472.41 349.252 472.453 349.545C472.5 349.838 472.568 350.092 472.658 350.307C472.748 350.518 472.857 350.691 472.986 350.828C473.115 350.965 473.264 351.066 473.432 351.133C473.604 351.195 473.793 351.227 474 351.227C474.266 351.227 474.498 351.176 474.697 351.074C474.896 350.973 475.062 350.814 475.195 350.6C475.332 350.381 475.434 350.102 475.5 349.762C475.566 349.418 475.6 349.008 475.6 348.531ZM483.439 347.055V348.355C483.439 349.055 483.377 349.645 483.252 350.125C483.127 350.605 482.947 350.992 482.713 351.285C482.479 351.578 482.195 351.791 481.863 351.924C481.535 352.053 481.164 352.117 480.75 352.117C480.422 352.117 480.119 352.076 479.842 351.994C479.564 351.912 479.314 351.781 479.092 351.602C478.873 351.418 478.686 351.18 478.529 350.887C478.373 350.594 478.254 350.238 478.172 349.82C478.09 349.402 478.049 348.914 478.049 348.355V347.055C478.049 346.355 478.111 345.77 478.236 345.297C478.365 344.824 478.547 344.445 478.781 344.16C479.016 343.871 479.297 343.664 479.625 343.539C479.957 343.414 480.328 343.352 480.738 343.352C481.07 343.352 481.375 343.393 481.652 343.475C481.934 343.553 482.184 343.68 482.402 343.855C482.621 344.027 482.807 344.258 482.959 344.547C483.115 344.832 483.234 345.182 483.316 345.596C483.398 346.01 483.439 346.496 483.439 347.055ZM482.35 348.531V346.873C482.35 346.49 482.326 346.154 482.279 345.865C482.236 345.572 482.172 345.322 482.086 345.115C482 344.908 481.891 344.74 481.758 344.611C481.629 344.482 481.479 344.389 481.307 344.33C481.139 344.268 480.949 344.236 480.738 344.236C480.48 344.236 480.252 344.285 480.053 344.383C479.854 344.477 479.686 344.627 479.549 344.834C479.416 345.041 479.314 345.312 479.244 345.648C479.174 345.984 479.139 346.393 479.139 346.873V348.531C479.139 348.914 479.16 349.252 479.203 349.545C479.25 349.838 479.318 350.092 479.408 350.307C479.498 350.518 479.607 350.691 479.736 350.828C479.865 350.965 480.014 351.066 480.182 351.133C480.354 351.195 480.543 351.227 480.75 351.227C481.016 351.227 481.248 351.176 481.447 351.074C481.646 350.973 481.812 350.814 481.945 350.6C482.082 350.381 482.184 350.102 482.25 349.762C482.316 349.418 482.35 349.008 482.35 348.531Z" fill="black" fill-opacity="0.87"/>
<rect x="524" y="161" width="20" height="20" fill="#4FD1C5"/>
<path d="M557.317 173.125C557.317 172.859 557.276 172.625 557.192 172.422C557.114 172.214 556.973 172.026 556.77 171.859C556.572 171.693 556.296 171.534 555.942 171.383C555.593 171.232 555.151 171.078 554.614 170.922C554.052 170.755 553.544 170.57 553.091 170.367C552.638 170.159 552.249 169.922 551.927 169.656C551.604 169.391 551.356 169.086 551.184 168.742C551.013 168.398 550.927 168.005 550.927 167.562C550.927 167.12 551.018 166.711 551.2 166.336C551.382 165.961 551.643 165.635 551.981 165.359C552.325 165.078 552.734 164.859 553.208 164.703C553.682 164.547 554.21 164.469 554.794 164.469C555.648 164.469 556.372 164.633 556.966 164.961C557.565 165.284 558.02 165.708 558.333 166.234C558.645 166.755 558.802 167.312 558.802 167.906H557.302C557.302 167.479 557.21 167.102 557.028 166.773C556.846 166.44 556.57 166.18 556.2 165.992C555.83 165.799 555.361 165.703 554.794 165.703C554.257 165.703 553.815 165.784 553.466 165.945C553.117 166.107 552.856 166.326 552.684 166.602C552.518 166.878 552.434 167.193 552.434 167.547C552.434 167.786 552.484 168.005 552.583 168.203C552.687 168.396 552.846 168.576 553.059 168.742C553.278 168.909 553.554 169.062 553.888 169.203C554.226 169.344 554.63 169.479 555.098 169.609C555.744 169.792 556.302 169.995 556.77 170.219C557.239 170.443 557.624 170.695 557.927 170.977C558.234 171.253 558.46 171.568 558.606 171.922C558.757 172.271 558.833 172.667 558.833 173.109C558.833 173.573 558.739 173.992 558.552 174.367C558.364 174.742 558.096 175.062 557.747 175.328C557.398 175.594 556.979 175.799 556.489 175.945C556.005 176.086 555.463 176.156 554.864 176.156C554.338 176.156 553.82 176.083 553.309 175.938C552.804 175.792 552.343 175.573 551.927 175.281C551.515 174.99 551.184 174.63 550.934 174.203C550.69 173.771 550.567 173.271 550.567 172.703H552.067C552.067 173.094 552.143 173.43 552.294 173.711C552.445 173.987 552.651 174.216 552.911 174.398C553.177 174.581 553.476 174.716 553.809 174.805C554.148 174.888 554.499 174.93 554.864 174.93C555.39 174.93 555.835 174.857 556.2 174.711C556.565 174.565 556.841 174.357 557.028 174.086C557.221 173.815 557.317 173.495 557.317 173.125ZM564.194 176.156C563.605 176.156 563.071 176.057 562.592 175.859C562.118 175.656 561.709 175.372 561.366 175.008C561.027 174.643 560.767 174.211 560.584 173.711C560.402 173.211 560.311 172.664 560.311 172.07V171.742C560.311 171.055 560.413 170.443 560.616 169.906C560.819 169.365 561.095 168.906 561.444 168.531C561.793 168.156 562.189 167.872 562.631 167.68C563.074 167.487 563.532 167.391 564.006 167.391C564.61 167.391 565.131 167.495 565.569 167.703C566.011 167.911 566.373 168.203 566.655 168.578C566.936 168.948 567.144 169.385 567.28 169.891C567.415 170.391 567.483 170.938 567.483 171.531V172.18H561.17V171H566.038V170.891C566.017 170.516 565.939 170.151 565.803 169.797C565.673 169.443 565.465 169.151 565.178 168.922C564.892 168.693 564.501 168.578 564.006 168.578C563.678 168.578 563.376 168.648 563.1 168.789C562.824 168.924 562.587 169.128 562.389 169.398C562.191 169.669 562.038 170 561.928 170.391C561.819 170.781 561.764 171.232 561.764 171.742V172.07C561.764 172.471 561.819 172.849 561.928 173.203C562.043 173.552 562.207 173.859 562.42 174.125C562.639 174.391 562.902 174.599 563.209 174.75C563.522 174.901 563.876 174.977 564.272 174.977C564.782 174.977 565.215 174.872 565.569 174.664C565.923 174.456 566.233 174.177 566.498 173.828L567.373 174.523C567.191 174.799 566.959 175.062 566.678 175.312C566.397 175.562 566.051 175.766 565.639 175.922C565.233 176.078 564.751 176.156 564.194 176.156ZM570.766 168.875V176H569.32V167.547H570.727L570.766 168.875ZM573.406 167.5L573.398 168.844C573.279 168.818 573.164 168.802 573.055 168.797C572.951 168.786 572.831 168.781 572.695 168.781C572.362 168.781 572.068 168.833 571.812 168.938C571.557 169.042 571.341 169.188 571.164 169.375C570.987 169.562 570.846 169.786 570.742 170.047C570.643 170.302 570.578 170.583 570.547 170.891L570.141 171.125C570.141 170.615 570.19 170.135 570.289 169.688C570.393 169.24 570.552 168.844 570.766 168.5C570.979 168.151 571.25 167.88 571.578 167.688C571.911 167.49 572.307 167.391 572.766 167.391C572.87 167.391 572.99 167.404 573.125 167.43C573.26 167.451 573.354 167.474 573.406 167.5ZM576.463 167.547V176H575.009V167.547H576.463ZM574.9 165.305C574.9 165.07 574.97 164.872 575.111 164.711C575.257 164.549 575.47 164.469 575.752 164.469C576.028 164.469 576.239 164.549 576.384 164.711C576.535 164.872 576.611 165.07 576.611 165.305C576.611 165.529 576.535 165.721 576.384 165.883C576.239 166.039 576.028 166.117 575.752 166.117C575.47 166.117 575.257 166.039 575.111 165.883C574.97 165.721 574.9 165.529 574.9 165.305ZM582.441 176.156C581.852 176.156 581.318 176.057 580.839 175.859C580.365 175.656 579.956 175.372 579.613 175.008C579.274 174.643 579.014 174.211 578.831 173.711C578.649 173.211 578.558 172.664 578.558 172.07V171.742C578.558 171.055 578.659 170.443 578.863 169.906C579.066 169.365 579.342 168.906 579.691 168.531C580.04 168.156 580.435 167.872 580.878 167.68C581.321 167.487 581.779 167.391 582.253 167.391C582.857 167.391 583.378 167.495 583.816 167.703C584.258 167.911 584.62 168.203 584.902 168.578C585.183 168.948 585.391 169.385 585.527 169.891C585.662 170.391 585.73 170.938 585.73 171.531V172.18H579.417V171H584.284V170.891C584.264 170.516 584.185 170.151 584.05 169.797C583.92 169.443 583.711 169.151 583.425 168.922C583.139 168.693 582.748 168.578 582.253 168.578C581.925 168.578 581.623 168.648 581.347 168.789C581.071 168.924 580.834 169.128 580.636 169.398C580.438 169.669 580.284 170 580.175 170.391C580.066 170.781 580.011 171.232 580.011 171.742V172.07C580.011 172.471 580.066 172.849 580.175 173.203C580.29 173.552 580.454 173.859 580.667 174.125C580.886 174.391 581.149 174.599 581.456 174.75C581.769 174.901 582.123 174.977 582.519 174.977C583.029 174.977 583.461 174.872 583.816 174.664C584.17 174.456 584.48 174.177 584.745 173.828L585.62 174.523C585.438 174.799 585.206 175.062 584.925 175.312C584.644 175.562 584.297 175.766 583.886 175.922C583.48 176.078 582.998 176.156 582.441 176.156ZM592.489 173.758C592.489 173.549 592.442 173.357 592.348 173.18C592.26 172.997 592.075 172.833 591.794 172.688C591.518 172.536 591.101 172.406 590.544 172.297C590.075 172.198 589.651 172.081 589.27 171.945C588.895 171.81 588.575 171.646 588.309 171.453C588.049 171.26 587.848 171.034 587.708 170.773C587.567 170.513 587.497 170.208 587.497 169.859C587.497 169.526 587.57 169.211 587.716 168.914C587.867 168.617 588.078 168.354 588.348 168.125C588.624 167.896 588.955 167.716 589.341 167.586C589.726 167.456 590.156 167.391 590.63 167.391C591.307 167.391 591.885 167.51 592.364 167.75C592.843 167.99 593.21 168.31 593.466 168.711C593.721 169.107 593.848 169.547 593.848 170.031H592.403C592.403 169.797 592.333 169.57 592.192 169.352C592.057 169.128 591.856 168.943 591.591 168.797C591.33 168.651 591.01 168.578 590.63 168.578C590.229 168.578 589.903 168.641 589.653 168.766C589.408 168.885 589.229 169.039 589.114 169.227C589.005 169.414 588.95 169.612 588.95 169.82C588.95 169.977 588.976 170.117 589.028 170.242C589.085 170.362 589.184 170.474 589.325 170.578C589.466 170.677 589.664 170.771 589.919 170.859C590.174 170.948 590.499 171.036 590.895 171.125C591.588 171.281 592.158 171.469 592.606 171.688C593.054 171.906 593.388 172.174 593.606 172.492C593.825 172.81 593.934 173.195 593.934 173.648C593.934 174.018 593.856 174.357 593.7 174.664C593.549 174.971 593.328 175.237 593.036 175.461C592.749 175.68 592.406 175.852 592.005 175.977C591.609 176.096 591.164 176.156 590.669 176.156C589.924 176.156 589.294 176.023 588.778 175.758C588.263 175.492 587.872 175.148 587.606 174.727C587.341 174.305 587.208 173.859 587.208 173.391H588.661C588.682 173.786 588.796 174.102 589.005 174.336C589.213 174.565 589.468 174.729 589.77 174.828C590.072 174.922 590.372 174.969 590.669 174.969C591.065 174.969 591.395 174.917 591.661 174.812C591.932 174.708 592.138 174.565 592.278 174.383C592.419 174.201 592.489 173.992 592.489 173.758ZM604.695 164.562V176H603.25V166.367L600.336 167.43V166.125L604.469 164.562H604.695Z" fill="black" fill-opacity="0.87"/>
<rect x="524" y="209" width="20" height="20" fill="#EF5350"/>
<path d="M557.317 221.125C557.317 220.859 557.276 220.625 557.192 220.422C557.114 220.214 556.973 220.026 556.77 219.859C556.572 219.693 556.296 219.534 555.942 219.383C555.593 219.232 555.151 219.078 554.614 218.922C554.052 218.755 553.544 218.57 553.091 218.367C552.638 218.159 552.249 217.922 551.927 217.656C551.604 217.391 551.356 217.086 551.184 216.742C551.013 216.398 550.927 216.005 550.927 215.562C550.927 215.12 551.018 214.711 551.2 214.336C551.382 213.961 551.643 213.635 551.981 213.359C552.325 213.078 552.734 212.859 553.208 212.703C553.682 212.547 554.21 212.469 554.794 212.469C555.648 212.469 556.372 212.633 556.966 212.961C557.565 213.284 558.02 213.708 558.333 214.234C558.645 214.755 558.802 215.312 558.802 215.906H557.302C557.302 215.479 557.21 215.102 557.028 214.773C556.846 214.44 556.57 214.18 556.2 213.992C555.83 213.799 555.361 213.703 554.794 213.703C554.257 213.703 553.815 213.784 553.466 213.945C553.117 214.107 552.856 214.326 552.684 214.602C552.518 214.878 552.434 215.193 552.434 215.547C552.434 215.786 552.484 216.005 552.583 216.203C552.687 216.396 552.846 216.576 553.059 216.742C553.278 216.909 553.554 217.062 553.888 217.203C554.226 217.344 554.63 217.479 555.098 217.609C555.744 217.792 556.302 217.995 556.77 218.219C557.239 218.443 557.624 218.695 557.927 218.977C558.234 219.253 558.46 219.568 558.606 219.922C558.757 220.271 558.833 220.667 558.833 221.109C558.833 221.573 558.739 221.992 558.552 222.367C558.364 222.742 558.096 223.062 557.747 223.328C557.398 223.594 556.979 223.799 556.489 223.945C556.005 224.086 555.463 224.156 554.864 224.156C554.338 224.156 553.82 224.083 553.309 223.938C552.804 223.792 552.343 223.573 551.927 223.281C551.515 222.99 551.184 222.63 550.934 222.203C550.69 221.771 550.567 221.271 550.567 220.703H552.067C552.067 221.094 552.143 221.43 552.294 221.711C552.445 221.987 552.651 222.216 552.911 222.398C553.177 222.581 553.476 222.716 553.809 222.805C554.148 222.888 554.499 222.93 554.864 222.93C555.39 222.93 555.835 222.857 556.2 222.711C556.565 222.565 556.841 222.357 557.028 222.086C557.221 221.815 557.317 221.495 557.317 221.125ZM564.194 224.156C563.605 224.156 563.071 224.057 562.592 223.859C562.118 223.656 561.709 223.372 561.366 223.008C561.027 222.643 560.767 222.211 560.584 221.711C560.402 221.211 560.311 220.664 560.311 220.07V219.742C560.311 219.055 560.413 218.443 560.616 217.906C560.819 217.365 561.095 216.906 561.444 216.531C561.793 216.156 562.189 215.872 562.631 215.68C563.074 215.487 563.532 215.391 564.006 215.391C564.61 215.391 565.131 215.495 565.569 215.703C566.011 215.911 566.373 216.203 566.655 216.578C566.936 216.948 567.144 217.385 567.28 217.891C567.415 218.391 567.483 218.938 567.483 219.531V220.18H561.17V219H566.038V218.891C566.017 218.516 565.939 218.151 565.803 217.797C565.673 217.443 565.465 217.151 565.178 216.922C564.892 216.693 564.501 216.578 564.006 216.578C563.678 216.578 563.376 216.648 563.1 216.789C562.824 216.924 562.587 217.128 562.389 217.398C562.191 217.669 562.038 218 561.928 218.391C561.819 218.781 561.764 219.232 561.764 219.742V220.07C561.764 220.471 561.819 220.849 561.928 221.203C562.043 221.552 562.207 221.859 562.42 222.125C562.639 222.391 562.902 222.599 563.209 222.75C563.522 222.901 563.876 222.977 564.272 222.977C564.782 222.977 565.215 222.872 565.569 222.664C565.923 222.456 566.233 222.177 566.498 221.828L567.373 222.523C567.191 222.799 566.959 223.062 566.678 223.312C566.397 223.562 566.051 223.766 565.639 223.922C565.233 224.078 564.751 224.156 564.194 224.156ZM570.766 216.875V224H569.32V215.547H570.727L570.766 216.875ZM573.406 215.5L573.398 216.844C573.279 216.818 573.164 216.802 573.055 216.797C572.951 216.786 572.831 216.781 572.695 216.781C572.362 216.781 572.068 216.833 571.812 216.938C571.557 217.042 571.341 217.188 571.164 217.375C570.987 217.562 570.846 217.786 570.742 218.047C570.643 218.302 570.578 218.583 570.547 218.891L570.141 219.125C570.141 218.615 570.19 218.135 570.289 217.688C570.393 217.24 570.552 216.844 570.766 216.5C570.979 216.151 571.25 215.88 571.578 215.688C571.911 215.49 572.307 215.391 572.766 215.391C572.87 215.391 572.99 215.404 573.125 215.43C573.26 215.451 573.354 215.474 573.406 215.5ZM576.463 215.547V224H575.009V215.547H576.463ZM574.9 213.305C574.9 213.07 574.97 212.872 575.111 212.711C575.257 212.549 575.47 212.469 575.752 212.469C576.028 212.469 576.239 212.549 576.384 212.711C576.535 212.872 576.611 213.07 576.611 213.305C576.611 213.529 576.535 213.721 576.384 213.883C576.239 214.039 576.028 214.117 575.752 214.117C575.47 214.117 575.257 214.039 575.111 213.883C574.97 213.721 574.9 213.529 574.9 213.305ZM582.441 224.156C581.852 224.156 581.318 224.057 580.839 223.859C580.365 223.656 579.956 223.372 579.613 223.008C579.274 222.643 579.014 222.211 578.831 221.711C578.649 221.211 578.558 220.664 578.558 220.07V219.742C578.558 219.055 578.659 218.443 578.863 217.906C579.066 217.365 579.342 216.906 579.691 216.531C580.04 216.156 580.435 215.872 580.878 215.68C581.321 215.487 581.779 215.391 582.253 215.391C582.857 215.391 583.378 215.495 583.816 215.703C584.258 215.911 584.62 216.203 584.902 216.578C585.183 216.948 585.391 217.385 585.527 217.891C585.662 218.391 585.73 218.938 585.73 219.531V220.18H579.417V219H584.284V218.891C584.264 218.516 584.185 218.151 584.05 217.797C583.92 217.443 583.711 217.151 583.425 216.922C583.139 216.693 582.748 216.578 582.253 216.578C581.925 216.578 581.623 216.648 581.347 216.789C581.071 216.924 580.834 217.128 580.636 217.398C580.438 217.669 580.284 218 580.175 218.391C580.066 218.781 580.011 219.232 580.011 219.742V220.07C580.011 220.471 580.066 220.849 580.175 221.203C580.29 221.552 580.454 221.859 580.667 222.125C580.886 222.391 581.149 222.599 581.456 222.75C581.769 222.901 582.123 222.977 582.519 222.977C583.029 222.977 583.461 222.872 583.816 222.664C584.17 222.456 584.48 222.177 584.745 221.828L585.62 222.523C585.438 222.799 585.206 223.062 584.925 223.312C584.644 223.562 584.297 223.766 583.886 223.922C583.48 224.078 582.998 224.156 582.441 224.156ZM592.489 221.758C592.489 221.549 592.442 221.357 592.348 221.18C592.26 220.997 592.075 220.833 591.794 220.688C591.518 220.536 591.101 220.406 590.544 220.297C590.075 220.198 589.651 220.081 589.27 219.945C588.895 219.81 588.575 219.646 588.309 219.453C588.049 219.26 587.848 219.034 587.708 218.773C587.567 218.513 587.497 218.208 587.497 217.859C587.497 217.526 587.57 217.211 587.716 216.914C587.867 216.617 588.078 216.354 588.348 216.125C588.624 215.896 588.955 215.716 589.341 215.586C589.726 215.456 590.156 215.391 590.63 215.391C591.307 215.391 591.885 215.51 592.364 215.75C592.843 215.99 593.21 216.31 593.466 216.711C593.721 217.107 593.848 217.547 593.848 218.031H592.403C592.403 217.797 592.333 217.57 592.192 217.352C592.057 217.128 591.856 216.943 591.591 216.797C591.33 216.651 591.01 216.578 590.63 216.578C590.229 216.578 589.903 216.641 589.653 216.766C589.408 216.885 589.229 217.039 589.114 217.227C589.005 217.414 588.95 217.612 588.95 217.82C588.95 217.977 588.976 218.117 589.028 218.242C589.085 218.362 589.184 218.474 589.325 218.578C589.466 218.677 589.664 218.771 589.919 218.859C590.174 218.948 590.499 219.036 590.895 219.125C591.588 219.281 592.158 219.469 592.606 219.688C593.054 219.906 593.388 220.174 593.606 220.492C593.825 220.81 593.934 221.195 593.934 221.648C593.934 222.018 593.856 222.357 593.7 222.664C593.549 222.971 593.328 223.237 593.036 223.461C592.749 223.68 592.406 223.852 592.005 223.977C591.609 224.096 591.164 224.156 590.669 224.156C589.924 224.156 589.294 224.023 588.778 223.758C588.263 223.492 587.872 223.148 587.606 222.727C587.341 222.305 587.208 221.859 587.208 221.391H588.661C588.682 221.786 588.796 222.102 589.005 222.336C589.213 222.565 589.468 222.729 589.77 222.828C590.072 222.922 590.372 222.969 590.669 222.969C591.065 222.969 591.395 222.917 591.661 222.812C591.932 222.708 592.138 222.565 592.278 222.383C592.419 222.201 592.489 221.992 592.489 221.758ZM607.398 222.812V224H599.953V222.961L603.68 218.812C604.138 218.302 604.492 217.87 604.742 217.516C604.997 217.156 605.174 216.836 605.273 216.555C605.378 216.268 605.43 215.977 605.43 215.68C605.43 215.305 605.352 214.966 605.195 214.664C605.044 214.357 604.82 214.112 604.523 213.93C604.227 213.747 603.867 213.656 603.445 213.656C602.94 213.656 602.518 213.755 602.18 213.953C601.846 214.146 601.596 214.417 601.43 214.766C601.263 215.115 601.18 215.516 601.18 215.969H599.734C599.734 215.328 599.875 214.742 600.156 214.211C600.438 213.68 600.854 213.258 601.406 212.945C601.958 212.628 602.638 212.469 603.445 212.469C604.164 212.469 604.779 212.596 605.289 212.852C605.799 213.102 606.19 213.456 606.461 213.914C606.737 214.367 606.875 214.898 606.875 215.508C606.875 215.841 606.818 216.18 606.703 216.523C606.594 216.862 606.44 217.201 606.242 217.539C606.049 217.878 605.823 218.211 605.562 218.539C605.307 218.867 605.034 219.19 604.742 219.508L601.695 222.812H607.398Z" fill="black" fill-opacity="0.87"/>
</svg>
