<svg width="500" height="295" viewBox="0 0 500 295" fill="none" xmlns="http://www.w3.org/2000/svg">
<path d="M22.0215 50.4219V59H20.9375V51.7754L18.752 52.5723V51.5938L21.8516 50.4219H22.0215ZM30.5645 54.0547V55.3555C30.5645 56.0547 30.502 56.6445 30.377 57.125C30.252 57.6055 30.0723 57.9922 29.8379 58.2852C29.6035 58.5781 29.3203 58.791 28.9883 58.9238C28.6602 59.0527 28.2891 59.1172 27.875 59.1172C27.5469 59.1172 27.2441 59.0762 26.9668 58.9941C26.6895 58.9121 26.4395 58.7812 26.2168 58.6016C25.998 58.418 25.8105 58.1797 25.6543 57.8867C25.498 57.5938 25.3789 57.2383 25.2969 56.8203C25.2148 56.4023 25.1738 55.9141 25.1738 55.3555V54.0547C25.1738 53.3555 25.2363 52.7695 25.3613 52.2969C25.4902 51.8242 25.6719 51.4453 25.9062 51.1602C26.1406 50.8711 26.4219 50.6641 26.75 50.5391C27.082 50.4141 27.4531 50.3516 27.8633 50.3516C28.1953 50.3516 28.5 50.3926 28.7773 50.4746C29.0586 50.5527 29.3086 50.6797 29.5273 50.8555C29.7461 51.0273 29.9316 51.2578 30.084 51.5469C30.2402 51.832 30.3594 52.1816 30.4414 52.5957C30.5234 53.0098 30.5645 53.4961 30.5645 54.0547ZM29.4746 55.5312V53.873C29.4746 53.4902 29.4512 53.1543 29.4043 52.8652C29.3613 52.5723 29.2969 52.3223 29.2109 52.1152C29.125 51.9082 29.0156 51.7402 28.8828 51.6113C28.7539 51.4824 28.6035 51.3887 28.4316 51.3301C28.2637 51.2676 28.0742 51.2363 27.8633 51.2363C27.6055 51.2363 27.377 51.2852 27.1777 51.3828C26.9785 51.4766 26.8105 51.627 26.6738 51.834C26.541 52.041 26.4395 52.3125 26.3691 52.6484C26.2988 52.9844 26.2637 53.3926 26.2637 53.873V55.5312C26.2637 55.9141 26.2852 56.252 26.3281 56.5449C26.375 56.8379 26.4434 57.0918 26.5332 57.3066C26.623 57.5176 26.7324 57.6914 26.8613 57.8281C26.9902 57.9648 27.1387 58.0664 27.3066 58.1328C27.4785 58.1953 27.668 58.2266 27.875 58.2266C28.1406 58.2266 28.373 58.1758 28.5723 58.0742C28.7715 57.9727 28.9375 57.8145 29.0703 57.5996C29.207 57.3809 29.3086 57.1016 29.375 56.7617C29.4414 56.418 29.4746 56.0078 29.4746 55.5312ZM37.3145 54.0547V55.3555C37.3145 56.0547 37.252 56.6445 37.127 57.125C37.002 57.6055 36.8223 57.9922 36.5879 58.2852C36.3535 58.5781 36.0703 58.791 35.7383 58.9238C35.4102 59.0527 35.0391 59.1172 34.625 59.1172C34.2969 59.1172 33.9941 59.0762 33.7168 58.9941C33.4395 58.9121 33.1895 58.7812 32.9668 58.6016C32.748 58.418 32.5605 58.1797 32.4043 57.8867C32.248 57.5938 32.1289 57.2383 32.0469 56.8203C31.9648 56.4023 31.9238 55.9141 31.9238 55.3555V54.0547C31.9238 53.3555 31.9863 52.7695 32.1113 52.2969C32.2402 51.8242 32.4219 51.4453 32.6562 51.1602C32.8906 50.8711 33.1719 50.6641 33.5 50.5391C33.832 50.4141 34.2031 50.3516 34.6133 50.3516C34.9453 50.3516 35.25 50.3926 35.5273 50.4746C35.8086 50.5527 36.0586 50.6797 36.2773 50.8555C36.4961 51.0273 36.6816 51.2578 36.834 51.5469C36.9902 51.832 37.1094 52.1816 37.1914 52.5957C37.2734 53.0098 37.3145 53.4961 37.3145 54.0547ZM36.2246 55.5312V53.873C36.2246 53.4902 36.2012 53.1543 36.1543 52.8652C36.1113 52.5723 36.0469 52.3223 35.9609 52.1152C35.875 51.9082 35.7656 51.7402 35.6328 51.6113C35.5039 51.4824 35.3535 51.3887 35.1816 51.3301C35.0137 51.2676 34.8242 51.2363 34.6133 51.2363C34.3555 51.2363 34.127 51.2852 33.9277 51.3828C33.7285 51.4766 33.5605 51.627 33.4238 51.834C33.291 52.041 33.1895 52.3125 33.1191 52.6484C33.0488 52.9844 33.0137 53.3926 33.0137 53.873V55.5312C33.0137 55.9141 33.0352 56.252 33.0781 56.5449C33.125 56.8379 33.1934 57.0918 33.2832 57.3066C33.373 57.5176 33.4824 57.6914 33.6113 57.8281C33.7402 57.9648 33.8887 58.0664 34.0566 58.1328C34.2285 58.1953 34.418 58.2266 34.625 58.2266C34.8906 58.2266 35.123 58.1758 35.3223 58.0742C35.5215 57.9727 35.6875 57.8145 35.8203 57.5996C35.957 57.3809 36.0586 57.1016 36.125 56.7617C36.1914 56.418 36.2246 56.0078 36.2246 55.5312Z" fill="black" fill-opacity="0.87"/>
<line x1="46" y1="54.5" x2="52" y2="54.5" stroke="black" stroke-opacity="0.87"/>
<path d="M26.2871 93.2585H26.3984C27.0234 93.2585 27.5312 93.1706 27.9219 92.9948C28.3125 92.819 28.6133 92.5827 28.8242 92.2858C29.0352 91.989 29.1797 91.655 29.2578 91.2839C29.3359 90.9089 29.375 90.5241 29.375 90.1296V88.8229C29.375 88.4362 29.3301 88.0925 29.2402 87.7917C29.1543 87.4909 29.0332 87.239 28.877 87.0358C28.7246 86.8327 28.5508 86.6784 28.3555 86.5729C28.1602 86.4675 27.9531 86.4147 27.7344 86.4147C27.4844 86.4147 27.2598 86.4655 27.0605 86.5671C26.8652 86.6647 26.6992 86.8034 26.5625 86.9831C26.4297 87.1628 26.3281 87.3737 26.2578 87.6159C26.1875 87.8581 26.1523 88.1218 26.1523 88.4069C26.1523 88.6608 26.1836 88.9069 26.2461 89.1452C26.3086 89.3835 26.4043 89.5983 26.5332 89.7897C26.6621 89.9811 26.8223 90.1335 27.0137 90.2468C27.209 90.3561 27.4375 90.4108 27.6992 90.4108C27.9414 90.4108 28.168 90.364 28.3789 90.2702C28.5938 90.1725 28.7832 90.0417 28.9473 89.8776C29.1152 89.7097 29.248 89.5202 29.3457 89.3093C29.4473 89.0983 29.5059 88.8776 29.5215 88.6472H30.0371C30.0371 88.9714 29.9727 89.2917 29.8438 89.6081C29.7188 89.9206 29.543 90.2057 29.3164 90.4636C29.0898 90.7214 28.8242 90.9284 28.5195 91.0847C28.2148 91.237 27.8828 91.3132 27.5234 91.3132C27.1016 91.3132 26.7363 91.2311 26.4277 91.0671C26.1191 90.903 25.8652 90.6843 25.666 90.4108C25.4707 90.1374 25.3242 89.8327 25.2266 89.4968C25.1328 89.1569 25.0859 88.8132 25.0859 88.4655C25.0859 88.0593 25.1426 87.6784 25.2559 87.3229C25.3691 86.9675 25.5371 86.655 25.7598 86.3854C25.9824 86.112 26.2578 85.8991 26.5859 85.7468C26.918 85.5944 27.3008 85.5182 27.7344 85.5182C28.2227 85.5182 28.6387 85.6159 28.9824 85.8112C29.3262 86.0065 29.6055 86.2682 29.8203 86.5964C30.0391 86.9245 30.1992 87.2936 30.3008 87.7038C30.4023 88.114 30.4531 88.5358 30.4531 88.9694V89.362C30.4531 89.8034 30.4238 90.2526 30.3652 90.7097C30.3105 91.1628 30.2031 91.5964 30.043 92.0104C29.8867 92.4245 29.6582 92.7956 29.3574 93.1237C29.0566 93.4479 28.6641 93.7057 28.1797 93.8972C27.6992 94.0847 27.1055 94.1784 26.3984 94.1784H26.2871V93.2585ZM37.3145 89.2214V90.5222C37.3145 91.2214 37.252 91.8112 37.127 92.2917C37.002 92.7722 36.8223 93.1589 36.5879 93.4518C36.3535 93.7448 36.0703 93.9577 35.7383 94.0905C35.4102 94.2194 35.0391 94.2839 34.625 94.2839C34.2969 94.2839 33.9941 94.2429 33.7168 94.1608C33.4395 94.0788 33.1895 93.9479 32.9668 93.7682C32.748 93.5847 32.5605 93.3464 32.4043 93.0534C32.248 92.7604 32.1289 92.405 32.0469 91.987C31.9648 91.569 31.9238 91.0807 31.9238 90.5222V89.2214C31.9238 88.5222 31.9863 87.9362 32.1113 87.4636C32.2402 86.9909 32.4219 86.612 32.6562 86.3268C32.8906 86.0378 33.1719 85.8307 33.5 85.7057C33.832 85.5807 34.2031 85.5182 34.6133 85.5182C34.9453 85.5182 35.25 85.5593 35.5273 85.6413C35.8086 85.7194 36.0586 85.8464 36.2773 86.0222C36.4961 86.194 36.6816 86.4245 36.834 86.7136C36.9902 86.9987 37.1094 87.3483 37.1914 87.7624C37.2734 88.1765 37.3145 88.6628 37.3145 89.2214ZM36.2246 90.6979V89.0397C36.2246 88.6569 36.2012 88.321 36.1543 88.0319C36.1113 87.739 36.0469 87.489 35.9609 87.2819C35.875 87.0749 35.7656 86.9069 35.6328 86.778C35.5039 86.6491 35.3535 86.5554 35.1816 86.4968C35.0137 86.4343 34.8242 86.403 34.6133 86.403C34.3555 86.403 34.127 86.4518 33.9277 86.5495C33.7285 86.6432 33.5605 86.7936 33.4238 87.0007C33.291 87.2077 33.1895 87.4792 33.1191 87.8151C33.0488 88.1511 33.0137 88.5593 33.0137 89.0397V90.6979C33.0137 91.0807 33.0352 91.4186 33.0781 91.7116C33.125 92.0046 33.1934 92.2585 33.2832 92.4733C33.373 92.6843 33.4824 92.8581 33.6113 92.9948C33.7402 93.1315 33.8887 93.2331 34.0566 93.2995C34.2285 93.362 34.418 93.3932 34.625 93.3932C34.8906 93.3932 35.123 93.3425 35.3223 93.2409C35.5215 93.1393 35.6875 92.9811 35.8203 92.7663C35.957 92.5475 36.0586 92.2682 36.125 91.9284C36.1914 91.5847 36.2246 91.1745 36.2246 90.6979Z" fill="black" fill-opacity="0.87"/>
<line x1="46" y1="89.6667" x2="52" y2="89.6667" stroke="black" stroke-opacity="0.87"/>
<path d="M30.5879 127.025C30.5879 127.544 30.4668 127.986 30.2246 128.349C29.9863 128.708 29.6621 128.982 29.252 129.169C28.8457 129.357 28.3867 129.451 27.875 129.451C27.3633 129.451 26.9023 129.357 26.4922 129.169C26.082 128.982 25.7578 128.708 25.5195 128.349C25.2812 127.986 25.1621 127.544 25.1621 127.025C25.1621 126.685 25.2266 126.374 25.3555 126.093C25.4883 125.808 25.6738 125.56 25.9121 125.349C26.1543 125.138 26.4395 124.976 26.7676 124.863C27.0996 124.745 27.4648 124.687 27.8633 124.687C28.3867 124.687 28.8535 124.788 29.2637 124.992C29.6738 125.191 29.9961 125.466 30.2305 125.818C30.4688 126.169 30.5879 126.572 30.5879 127.025ZM29.498 127.001C29.498 126.685 29.4297 126.406 29.293 126.163C29.1562 125.917 28.9648 125.726 28.7188 125.589C28.4727 125.452 28.1875 125.384 27.8633 125.384C27.5312 125.384 27.2441 125.452 27.002 125.589C26.7637 125.726 26.5781 125.917 26.4453 126.163C26.3125 126.406 26.2461 126.685 26.2461 127.001C26.2461 127.329 26.3105 127.611 26.4395 127.845C26.5723 128.076 26.7598 128.253 27.002 128.378C27.248 128.499 27.5391 128.56 27.875 128.56C28.2109 128.56 28.5 128.499 28.7422 128.378C28.9844 128.253 29.1699 128.076 29.2988 127.845C29.4316 127.611 29.498 127.329 29.498 127.001ZM30.3887 123.023C30.3887 123.437 30.2793 123.81 30.0605 124.142C29.8418 124.474 29.543 124.736 29.1641 124.927C28.7852 125.118 28.3555 125.214 27.875 125.214C27.3867 125.214 26.9512 125.118 26.5684 124.927C26.1895 124.736 25.8926 124.474 25.6777 124.142C25.4629 123.81 25.3555 123.437 25.3555 123.023C25.3555 122.527 25.4629 122.105 25.6777 121.757C25.8965 121.409 26.1953 121.144 26.5742 120.96C26.9531 120.777 27.3848 120.685 27.8691 120.685C28.3574 120.685 28.791 120.777 29.1699 120.96C29.5488 121.144 29.8457 121.409 30.0605 121.757C30.2793 122.105 30.3887 122.527 30.3887 123.023ZM29.3047 123.04C29.3047 122.755 29.2441 122.503 29.123 122.284C29.002 122.066 28.834 121.894 28.6191 121.769C28.4043 121.64 28.1543 121.576 27.8691 121.576C27.584 121.576 27.334 121.636 27.1191 121.757C26.9082 121.874 26.7422 122.042 26.6211 122.261C26.5039 122.48 26.4453 122.74 26.4453 123.04C26.4453 123.333 26.5039 123.589 26.6211 123.808C26.7422 124.027 26.9102 124.197 27.125 124.318C27.3398 124.439 27.5898 124.499 27.875 124.499C28.1602 124.499 28.4082 124.439 28.6191 124.318C28.834 124.197 29.002 124.027 29.123 123.808C29.2441 123.589 29.3047 123.333 29.3047 123.04ZM37.3145 124.388V125.689C37.3145 126.388 37.252 126.978 37.127 127.458C37.002 127.939 36.8223 128.326 36.5879 128.618C36.3535 128.911 36.0703 129.124 35.7383 129.257C35.4102 129.386 35.0391 129.451 34.625 129.451C34.2969 129.451 33.9941 129.409 33.7168 129.327C33.4395 129.245 33.1895 129.115 32.9668 128.935C32.748 128.751 32.5605 128.513 32.4043 128.22C32.248 127.927 32.1289 127.572 32.0469 127.154C31.9648 126.736 31.9238 126.247 31.9238 125.689V124.388C31.9238 123.689 31.9863 123.103 32.1113 122.63C32.2402 122.158 32.4219 121.779 32.6562 121.493C32.8906 121.204 33.1719 120.997 33.5 120.872C33.832 120.747 34.2031 120.685 34.6133 120.685C34.9453 120.685 35.25 120.726 35.5273 120.808C35.8086 120.886 36.0586 121.013 36.2773 121.189C36.4961 121.361 36.6816 121.591 36.834 121.88C36.9902 122.165 37.1094 122.515 37.1914 122.929C37.2734 123.343 37.3145 123.829 37.3145 124.388ZM36.2246 125.865V124.206C36.2246 123.824 36.2012 123.488 36.1543 123.199C36.1113 122.906 36.0469 122.656 35.9609 122.449C35.875 122.242 35.7656 122.074 35.6328 121.945C35.5039 121.816 35.3535 121.722 35.1816 121.663C35.0137 121.601 34.8242 121.57 34.6133 121.57C34.3555 121.57 34.127 121.618 33.9277 121.716C33.7285 121.81 33.5605 121.96 33.4238 122.167C33.291 122.374 33.1895 122.646 33.1191 122.982C33.0488 123.318 33.0137 123.726 33.0137 124.206V125.865C33.0137 126.247 33.0352 126.585 33.0781 126.878C33.125 127.171 33.1934 127.425 33.2832 127.64C33.373 127.851 33.4824 128.025 33.6113 128.161C33.7402 128.298 33.8887 128.4 34.0566 128.466C34.2285 128.529 34.418 128.56 34.625 128.56C34.8906 128.56 35.123 128.509 35.3223 128.408C35.5215 128.306 35.6875 128.148 35.8203 127.933C35.957 127.714 36.0586 127.435 36.125 127.095C36.1914 126.751 36.2246 126.341 36.2246 125.865Z" fill="black" fill-opacity="0.87"/>
<line x1="46" y1="124.833" x2="52" y2="124.833" stroke="black" stroke-opacity="0.87"/>
<path d="M29.3691 155.957H29.4629V156.877H29.3691C28.7949 156.877 28.3145 156.971 27.9277 157.158C27.541 157.342 27.2344 157.59 27.0078 157.902C26.7812 158.211 26.6172 158.559 26.5156 158.945C26.418 159.332 26.3691 159.725 26.3691 160.123V161.377C26.3691 161.756 26.4141 162.092 26.5039 162.385C26.5938 162.674 26.7168 162.918 26.873 163.117C27.0293 163.316 27.2051 163.467 27.4004 163.568C27.5996 163.67 27.8066 163.721 28.0215 163.721C28.2715 163.721 28.4941 163.674 28.6895 163.58C28.8848 163.482 29.0488 163.348 29.1816 163.176C29.3184 163 29.4219 162.793 29.4922 162.555C29.5625 162.316 29.5977 162.055 29.5977 161.77C29.5977 161.516 29.5664 161.271 29.5039 161.037C29.4414 160.799 29.3457 160.588 29.2168 160.404C29.0879 160.217 28.9258 160.07 28.7305 159.965C28.5391 159.855 28.3105 159.801 28.0449 159.801C27.7441 159.801 27.4629 159.875 27.2012 160.023C26.9434 160.168 26.7305 160.359 26.5625 160.598C26.3984 160.832 26.3047 161.088 26.2812 161.365L25.707 161.359C25.7617 160.922 25.8633 160.549 26.0117 160.24C26.1641 159.928 26.3516 159.674 26.5742 159.479C26.8008 159.279 27.0527 159.135 27.3301 159.045C27.6113 158.951 27.9082 158.904 28.2207 158.904C28.6465 158.904 29.0137 158.984 29.3223 159.145C29.6309 159.305 29.8848 159.52 30.084 159.789C30.2832 160.055 30.4297 160.355 30.5234 160.691C30.6211 161.023 30.6699 161.365 30.6699 161.717C30.6699 162.119 30.6133 162.496 30.5 162.848C30.3867 163.199 30.2168 163.508 29.9902 163.773C29.7676 164.039 29.4922 164.246 29.1641 164.395C28.8359 164.543 28.4551 164.617 28.0215 164.617C27.5605 164.617 27.1582 164.523 26.8145 164.336C26.4707 164.145 26.1855 163.891 25.959 163.574C25.7324 163.258 25.5625 162.906 25.4492 162.52C25.3359 162.133 25.2793 161.74 25.2793 161.342V160.832C25.2793 160.23 25.3398 159.641 25.4609 159.062C25.582 158.484 25.791 157.961 26.0879 157.492C26.3887 157.023 26.8047 156.65 27.3359 156.373C27.8672 156.096 28.5449 155.957 29.3691 155.957ZM37.3145 159.555V160.855C37.3145 161.555 37.252 162.145 37.127 162.625C37.002 163.105 36.8223 163.492 36.5879 163.785C36.3535 164.078 36.0703 164.291 35.7383 164.424C35.4102 164.553 35.0391 164.617 34.625 164.617C34.2969 164.617 33.9941 164.576 33.7168 164.494C33.4395 164.412 33.1895 164.281 32.9668 164.102C32.748 163.918 32.5605 163.68 32.4043 163.387C32.248 163.094 32.1289 162.738 32.0469 162.32C31.9648 161.902 31.9238 161.414 31.9238 160.855V159.555C31.9238 158.855 31.9863 158.27 32.1113 157.797C32.2402 157.324 32.4219 156.945 32.6562 156.66C32.8906 156.371 33.1719 156.164 33.5 156.039C33.832 155.914 34.2031 155.852 34.6133 155.852C34.9453 155.852 35.25 155.893 35.5273 155.975C35.8086 156.053 36.0586 156.18 36.2773 156.355C36.4961 156.527 36.6816 156.758 36.834 157.047C36.9902 157.332 37.1094 157.682 37.1914 158.096C37.2734 158.51 37.3145 158.996 37.3145 159.555ZM36.2246 161.031V159.373C36.2246 158.99 36.2012 158.654 36.1543 158.365C36.1113 158.072 36.0469 157.822 35.9609 157.615C35.875 157.408 35.7656 157.24 35.6328 157.111C35.5039 156.982 35.3535 156.889 35.1816 156.83C35.0137 156.768 34.8242 156.736 34.6133 156.736C34.3555 156.736 34.127 156.785 33.9277 156.883C33.7285 156.977 33.5605 157.127 33.4238 157.334C33.291 157.541 33.1895 157.812 33.1191 158.148C33.0488 158.484 33.0137 158.893 33.0137 159.373V161.031C33.0137 161.414 33.0352 161.752 33.0781 162.045C33.125 162.338 33.1934 162.592 33.2832 162.807C33.373 163.018 33.4824 163.191 33.6113 163.328C33.7402 163.465 33.8887 163.566 34.0566 163.633C34.2285 163.695 34.418 163.727 34.625 163.727C34.8906 163.727 35.123 163.676 35.3223 163.574C35.5215 163.473 35.6875 163.314 35.8203 163.1C35.957 162.881 36.0586 162.602 36.125 162.262C36.1914 161.918 36.2246 161.508 36.2246 161.031Z" fill="black" fill-opacity="0.87"/>
<line x1="46" y1="160" x2="52" y2="160" stroke="black" stroke-opacity="0.87"/>
<path d="M30.9746 196.796V197.686H24.8105V197.047L28.6309 191.135H29.5156L28.5664 192.846L26.041 196.796H30.9746ZM29.7852 191.135V199.667H28.7012V191.135H29.7852ZM37.3145 194.721V196.022C37.3145 196.721 37.252 197.311 37.127 197.792C37.002 198.272 36.8223 198.659 36.5879 198.952C36.3535 199.245 36.0703 199.458 35.7383 199.59C35.4102 199.719 35.0391 199.784 34.625 199.784C34.2969 199.784 33.9941 199.743 33.7168 199.661C33.4395 199.579 33.1895 199.448 32.9668 199.268C32.748 199.085 32.5605 198.846 32.4043 198.553C32.248 198.26 32.1289 197.905 32.0469 197.487C31.9648 197.069 31.9238 196.581 31.9238 196.022V194.721C31.9238 194.022 31.9863 193.436 32.1113 192.964C32.2402 192.491 32.4219 192.112 32.6562 191.827C32.8906 191.538 33.1719 191.331 33.5 191.206C33.832 191.081 34.2031 191.018 34.6133 191.018C34.9453 191.018 35.25 191.059 35.5273 191.141C35.8086 191.219 36.0586 191.346 36.2773 191.522C36.4961 191.694 36.6816 191.924 36.834 192.214C36.9902 192.499 37.1094 192.848 37.1914 193.262C37.2734 193.676 37.3145 194.163 37.3145 194.721ZM36.2246 196.198V194.54C36.2246 194.157 36.2012 193.821 36.1543 193.532C36.1113 193.239 36.0469 192.989 35.9609 192.782C35.875 192.575 35.7656 192.407 35.6328 192.278C35.5039 192.149 35.3535 192.055 35.1816 191.997C35.0137 191.934 34.8242 191.903 34.6133 191.903C34.3555 191.903 34.127 191.952 33.9277 192.049C33.7285 192.143 33.5605 192.294 33.4238 192.501C33.291 192.708 33.1895 192.979 33.1191 193.315C33.0488 193.651 33.0137 194.059 33.0137 194.54V196.198C33.0137 196.581 33.0352 196.919 33.0781 197.212C33.125 197.505 33.1934 197.758 33.2832 197.973C33.373 198.184 33.4824 198.358 33.6113 198.495C33.7402 198.631 33.8887 198.733 34.0566 198.799C34.2285 198.862 34.418 198.893 34.625 198.893C34.8906 198.893 35.123 198.842 35.3223 198.741C35.5215 198.639 35.6875 198.481 35.8203 198.266C35.957 198.047 36.0586 197.768 36.125 197.428C36.1914 197.085 36.2246 196.674 36.2246 196.198Z" fill="black" fill-opacity="0.87"/>
<line x1="46" y1="195.167" x2="52" y2="195.167" stroke="black" stroke-opacity="0.87"/>
<path d="M30.7988 233.943V234.833H25.2148V234.054L28.0098 230.943C28.3535 230.56 28.6191 230.236 28.8066 229.97C28.998 229.701 29.1309 229.46 29.2051 229.249C29.2832 229.035 29.3223 228.816 29.3223 228.593C29.3223 228.312 29.2637 228.058 29.1465 227.831C29.0332 227.601 28.8652 227.417 28.6426 227.281C28.4199 227.144 28.1504 227.076 27.834 227.076C27.4551 227.076 27.1387 227.15 26.8848 227.298C26.6348 227.443 26.4473 227.646 26.3223 227.908C26.1973 228.169 26.1348 228.47 26.1348 228.81H25.0508C25.0508 228.329 25.1562 227.89 25.3672 227.492C25.5781 227.093 25.8906 226.777 26.3047 226.542C26.7188 226.304 27.2285 226.185 27.834 226.185C28.373 226.185 28.834 226.281 29.2168 226.472C29.5996 226.66 29.8926 226.925 30.0957 227.269C30.3027 227.609 30.4062 228.007 30.4062 228.464C30.4062 228.714 30.3633 228.968 30.2773 229.226C30.1953 229.48 30.0801 229.734 29.9316 229.988C29.7871 230.242 29.6172 230.492 29.4219 230.738C29.2305 230.984 29.0254 231.226 28.8066 231.464L26.5215 233.943H30.7988ZM37.3145 229.888V231.189C37.3145 231.888 37.252 232.478 37.127 232.958C37.002 233.439 36.8223 233.826 36.5879 234.119C36.3535 234.411 36.0703 234.624 35.7383 234.757C35.4102 234.886 35.0391 234.951 34.625 234.951C34.2969 234.951 33.9941 234.91 33.7168 234.828C33.4395 234.745 33.1895 234.615 32.9668 234.435C32.748 234.251 32.5605 234.013 32.4043 233.72C32.248 233.427 32.1289 233.072 32.0469 232.654C31.9648 232.236 31.9238 231.747 31.9238 231.189V229.888C31.9238 229.189 31.9863 228.603 32.1113 228.13C32.2402 227.658 32.4219 227.279 32.6562 226.994C32.8906 226.704 33.1719 226.497 33.5 226.372C33.832 226.247 34.2031 226.185 34.6133 226.185C34.9453 226.185 35.25 226.226 35.5273 226.308C35.8086 226.386 36.0586 226.513 36.2773 226.689C36.4961 226.861 36.6816 227.091 36.834 227.38C36.9902 227.665 37.1094 228.015 37.1914 228.429C37.2734 228.843 37.3145 229.329 37.3145 229.888ZM36.2246 231.365V229.706C36.2246 229.324 36.2012 228.988 36.1543 228.699C36.1113 228.406 36.0469 228.156 35.9609 227.949C35.875 227.742 35.7656 227.574 35.6328 227.445C35.5039 227.316 35.3535 227.222 35.1816 227.163C35.0137 227.101 34.8242 227.07 34.6133 227.07C34.3555 227.07 34.127 227.119 33.9277 227.216C33.7285 227.31 33.5605 227.46 33.4238 227.667C33.291 227.874 33.1895 228.146 33.1191 228.482C33.0488 228.818 33.0137 229.226 33.0137 229.706V231.365C33.0137 231.747 33.0352 232.085 33.0781 232.378C33.125 232.671 33.1934 232.925 33.2832 233.14C33.373 233.351 33.4824 233.525 33.6113 233.661C33.7402 233.798 33.8887 233.9 34.0566 233.966C34.2285 234.029 34.418 234.06 34.625 234.06C34.8906 234.06 35.123 234.009 35.3223 233.908C35.5215 233.806 35.6875 233.648 35.8203 233.433C35.957 233.214 36.0586 232.935 36.125 232.595C36.1914 232.251 36.2246 231.841 36.2246 231.365Z" fill="black" fill-opacity="0.87"/>
<line x1="46" y1="230.333" x2="52" y2="230.333" stroke="black" stroke-opacity="0.87"/>
<path d="M37.3145 265.055V266.355C37.3145 267.055 37.252 267.645 37.127 268.125C37.002 268.605 36.8223 268.992 36.5879 269.285C36.3535 269.578 36.0703 269.791 35.7383 269.924C35.4102 270.053 35.0391 270.117 34.625 270.117C34.2969 270.117 33.9941 270.076 33.7168 269.994C33.4395 269.912 33.1895 269.781 32.9668 269.602C32.748 269.418 32.5605 269.18 32.4043 268.887C32.248 268.594 32.1289 268.238 32.0469 267.82C31.9648 267.402 31.9238 266.914 31.9238 266.355V265.055C31.9238 264.355 31.9863 263.77 32.1113 263.297C32.2402 262.824 32.4219 262.445 32.6562 262.16C32.8906 261.871 33.1719 261.664 33.5 261.539C33.832 261.414 34.2031 261.352 34.6133 261.352C34.9453 261.352 35.25 261.393 35.5273 261.475C35.8086 261.553 36.0586 261.68 36.2773 261.855C36.4961 262.027 36.6816 262.258 36.834 262.547C36.9902 262.832 37.1094 263.182 37.1914 263.596C37.2734 264.01 37.3145 264.496 37.3145 265.055ZM36.2246 266.531V264.873C36.2246 264.49 36.2012 264.154 36.1543 263.865C36.1113 263.572 36.0469 263.322 35.9609 263.115C35.875 262.908 35.7656 262.74 35.6328 262.611C35.5039 262.482 35.3535 262.389 35.1816 262.33C35.0137 262.268 34.8242 262.236 34.6133 262.236C34.3555 262.236 34.127 262.285 33.9277 262.383C33.7285 262.477 33.5605 262.627 33.4238 262.834C33.291 263.041 33.1895 263.312 33.1191 263.648C33.0488 263.984 33.0137 264.393 33.0137 264.873V266.531C33.0137 266.914 33.0352 267.252 33.0781 267.545C33.125 267.838 33.1934 268.092 33.2832 268.307C33.373 268.518 33.4824 268.691 33.6113 268.828C33.7402 268.965 33.8887 269.066 34.0566 269.133C34.2285 269.195 34.418 269.227 34.625 269.227C34.8906 269.227 35.123 269.176 35.3223 269.074C35.5215 268.973 35.6875 268.814 35.8203 268.6C35.957 268.381 36.0586 268.102 36.125 267.762C36.1914 267.418 36.2246 267.008 36.2246 266.531Z" fill="black" fill-opacity="0.87"/>
<line x1="46" y1="265.5" x2="52" y2="265.5" stroke="black" stroke-opacity="0.87"/>
<rect x="52" y="54" width="1" height="212" fill="black" fill-opacity="0.87"/>
<path d="M51.5283 249.25L125.2 231.289C125.797 231.144 126.379 230.944 126.939 230.691L194.428 200.285C194.936 200.056 195.423 199.786 195.885 199.476L263.989 153.862C264.599 153.453 265.252 153.113 265.937 152.847L332.314 127.095C333.219 126.743 334.069 126.262 334.836 125.665L400.595 74.5239C401.717 73.6513 403.012 73.028 404.394 72.6953L475 55.7" stroke="#4FD1C5" stroke-width="2" stroke-linecap="round" stroke-linejoin="round"/>
<path d="M62 248.9C62 251.661 59.7614 253.9 57 253.9C54.2386 253.9 52 251.661 52 248.9C52 246.139 54.2386 243.9 57 243.9C59.7614 243.9 62 246.139 62 248.9Z" fill="white" stroke="#4FD1C5" stroke-width="2"/>
<path d="M131.167 231.4C131.167 234.161 128.928 236.4 126.167 236.4C123.406 236.4 121.167 234.161 121.167 231.4C121.167 228.639 123.406 226.4 126.167 226.4C128.928 226.4 131.167 228.639 131.167 231.4Z" fill="white" stroke="#4FD1C5" stroke-width="2"/>
<circle cx="195.333" cy="200.6" r="5" fill="white" stroke="#4FD1C5" stroke-width="2"/>
<circle cx="264.5" cy="153.7" r="5" fill="white" stroke="#4FD1C5" stroke-width="2"/>
<circle cx="333.667" cy="127.1" r="5" fill="white" stroke="#4FD1C5" stroke-width="2"/>
<circle cx="402.833" cy="73.9" r="5" fill="white" stroke="#4FD1C5" stroke-width="2"/>
<circle cx="472" cy="55.7" r="5" fill="white" stroke="#4FD1C5" stroke-width="2"/>
<rect x="52" y="265" width="423" height="1" fill="black" fill-opacity="0.87"/>
<rect x="52" y="266" width="1" height="6" fill="black" fill-opacity="0.87"/>
<rect x="474" y="266" width="1" height="6" fill="black" fill-opacity="0.87"/>
<path d="M55.6895 281.055V282.355C55.6895 283.055 55.627 283.645 55.502 284.125C55.377 284.605 55.1973 284.992 54.9629 285.285C54.7285 285.578 54.4453 285.791 54.1133 285.924C53.7852 286.053 53.4141 286.117 53 286.117C52.6719 286.117 52.3691 286.076 52.0918 285.994C51.8145 285.912 51.5645 285.781 51.3418 285.602C51.123 285.418 50.9355 285.18 50.7793 284.887C50.623 284.594 50.5039 284.238 50.4219 283.82C50.3398 283.402 50.2988 282.914 50.2988 282.355V281.055C50.2988 280.355 50.3613 279.77 50.4863 279.297C50.6152 278.824 50.7969 278.445 51.0312 278.16C51.2656 277.871 51.5469 277.664 51.875 277.539C52.207 277.414 52.5781 277.352 52.9883 277.352C53.3203 277.352 53.625 277.393 53.9023 277.475C54.1836 277.553 54.4336 277.68 54.6523 277.855C54.8711 278.027 55.0566 278.258 55.209 278.547C55.3652 278.832 55.4844 279.182 55.5664 279.596C55.6484 280.01 55.6895 280.496 55.6895 281.055ZM54.5996 282.531V280.873C54.5996 280.49 54.5762 280.154 54.5293 279.865C54.4863 279.572 54.4219 279.322 54.3359 279.115C54.25 278.908 54.1406 278.74 54.0078 278.611C53.8789 278.482 53.7285 278.389 53.5566 278.33C53.3887 278.268 53.1992 278.236 52.9883 278.236C52.7305 278.236 52.502 278.285 52.3027 278.383C52.1035 278.477 51.9355 278.627 51.7988 278.834C51.666 279.041 51.5645 279.312 51.4941 279.648C51.4238 279.984 51.3887 280.393 51.3887 280.873V282.531C51.3887 282.914 51.4102 283.252 51.4531 283.545C51.5 283.838 51.5684 284.092 51.6582 284.307C51.748 284.518 51.8574 284.691 51.9863 284.828C52.1152 284.965 52.2637 285.066 52.4316 285.133C52.6035 285.195 52.793 285.227 53 285.227C53.2656 285.227 53.498 285.176 53.6973 285.074C53.8965 284.973 54.0625 284.814 54.1953 284.6C54.332 284.381 54.4336 284.102 54.5 283.762C54.5664 283.418 54.5996 283.008 54.5996 282.531Z" fill="black" fill-opacity="0.87"/>
<line x1="122.667" y1="272" x2="122.667" y2="266" stroke="black" stroke-opacity="0.87"/>
<path d="M122.716 285.109V286H117.132V285.221L119.927 282.109C120.271 281.727 120.536 281.402 120.724 281.137C120.915 280.867 121.048 280.627 121.122 280.416C121.2 280.201 121.239 279.982 121.239 279.76C121.239 279.479 121.181 279.225 121.063 278.998C120.95 278.768 120.782 278.584 120.56 278.447C120.337 278.311 120.067 278.242 119.751 278.242C119.372 278.242 119.056 278.316 118.802 278.465C118.552 278.609 118.364 278.812 118.239 279.074C118.114 279.336 118.052 279.637 118.052 279.977H116.968C116.968 279.496 117.073 279.057 117.284 278.658C117.495 278.26 117.808 277.943 118.222 277.709C118.636 277.471 119.146 277.352 119.751 277.352C120.29 277.352 120.751 277.447 121.134 277.639C121.517 277.826 121.81 278.092 122.013 278.436C122.22 278.775 122.323 279.174 122.323 279.631C122.323 279.881 122.28 280.135 122.194 280.393C122.112 280.646 121.997 280.9 121.849 281.154C121.704 281.408 121.534 281.658 121.339 281.904C121.147 282.15 120.942 282.393 120.724 282.631L118.438 285.109H122.716ZM129.231 281.055V282.355C129.231 283.055 129.169 283.645 129.044 284.125C128.919 284.605 128.739 284.992 128.505 285.285C128.271 285.578 127.987 285.791 127.655 285.924C127.327 286.053 126.956 286.117 126.542 286.117C126.214 286.117 125.911 286.076 125.634 285.994C125.356 285.912 125.106 285.781 124.884 285.602C124.665 285.418 124.478 285.18 124.321 284.887C124.165 284.594 124.046 284.238 123.964 283.82C123.882 283.402 123.841 282.914 123.841 282.355V281.055C123.841 280.355 123.903 279.77 124.028 279.297C124.157 278.824 124.339 278.445 124.573 278.16C124.808 277.871 125.089 277.664 125.417 277.539C125.749 277.414 126.12 277.352 126.53 277.352C126.862 277.352 127.167 277.393 127.444 277.475C127.726 277.553 127.976 277.68 128.194 277.855C128.413 278.027 128.599 278.258 128.751 278.547C128.907 278.832 129.026 279.182 129.108 279.596C129.19 280.01 129.231 280.496 129.231 281.055ZM128.142 282.531V280.873C128.142 280.49 128.118 280.154 128.071 279.865C128.028 279.572 127.964 279.322 127.878 279.115C127.792 278.908 127.683 278.74 127.55 278.611C127.421 278.482 127.271 278.389 127.099 278.33C126.931 278.268 126.741 278.236 126.53 278.236C126.272 278.236 126.044 278.285 125.845 278.383C125.646 278.477 125.478 278.627 125.341 278.834C125.208 279.041 125.106 279.312 125.036 279.648C124.966 279.984 124.931 280.393 124.931 280.873V282.531C124.931 282.914 124.952 283.252 124.995 283.545C125.042 283.838 125.11 284.092 125.2 284.307C125.29 284.518 125.399 284.691 125.528 284.828C125.657 284.965 125.806 285.066 125.974 285.133C126.146 285.195 126.335 285.227 126.542 285.227C126.808 285.227 127.04 285.176 127.239 285.074C127.438 284.973 127.604 284.814 127.737 284.6C127.874 284.381 127.976 284.102 128.042 283.762C128.108 283.418 128.142 283.008 128.142 282.531Z" fill="black" fill-opacity="0.87"/>
<line x1="192.833" y1="272" x2="192.833" y2="266" stroke="black" stroke-opacity="0.87"/>
<path d="M193.058 283.129V284.02H186.894V283.381L190.714 277.469H191.599L190.649 279.18L188.124 283.129H193.058ZM191.868 277.469V286H190.784V277.469H191.868ZM199.397 281.055V282.355C199.397 283.055 199.335 283.645 199.21 284.125C199.085 284.605 198.905 284.992 198.671 285.285C198.437 285.578 198.153 285.791 197.821 285.924C197.493 286.053 197.122 286.117 196.708 286.117C196.38 286.117 196.077 286.076 195.8 285.994C195.522 285.912 195.272 285.781 195.05 285.602C194.831 285.418 194.644 285.18 194.487 284.887C194.331 284.594 194.212 284.238 194.13 283.82C194.048 283.402 194.007 282.914 194.007 282.355V281.055C194.007 280.355 194.069 279.77 194.194 279.297C194.323 278.824 194.505 278.445 194.739 278.16C194.974 277.871 195.255 277.664 195.583 277.539C195.915 277.414 196.286 277.352 196.696 277.352C197.028 277.352 197.333 277.393 197.61 277.475C197.892 277.553 198.142 277.68 198.36 277.855C198.579 278.027 198.765 278.258 198.917 278.547C199.073 278.832 199.192 279.182 199.274 279.596C199.356 280.01 199.397 280.496 199.397 281.055ZM198.308 282.531V280.873C198.308 280.49 198.284 280.154 198.237 279.865C198.194 279.572 198.13 279.322 198.044 279.115C197.958 278.908 197.849 278.74 197.716 278.611C197.587 278.482 197.437 278.389 197.265 278.33C197.097 278.268 196.907 278.236 196.696 278.236C196.438 278.236 196.21 278.285 196.011 278.383C195.812 278.477 195.644 278.627 195.507 278.834C195.374 279.041 195.272 279.312 195.202 279.648C195.132 279.984 195.097 280.393 195.097 280.873V282.531C195.097 282.914 195.118 283.252 195.161 283.545C195.208 283.838 195.276 284.092 195.366 284.307C195.456 284.518 195.565 284.691 195.694 284.828C195.823 284.965 195.972 285.066 196.14 285.133C196.312 285.195 196.501 285.227 196.708 285.227C196.974 285.227 197.206 285.176 197.405 285.074C197.604 284.973 197.771 284.814 197.903 284.6C198.04 284.381 198.142 284.102 198.208 283.762C198.274 283.418 198.308 283.008 198.308 282.531Z" fill="black" fill-opacity="0.87"/>
<line x1="263" y1="272" x2="263" y2="266" stroke="black" stroke-opacity="0.87"/>
<path d="M261.619 277.457H261.713V278.377H261.619C261.045 278.377 260.564 278.471 260.178 278.658C259.791 278.842 259.484 279.09 259.258 279.402C259.031 279.711 258.867 280.059 258.766 280.445C258.668 280.832 258.619 281.225 258.619 281.623V282.877C258.619 283.256 258.664 283.592 258.754 283.885C258.844 284.174 258.967 284.418 259.123 284.617C259.279 284.816 259.455 284.967 259.65 285.068C259.85 285.17 260.057 285.221 260.271 285.221C260.521 285.221 260.744 285.174 260.939 285.08C261.135 284.982 261.299 284.848 261.432 284.676C261.568 284.5 261.672 284.293 261.742 284.055C261.812 283.816 261.848 283.555 261.848 283.27C261.848 283.016 261.816 282.771 261.754 282.537C261.691 282.299 261.596 282.088 261.467 281.904C261.338 281.717 261.176 281.57 260.98 281.465C260.789 281.355 260.561 281.301 260.295 281.301C259.994 281.301 259.713 281.375 259.451 281.523C259.193 281.668 258.98 281.859 258.812 282.098C258.648 282.332 258.555 282.588 258.531 282.865L257.957 282.859C258.012 282.422 258.113 282.049 258.262 281.74C258.414 281.428 258.602 281.174 258.824 280.979C259.051 280.779 259.303 280.635 259.58 280.545C259.861 280.451 260.158 280.404 260.471 280.404C260.896 280.404 261.264 280.484 261.572 280.645C261.881 280.805 262.135 281.02 262.334 281.289C262.533 281.555 262.68 281.855 262.773 282.191C262.871 282.523 262.92 282.865 262.92 283.217C262.92 283.619 262.863 283.996 262.75 284.348C262.637 284.699 262.467 285.008 262.24 285.273C262.018 285.539 261.742 285.746 261.414 285.895C261.086 286.043 260.705 286.117 260.271 286.117C259.811 286.117 259.408 286.023 259.064 285.836C258.721 285.645 258.436 285.391 258.209 285.074C257.982 284.758 257.812 284.406 257.699 284.02C257.586 283.633 257.529 283.24 257.529 282.842V282.332C257.529 281.73 257.59 281.141 257.711 280.562C257.832 279.984 258.041 279.461 258.338 278.992C258.639 278.523 259.055 278.15 259.586 277.873C260.117 277.596 260.795 277.457 261.619 277.457ZM269.564 281.055V282.355C269.564 283.055 269.502 283.645 269.377 284.125C269.252 284.605 269.072 284.992 268.838 285.285C268.604 285.578 268.32 285.791 267.988 285.924C267.66 286.053 267.289 286.117 266.875 286.117C266.547 286.117 266.244 286.076 265.967 285.994C265.689 285.912 265.439 285.781 265.217 285.602C264.998 285.418 264.811 285.18 264.654 284.887C264.498 284.594 264.379 284.238 264.297 283.82C264.215 283.402 264.174 282.914 264.174 282.355V281.055C264.174 280.355 264.236 279.77 264.361 279.297C264.49 278.824 264.672 278.445 264.906 278.16C265.141 277.871 265.422 277.664 265.75 277.539C266.082 277.414 266.453 277.352 266.863 277.352C267.195 277.352 267.5 277.393 267.777 277.475C268.059 277.553 268.309 277.68 268.527 277.855C268.746 278.027 268.932 278.258 269.084 278.547C269.24 278.832 269.359 279.182 269.441 279.596C269.523 280.01 269.564 280.496 269.564 281.055ZM268.475 282.531V280.873C268.475 280.49 268.451 280.154 268.404 279.865C268.361 279.572 268.297 279.322 268.211 279.115C268.125 278.908 268.016 278.74 267.883 278.611C267.754 278.482 267.604 278.389 267.432 278.33C267.264 278.268 267.074 278.236 266.863 278.236C266.605 278.236 266.377 278.285 266.178 278.383C265.979 278.477 265.811 278.627 265.674 278.834C265.541 279.041 265.439 279.312 265.369 279.648C265.299 279.984 265.264 280.393 265.264 280.873V282.531C265.264 282.914 265.285 283.252 265.328 283.545C265.375 283.838 265.443 284.092 265.533 284.307C265.623 284.518 265.732 284.691 265.861 284.828C265.99 284.965 266.139 285.066 266.307 285.133C266.479 285.195 266.668 285.227 266.875 285.227C267.141 285.227 267.373 285.176 267.572 285.074C267.771 284.973 267.938 284.814 268.07 284.6C268.207 284.381 268.309 284.102 268.375 283.762C268.441 283.418 268.475 283.008 268.475 282.531Z" fill="black" fill-opacity="0.87"/>
<line x1="333.167" y1="272" x2="333.167" y2="266" stroke="black" stroke-opacity="0.87"/>
<path d="M333.005 283.691C333.005 284.211 332.884 284.652 332.642 285.016C332.403 285.375 332.079 285.648 331.669 285.836C331.263 286.023 330.804 286.117 330.292 286.117C329.78 286.117 329.319 286.023 328.909 285.836C328.499 285.648 328.175 285.375 327.937 285.016C327.698 284.652 327.579 284.211 327.579 283.691C327.579 283.352 327.644 283.041 327.772 282.76C327.905 282.475 328.091 282.227 328.329 282.016C328.571 281.805 328.856 281.643 329.185 281.529C329.517 281.412 329.882 281.354 330.28 281.354C330.804 281.354 331.271 281.455 331.681 281.658C332.091 281.857 332.413 282.133 332.647 282.484C332.886 282.836 333.005 283.238 333.005 283.691ZM331.915 283.668C331.915 283.352 331.847 283.072 331.71 282.83C331.573 282.584 331.382 282.393 331.136 282.256C330.89 282.119 330.604 282.051 330.28 282.051C329.948 282.051 329.661 282.119 329.419 282.256C329.181 282.393 328.995 282.584 328.862 282.83C328.729 283.072 328.663 283.352 328.663 283.668C328.663 283.996 328.728 284.277 328.856 284.512C328.989 284.742 329.177 284.92 329.419 285.045C329.665 285.166 329.956 285.227 330.292 285.227C330.628 285.227 330.917 285.166 331.159 285.045C331.401 284.92 331.587 284.742 331.716 284.512C331.849 284.277 331.915 283.996 331.915 283.668ZM332.806 279.689C332.806 280.104 332.696 280.477 332.478 280.809C332.259 281.141 331.96 281.402 331.581 281.594C331.202 281.785 330.772 281.881 330.292 281.881C329.804 281.881 329.368 281.785 328.985 281.594C328.606 281.402 328.31 281.141 328.095 280.809C327.88 280.477 327.772 280.104 327.772 279.689C327.772 279.193 327.88 278.771 328.095 278.424C328.313 278.076 328.612 277.811 328.991 277.627C329.37 277.443 329.802 277.352 330.286 277.352C330.774 277.352 331.208 277.443 331.587 277.627C331.966 277.811 332.263 278.076 332.478 278.424C332.696 278.771 332.806 279.193 332.806 279.689ZM331.722 279.707C331.722 279.422 331.661 279.17 331.54 278.951C331.419 278.732 331.251 278.561 331.036 278.436C330.821 278.307 330.571 278.242 330.286 278.242C330.001 278.242 329.751 278.303 329.536 278.424C329.325 278.541 329.159 278.709 329.038 278.928C328.921 279.146 328.862 279.406 328.862 279.707C328.862 280 328.921 280.256 329.038 280.475C329.159 280.693 329.327 280.863 329.542 280.984C329.757 281.105 330.007 281.166 330.292 281.166C330.577 281.166 330.825 281.105 331.036 280.984C331.251 280.863 331.419 280.693 331.54 280.475C331.661 280.256 331.722 280 331.722 279.707ZM339.731 281.055V282.355C339.731 283.055 339.669 283.645 339.544 284.125C339.419 284.605 339.239 284.992 339.005 285.285C338.771 285.578 338.487 285.791 338.155 285.924C337.827 286.053 337.456 286.117 337.042 286.117C336.714 286.117 336.411 286.076 336.134 285.994C335.856 285.912 335.606 285.781 335.384 285.602C335.165 285.418 334.978 285.18 334.821 284.887C334.665 284.594 334.546 284.238 334.464 283.82C334.382 283.402 334.341 282.914 334.341 282.355V281.055C334.341 280.355 334.403 279.77 334.528 279.297C334.657 278.824 334.839 278.445 335.073 278.16C335.308 277.871 335.589 277.664 335.917 277.539C336.249 277.414 336.62 277.352 337.03 277.352C337.362 277.352 337.667 277.393 337.944 277.475C338.226 277.553 338.476 277.68 338.694 277.855C338.913 278.027 339.099 278.258 339.251 278.547C339.407 278.832 339.526 279.182 339.608 279.596C339.69 280.01 339.731 280.496 339.731 281.055ZM338.642 282.531V280.873C338.642 280.49 338.618 280.154 338.571 279.865C338.528 279.572 338.464 279.322 338.378 279.115C338.292 278.908 338.183 278.74 338.05 278.611C337.921 278.482 337.771 278.389 337.599 278.33C337.431 278.268 337.241 278.236 337.03 278.236C336.772 278.236 336.544 278.285 336.345 278.383C336.146 278.477 335.978 278.627 335.841 278.834C335.708 279.041 335.606 279.312 335.536 279.648C335.466 279.984 335.431 280.393 335.431 280.873V282.531C335.431 282.914 335.452 283.252 335.495 283.545C335.542 283.838 335.61 284.092 335.7 284.307C335.79 284.518 335.899 284.691 336.028 284.828C336.157 284.965 336.306 285.066 336.474 285.133C336.646 285.195 336.835 285.227 337.042 285.227C337.308 285.227 337.54 285.176 337.739 285.074C337.938 284.973 338.104 284.814 338.237 284.6C338.374 284.381 338.476 284.102 338.542 283.762C338.608 283.418 338.642 283.008 338.642 282.531Z" fill="black" fill-opacity="0.87"/>
<line x1="403.333" y1="272" x2="403.333" y2="266" stroke="black" stroke-opacity="0.87"/>
<path d="M398.87 285.092H398.981C399.606 285.092 400.114 285.004 400.505 284.828C400.896 284.652 401.196 284.416 401.407 284.119C401.618 283.822 401.763 283.488 401.841 283.117C401.919 282.742 401.958 282.357 401.958 281.963V280.656C401.958 280.27 401.913 279.926 401.823 279.625C401.737 279.324 401.616 279.072 401.46 278.869C401.308 278.666 401.134 278.512 400.938 278.406C400.743 278.301 400.536 278.248 400.317 278.248C400.067 278.248 399.843 278.299 399.644 278.4C399.448 278.498 399.282 278.637 399.146 278.816C399.013 278.996 398.911 279.207 398.841 279.449C398.771 279.691 398.735 279.955 398.735 280.24C398.735 280.494 398.767 280.74 398.829 280.979C398.892 281.217 398.987 281.432 399.116 281.623C399.245 281.814 399.405 281.967 399.597 282.08C399.792 282.189 400.021 282.244 400.282 282.244C400.524 282.244 400.751 282.197 400.962 282.104C401.177 282.006 401.366 281.875 401.53 281.711C401.698 281.543 401.831 281.354 401.929 281.143C402.03 280.932 402.089 280.711 402.104 280.48H402.62C402.62 280.805 402.556 281.125 402.427 281.441C402.302 281.754 402.126 282.039 401.899 282.297C401.673 282.555 401.407 282.762 401.103 282.918C400.798 283.07 400.466 283.146 400.106 283.146C399.685 283.146 399.319 283.064 399.011 282.9C398.702 282.736 398.448 282.518 398.249 282.244C398.054 281.971 397.907 281.666 397.81 281.33C397.716 280.99 397.669 280.646 397.669 280.299C397.669 279.893 397.726 279.512 397.839 279.156C397.952 278.801 398.12 278.488 398.343 278.219C398.565 277.945 398.841 277.732 399.169 277.58C399.501 277.428 399.884 277.352 400.317 277.352C400.806 277.352 401.222 277.449 401.565 277.645C401.909 277.84 402.188 278.102 402.403 278.43C402.622 278.758 402.782 279.127 402.884 279.537C402.985 279.947 403.036 280.369 403.036 280.803V281.195C403.036 281.637 403.007 282.086 402.948 282.543C402.894 282.996 402.786 283.43 402.626 283.844C402.47 284.258 402.241 284.629 401.94 284.957C401.64 285.281 401.247 285.539 400.763 285.73C400.282 285.918 399.688 286.012 398.981 286.012H398.87V285.092ZM409.897 281.055V282.355C409.897 283.055 409.835 283.645 409.71 284.125C409.585 284.605 409.405 284.992 409.171 285.285C408.937 285.578 408.653 285.791 408.321 285.924C407.993 286.053 407.622 286.117 407.208 286.117C406.88 286.117 406.577 286.076 406.3 285.994C406.022 285.912 405.772 285.781 405.55 285.602C405.331 285.418 405.144 285.18 404.987 284.887C404.831 284.594 404.712 284.238 404.63 283.82C404.548 283.402 404.507 282.914 404.507 282.355V281.055C404.507 280.355 404.569 279.77 404.694 279.297C404.823 278.824 405.005 278.445 405.239 278.16C405.474 277.871 405.755 277.664 406.083 277.539C406.415 277.414 406.786 277.352 407.196 277.352C407.528 277.352 407.833 277.393 408.11 277.475C408.392 277.553 408.642 277.68 408.86 277.855C409.079 278.027 409.265 278.258 409.417 278.547C409.573 278.832 409.692 279.182 409.774 279.596C409.856 280.01 409.897 280.496 409.897 281.055ZM408.808 282.531V280.873C408.808 280.49 408.784 280.154 408.737 279.865C408.694 279.572 408.63 279.322 408.544 279.115C408.458 278.908 408.349 278.74 408.216 278.611C408.087 278.482 407.937 278.389 407.765 278.33C407.597 278.268 407.407 278.236 407.196 278.236C406.938 278.236 406.71 278.285 406.511 278.383C406.312 278.477 406.144 278.627 406.007 278.834C405.874 279.041 405.772 279.312 405.702 279.648C405.632 279.984 405.597 280.393 405.597 280.873V282.531C405.597 282.914 405.618 283.252 405.661 283.545C405.708 283.838 405.776 284.092 405.866 284.307C405.956 284.518 406.065 284.691 406.194 284.828C406.323 284.965 406.472 285.066 406.64 285.133C406.812 285.195 407.001 285.227 407.208 285.227C407.474 285.227 407.706 285.176 407.905 285.074C408.104 284.973 408.271 284.814 408.403 284.6C408.54 284.381 408.642 284.102 408.708 283.762C408.774 283.418 408.808 283.008 408.808 282.531Z" fill="black" fill-opacity="0.87"/>
<path d="M470.174 285.109V286H464.59V285.221L467.385 282.109C467.729 281.727 467.994 281.402 468.182 281.137C468.373 280.867 468.506 280.627 468.58 280.416C468.658 280.201 468.697 279.982 468.697 279.76C468.697 279.479 468.639 279.225 468.521 278.998C468.408 278.768 468.24 278.584 468.018 278.447C467.795 278.311 467.525 278.242 467.209 278.242C466.83 278.242 466.514 278.316 466.26 278.465C466.01 278.609 465.822 278.812 465.697 279.074C465.572 279.336 465.51 279.637 465.51 279.977H464.426C464.426 279.496 464.531 279.057 464.742 278.658C464.953 278.26 465.266 277.943 465.68 277.709C466.094 277.471 466.604 277.352 467.209 277.352C467.748 277.352 468.209 277.447 468.592 277.639C468.975 277.826 469.268 278.092 469.471 278.436C469.678 278.775 469.781 279.174 469.781 279.631C469.781 279.881 469.738 280.135 469.652 280.393C469.57 280.646 469.455 280.9 469.307 281.154C469.162 281.408 468.992 281.658 468.797 281.904C468.605 282.15 468.4 282.393 468.182 282.631L465.896 285.109H470.174ZM476.689 281.055V282.355C476.689 283.055 476.627 283.645 476.502 284.125C476.377 284.605 476.197 284.992 475.963 285.285C475.729 285.578 475.445 285.791 475.113 285.924C474.785 286.053 474.414 286.117 474 286.117C473.672 286.117 473.369 286.076 473.092 285.994C472.814 285.912 472.564 285.781 472.342 285.602C472.123 285.418 471.936 285.18 471.779 284.887C471.623 284.594 471.504 284.238 471.422 283.82C471.34 283.402 471.299 282.914 471.299 282.355V281.055C471.299 280.355 471.361 279.77 471.486 279.297C471.615 278.824 471.797 278.445 472.031 278.16C472.266 277.871 472.547 277.664 472.875 277.539C473.207 277.414 473.578 277.352 473.988 277.352C474.32 277.352 474.625 277.393 474.902 277.475C475.184 277.553 475.434 277.68 475.652 277.855C475.871 278.027 476.057 278.258 476.209 278.547C476.365 278.832 476.484 279.182 476.566 279.596C476.648 280.01 476.689 280.496 476.689 281.055ZM475.6 282.531V280.873C475.6 280.49 475.576 280.154 475.529 279.865C475.486 279.572 475.422 279.322 475.336 279.115C475.25 278.908 475.141 278.74 475.008 278.611C474.879 278.482 474.729 278.389 474.557 278.33C474.389 278.268 474.199 278.236 473.988 278.236C473.73 278.236 473.502 278.285 473.303 278.383C473.104 278.477 472.936 278.627 472.799 278.834C472.666 279.041 472.564 279.312 472.494 279.648C472.424 279.984 472.389 280.393 472.389 280.873V282.531C472.389 282.914 472.41 283.252 472.453 283.545C472.5 283.838 472.568 284.092 472.658 284.307C472.748 284.518 472.857 284.691 472.986 284.828C473.115 284.965 473.264 285.066 473.432 285.133C473.604 285.195 473.793 285.227 474 285.227C474.266 285.227 474.498 285.176 474.697 285.074C474.896 284.973 475.062 284.814 475.195 284.6C475.332 284.381 475.434 284.102 475.5 283.762C475.566 283.418 475.6 283.008 475.6 282.531ZM483.439 281.055V282.355C483.439 283.055 483.377 283.645 483.252 284.125C483.127 284.605 482.947 284.992 482.713 285.285C482.479 285.578 482.195 285.791 481.863 285.924C481.535 286.053 481.164 286.117 480.75 286.117C480.422 286.117 480.119 286.076 479.842 285.994C479.564 285.912 479.314 285.781 479.092 285.602C478.873 285.418 478.686 285.18 478.529 284.887C478.373 284.594 478.254 284.238 478.172 283.82C478.09 283.402 478.049 282.914 478.049 282.355V281.055C478.049 280.355 478.111 279.77 478.236 279.297C478.365 278.824 478.547 278.445 478.781 278.16C479.016 277.871 479.297 277.664 479.625 277.539C479.957 277.414 480.328 277.352 480.738 277.352C481.07 277.352 481.375 277.393 481.652 277.475C481.934 277.553 482.184 277.68 482.402 277.855C482.621 278.027 482.807 278.258 482.959 278.547C483.115 278.832 483.234 279.182 483.316 279.596C483.398 280.01 483.439 280.496 483.439 281.055ZM482.35 282.531V280.873C482.35 280.49 482.326 280.154 482.279 279.865C482.236 279.572 482.172 279.322 482.086 279.115C482 278.908 481.891 278.74 481.758 278.611C481.629 278.482 481.479 278.389 481.307 278.33C481.139 278.268 480.949 278.236 480.738 278.236C480.48 278.236 480.252 278.285 480.053 278.383C479.854 278.477 479.686 278.627 479.549 278.834C479.416 279.041 479.314 279.312 479.244 279.648C479.174 279.984 479.139 280.393 479.139 280.873V282.531C479.139 282.914 479.16 283.252 479.203 283.545C479.25 283.838 479.318 284.092 479.408 284.307C479.498 284.518 479.607 284.691 479.736 284.828C479.865 284.965 480.014 285.066 480.182 285.133C480.354 285.195 480.543 285.227 480.75 285.227C481.016 285.227 481.248 285.176 481.447 285.074C481.646 284.973 481.812 284.814 481.945 284.6C482.082 284.381 482.184 284.102 482.25 283.762C482.316 283.418 482.35 283.008 482.35 282.531Z" fill="black" fill-opacity="0.87"/>
<rect x="208" y="2" width="20" height="20" fill="#4FD1C5"/>
<path d="M240.317 14.125C240.317 13.8594 240.276 13.625 240.192 13.4219C240.114 13.2135 239.973 13.026 239.77 12.8594C239.572 12.6927 239.296 12.5339 238.942 12.3828C238.593 12.2318 238.151 12.0781 237.614 11.9219C237.052 11.7552 236.544 11.5703 236.091 11.3672C235.638 11.1589 235.249 10.9219 234.927 10.6562C234.604 10.3906 234.356 10.0859 234.184 9.74219C234.013 9.39844 233.927 9.00521 233.927 8.5625C233.927 8.11979 234.018 7.71094 234.2 7.33594C234.382 6.96094 234.643 6.63542 234.981 6.35938C235.325 6.07812 235.734 5.85938 236.208 5.70312C236.682 5.54688 237.21 5.46875 237.794 5.46875C238.648 5.46875 239.372 5.63281 239.966 5.96094C240.565 6.28385 241.02 6.70833 241.333 7.23438C241.645 7.75521 241.802 8.3125 241.802 8.90625H240.302C240.302 8.47917 240.21 8.10156 240.028 7.77344C239.846 7.4401 239.57 7.17969 239.2 6.99219C238.83 6.79948 238.361 6.70312 237.794 6.70312C237.257 6.70312 236.815 6.78385 236.466 6.94531C236.117 7.10677 235.856 7.32552 235.684 7.60156C235.518 7.8776 235.434 8.19271 235.434 8.54688C235.434 8.78646 235.484 9.00521 235.583 9.20312C235.687 9.39583 235.846 9.57552 236.059 9.74219C236.278 9.90885 236.554 10.0625 236.888 10.2031C237.226 10.3438 237.63 10.4792 238.098 10.6094C238.744 10.7917 239.302 10.9948 239.77 11.2188C240.239 11.4427 240.624 11.6953 240.927 11.9766C241.234 12.2526 241.46 12.5677 241.606 12.9219C241.757 13.2708 241.833 13.6667 241.833 14.1094C241.833 14.5729 241.739 14.9922 241.552 15.3672C241.364 15.7422 241.096 16.0625 240.747 16.3281C240.398 16.5938 239.979 16.7995 239.489 16.9453C239.005 17.0859 238.463 17.1562 237.864 17.1562C237.338 17.1562 236.82 17.0833 236.309 16.9375C235.804 16.7917 235.343 16.5729 234.927 16.2812C234.515 15.9896 234.184 15.6302 233.934 15.2031C233.69 14.7708 233.567 14.2708 233.567 13.7031H235.067C235.067 14.0938 235.143 14.4297 235.294 14.7109C235.445 14.987 235.651 15.2161 235.911 15.3984C236.177 15.5807 236.476 15.7161 236.809 15.8047C237.148 15.888 237.499 15.9297 237.864 15.9297C238.39 15.9297 238.835 15.8568 239.2 15.7109C239.565 15.5651 239.841 15.3568 240.028 15.0859C240.221 14.8151 240.317 14.4948 240.317 14.125ZM247.194 17.1562C246.605 17.1562 246.071 17.0573 245.592 16.8594C245.118 16.6562 244.709 16.3724 244.366 16.0078C244.027 15.6432 243.767 15.2109 243.584 14.7109C243.402 14.2109 243.311 13.6641 243.311 13.0703V12.7422C243.311 12.0547 243.413 11.4427 243.616 10.9062C243.819 10.3646 244.095 9.90625 244.444 9.53125C244.793 9.15625 245.189 8.8724 245.631 8.67969C246.074 8.48698 246.532 8.39062 247.006 8.39062C247.61 8.39062 248.131 8.49479 248.569 8.70312C249.011 8.91146 249.373 9.20312 249.655 9.57812C249.936 9.94792 250.144 10.3854 250.28 10.8906C250.415 11.3906 250.483 11.9375 250.483 12.5312V13.1797H244.17V12H249.038V11.8906C249.017 11.5156 248.939 11.151 248.803 10.7969C248.673 10.4427 248.465 10.151 248.178 9.92188C247.892 9.69271 247.501 9.57812 247.006 9.57812C246.678 9.57812 246.376 9.64844 246.1 9.78906C245.824 9.92448 245.587 10.1276 245.389 10.3984C245.191 10.6693 245.038 11 244.928 11.3906C244.819 11.7812 244.764 12.2318 244.764 12.7422V13.0703C244.764 13.4714 244.819 13.849 244.928 14.2031C245.043 14.5521 245.207 14.8594 245.42 15.125C245.639 15.3906 245.902 15.599 246.209 15.75C246.522 15.901 246.876 15.9766 247.272 15.9766C247.782 15.9766 248.215 15.8724 248.569 15.6641C248.923 15.4557 249.233 15.1771 249.498 14.8281L250.373 15.5234C250.191 15.7995 249.959 16.0625 249.678 16.3125C249.397 16.5625 249.051 16.7656 248.639 16.9219C248.233 17.0781 247.751 17.1562 247.194 17.1562ZM253.766 9.875V17H252.32V8.54688H253.727L253.766 9.875ZM256.406 8.5L256.398 9.84375C256.279 9.81771 256.164 9.80208 256.055 9.79688C255.951 9.78646 255.831 9.78125 255.695 9.78125C255.362 9.78125 255.068 9.83333 254.812 9.9375C254.557 10.0417 254.341 10.1875 254.164 10.375C253.987 10.5625 253.846 10.7865 253.742 11.0469C253.643 11.3021 253.578 11.5833 253.547 11.8906L253.141 12.125C253.141 11.6146 253.19 11.1354 253.289 10.6875C253.393 10.2396 253.552 9.84375 253.766 9.5C253.979 9.15104 254.25 8.88021 254.578 8.6875C254.911 8.48958 255.307 8.39062 255.766 8.39062C255.87 8.39062 255.99 8.40365 256.125 8.42969C256.26 8.45052 256.354 8.47396 256.406 8.5ZM259.463 8.54688V17H258.009V8.54688H259.463ZM257.9 6.30469C257.9 6.07031 257.97 5.8724 258.111 5.71094C258.257 5.54948 258.47 5.46875 258.752 5.46875C259.028 5.46875 259.239 5.54948 259.384 5.71094C259.535 5.8724 259.611 6.07031 259.611 6.30469C259.611 6.52865 259.535 6.72135 259.384 6.88281C259.239 7.03906 259.028 7.11719 258.752 7.11719C258.47 7.11719 258.257 7.03906 258.111 6.88281C257.97 6.72135 257.9 6.52865 257.9 6.30469ZM265.441 17.1562C264.852 17.1562 264.318 17.0573 263.839 16.8594C263.365 16.6562 262.956 16.3724 262.613 16.0078C262.274 15.6432 262.014 15.2109 261.831 14.7109C261.649 14.2109 261.558 13.6641 261.558 13.0703V12.7422C261.558 12.0547 261.659 11.4427 261.863 10.9062C262.066 10.3646 262.342 9.90625 262.691 9.53125C263.04 9.15625 263.435 8.8724 263.878 8.67969C264.321 8.48698 264.779 8.39062 265.253 8.39062C265.857 8.39062 266.378 8.49479 266.816 8.70312C267.258 8.91146 267.62 9.20312 267.902 9.57812C268.183 9.94792 268.391 10.3854 268.527 10.8906C268.662 11.3906 268.73 11.9375 268.73 12.5312V13.1797H262.417V12H267.284V11.8906C267.264 11.5156 267.185 11.151 267.05 10.7969C266.92 10.4427 266.711 10.151 266.425 9.92188C266.139 9.69271 265.748 9.57812 265.253 9.57812C264.925 9.57812 264.623 9.64844 264.347 9.78906C264.071 9.92448 263.834 10.1276 263.636 10.3984C263.438 10.6693 263.284 11 263.175 11.3906C263.066 11.7812 263.011 12.2318 263.011 12.7422V13.0703C263.011 13.4714 263.066 13.849 263.175 14.2031C263.29 14.5521 263.454 14.8594 263.667 15.125C263.886 15.3906 264.149 15.599 264.456 15.75C264.769 15.901 265.123 15.9766 265.519 15.9766C266.029 15.9766 266.461 15.8724 266.816 15.6641C267.17 15.4557 267.48 15.1771 267.745 14.8281L268.62 15.5234C268.438 15.7995 268.206 16.0625 267.925 16.3125C267.644 16.5625 267.297 16.7656 266.886 16.9219C266.48 17.0781 265.998 17.1562 265.441 17.1562ZM275.489 14.7578C275.489 14.5495 275.442 14.3568 275.348 14.1797C275.26 13.9974 275.075 13.8333 274.794 13.6875C274.518 13.5365 274.101 13.4062 273.544 13.2969C273.075 13.1979 272.651 13.0807 272.27 12.9453C271.895 12.8099 271.575 12.6458 271.309 12.4531C271.049 12.2604 270.848 12.0339 270.708 11.7734C270.567 11.513 270.497 11.2083 270.497 10.8594C270.497 10.526 270.57 10.2109 270.716 9.91406C270.867 9.61719 271.078 9.35417 271.348 9.125C271.624 8.89583 271.955 8.71615 272.341 8.58594C272.726 8.45573 273.156 8.39062 273.63 8.39062C274.307 8.39062 274.885 8.51042 275.364 8.75C275.843 8.98958 276.21 9.3099 276.466 9.71094C276.721 10.1068 276.848 10.5469 276.848 11.0312H275.403C275.403 10.7969 275.333 10.5703 275.192 10.3516C275.057 10.1276 274.856 9.94271 274.591 9.79688C274.33 9.65104 274.01 9.57812 273.63 9.57812C273.229 9.57812 272.903 9.64062 272.653 9.76562C272.408 9.88542 272.229 10.0391 272.114 10.2266C272.005 10.4141 271.95 10.612 271.95 10.8203C271.95 10.9766 271.976 11.1172 272.028 11.2422C272.085 11.362 272.184 11.474 272.325 11.5781C272.466 11.6771 272.664 11.7708 272.919 11.8594C273.174 11.9479 273.499 12.0365 273.895 12.125C274.588 12.2812 275.158 12.4688 275.606 12.6875C276.054 12.9062 276.388 13.1745 276.606 13.4922C276.825 13.8099 276.934 14.1953 276.934 14.6484C276.934 15.0182 276.856 15.3568 276.7 15.6641C276.549 15.9714 276.328 16.237 276.036 16.4609C275.749 16.6797 275.406 16.8516 275.005 16.9766C274.609 17.0964 274.164 17.1562 273.669 17.1562C272.924 17.1562 272.294 17.0234 271.778 16.7578C271.263 16.4922 270.872 16.1484 270.606 15.7266C270.341 15.3047 270.208 14.8594 270.208 14.3906H271.661C271.682 14.7865 271.796 15.1016 272.005 15.3359C272.213 15.5651 272.468 15.7292 272.77 15.8281C273.072 15.9219 273.372 15.9688 273.669 15.9688C274.065 15.9688 274.395 15.9167 274.661 15.8125C274.932 15.7083 275.138 15.5651 275.278 15.3828C275.419 15.2005 275.489 14.9922 275.489 14.7578ZM287.695 5.5625V17H286.25V7.36719L283.336 8.42969V7.125L287.469 5.5625H287.695Z" fill="black" fill-opacity="0.87"/>
</svg>
