<svg width="43" height="44" viewBox="0 0 43 44" fill="none" xmlns="http://www.w3.org/2000/svg">
<g filter="url(#filter0_d_321_1301)">
<rect x="6" y="2.10059" width="31.4623" height="32.4768" rx="12" fill="white"/>
</g>
<path d="M16.8335 22.2673L18.0085 21.0923L15.8585 18.9339L24.3335 18.9339L24.3335 17.2673L15.8585 17.2673L18.0085 15.1173L16.8335 13.9339L12.6668 18.1006L16.8335 22.2673ZM27.6668 23.9339L21.0002 23.9339L21.0002 25.6006L27.6668 25.6006C28.5835 25.6006 29.3335 24.8506 29.3335 23.9339L29.3335 12.2673C29.3335 11.3506 28.5835 10.6006 27.6668 10.6006L21.0002 10.6006L21.0002 12.2673L27.6668 12.2673L27.6668 23.9339Z" fill="#E53E3E"/>
<defs>
<filter id="filter0_d_321_1301" x="0.5" y="0.100586" width="42.4624" height="43.4768" filterUnits="userSpaceOnUse" color-interpolation-filters="sRGB">
<feFlood flood-opacity="0" result="BackgroundImageFix"/>
<feColorMatrix in="SourceAlpha" type="matrix" values="0 0 0 0 0 0 0 0 0 0 0 0 0 0 0 0 0 0 127 0" result="hardAlpha"/>
<feOffset dy="3.5"/>
<feGaussianBlur stdDeviation="2.75"/>
<feColorMatrix type="matrix" values="0 0 0 0 0 0 0 0 0 0 0 0 0 0 0 0 0 0 0.02 0"/>
<feBlend mode="normal" in2="BackgroundImageFix" result="effect1_dropShadow_321_1301"/>
<feBlend mode="normal" in="SourceGraphic" in2="effect1_dropShadow_321_1301" result="shape"/>
</filter>
</defs>
</svg>
