<svg width="48" height="48" viewBox="0 0 48 48" fill="none" xmlns="http://www.w3.org/2000/svg">
<rect width="48" height="48" rx="24" fill="#4FD1C5"/>
<rect x="0.5" y="0.5" width="47" height="47" rx="23.5" stroke="#496E4B" stroke-opacity="0.2"/>
<path d="M31.5 16.5H24.75V14.7701C24.9753 14.6426 25.1631 14.4582 25.2947 14.2353C25.4263 14.0124 25.4971 13.7588 25.5 13.5C25.5 13.1022 25.342 12.7206 25.0607 12.4393C24.7794 12.158 24.3978 12 24 12C23.6022 12 23.2206 12.158 22.9393 12.4393C22.658 12.7206 22.5 13.1022 22.5 13.5C22.5029 13.7588 22.5737 14.0124 22.7053 14.2353C22.8369 14.4582 23.0247 14.6426 23.25 14.7701V16.5H16.5C15.7046 16.5008 14.942 16.8171 14.3796 17.3796C13.8171 17.942 13.5008 18.7046 13.5 19.5V30C13.5008 30.7954 13.8171 31.558 14.3796 32.1204C14.942 32.6829 15.7046 32.9992 16.5 33H18V36.75C18 36.8983 18.044 37.0433 18.1264 37.1666C18.2088 37.2899 18.326 37.3861 18.463 37.4428C18.6 37.4996 18.7508 37.5144 18.8963 37.4855C19.0418 37.4566 19.1754 37.3851 19.2803 37.2803L23.5605 33H31.5C32.2954 32.9992 33.058 32.6829 33.6204 32.1204C34.1829 31.558 34.4992 30.7954 34.5 30V19.5C34.4992 18.7046 34.1829 17.942 33.6204 17.3796C33.058 16.8171 32.2954 16.5008 31.5 16.5ZM33 30C32.9995 30.3977 32.8413 30.7789 32.5601 31.0601C32.2789 31.3413 31.8977 31.4995 31.5 31.5H23.25C23.1515 31.5 23.054 31.5194 22.963 31.5571C22.872 31.5948 22.7893 31.65 22.7197 31.7197L19.5 34.9395V32.25C19.5001 32.1515 19.4807 32.0539 19.443 31.9629C19.4054 31.8719 19.3501 31.7892 19.2805 31.7195C19.2108 31.6499 19.1281 31.5946 19.0371 31.557C18.9461 31.5193 18.8485 31.4999 18.75 31.5H16.5C16.1023 31.4995 15.7211 31.3413 15.4399 31.0601C15.1587 30.7789 15.0005 30.3977 15 30V19.5C15.0005 19.1023 15.1587 18.7211 15.4399 18.4399C15.7211 18.1587 16.1023 18.0005 16.5 18H31.5C31.8977 18.0005 32.2789 18.1587 32.5601 18.4399C32.8413 18.7211 32.9995 19.1023 33 19.5V30ZM19.5 25.5C19.2033 25.5 18.9133 25.412 18.6666 25.2472C18.42 25.0824 18.2277 24.8481 18.1142 24.574C18.0006 24.2999 17.9709 23.9983 18.0288 23.7074C18.0867 23.4164 18.2296 23.1491 18.4393 22.9393C18.6491 22.7296 18.9164 22.5867 19.2074 22.5288C19.4983 22.4709 19.7999 22.5006 20.074 22.6142C20.3481 22.7277 20.5824 22.92 20.7472 23.1666C20.912 23.4133 21 23.7033 21 24C21 24.3978 20.842 24.7794 20.5607 25.0607C20.2794 25.342 19.8978 25.5 19.5 25.5ZM30 24C30 24.2967 29.912 24.5867 29.7472 24.8334C29.5824 25.08 29.3481 25.2723 29.074 25.3858C28.7999 25.4994 28.4983 25.5291 28.2074 25.4712C27.9164 25.4133 27.6491 25.2704 27.4393 25.0607C27.2296 24.8509 27.0867 24.5836 27.0288 24.2926C26.9709 24.0017 27.0006 23.7001 27.1142 23.426C27.2277 23.1519 27.42 22.9176 27.6666 22.7528C27.9133 22.588 28.2033 22.5 28.5 22.5C28.8978 22.5 29.2794 22.658 29.5607 22.9393C29.842 23.2206 30 23.6022 30 24ZM28.3931 27.3428C28.4954 27.5133 28.5258 27.7175 28.4776 27.9105C28.4294 28.1035 28.3065 28.2694 28.136 28.3718C26.8877 29.1246 25.4577 29.5224 24 29.5224C22.5423 29.5224 21.1123 29.1246 19.864 28.3718C19.7796 28.3211 19.7059 28.2543 19.6473 28.1751C19.5887 28.096 19.5462 28.0061 19.5224 27.9105C19.4985 27.8149 19.4937 27.7156 19.5082 27.6182C19.5227 27.5208 19.5562 27.4272 19.6069 27.3427C19.6576 27.2583 19.7244 27.1846 19.8036 27.126C19.8827 27.0674 19.9727 27.0249 20.0682 27.0011C20.1638 26.9772 20.2631 26.9724 20.3605 26.9869C20.4579 27.0014 20.5515 27.035 20.636 27.0857C21.6548 27.6876 22.8166 28.0052 24 28.0052C25.1834 28.0052 26.3452 27.6876 27.364 27.0857C27.4485 27.0349 27.5421 27.0013 27.6395 26.9868C27.7369 26.9722 27.8363 26.9771 27.9318 27.0009C28.0274 27.0248 28.1173 27.0673 28.1965 27.126C28.2756 27.1846 28.3424 27.2583 28.3931 27.3428Z" fill="white"/>
<circle cx="33.5453" cy="17.1516" r="3.93939" fill="white"/>
<path d="M34.5 11.5232V11.5H34C32.9122 11.5 31.8488 11.8226 30.9444 12.4269C30.0399 13.0313 29.3349 13.8902 28.9187 14.8952C28.5024 15.9002 28.3935 17.0061 28.6057 18.073C28.8179 19.1399 29.3417 20.1199 30.1109 20.8891C30.8801 21.6583 31.8601 22.1821 32.927 22.3943C33.9939 22.6065 35.0998 22.4976 36.1048 22.0813C37.1098 21.6651 37.9687 20.9601 38.5731 20.0556C39.1774 19.1512 39.5 18.0878 39.5 17V16.9995C39.4984 15.5414 38.9185 14.1435 37.8875 13.1125C36.9749 12.1999 35.7748 11.6407 34.5 11.5232ZM34.1042 14.5833C34.1289 14.5833 34.1531 14.5907 34.1736 14.6044C34.1942 14.6181 34.2102 14.6377 34.2197 14.6605C34.2291 14.6833 34.2316 14.7085 34.2268 14.7327C34.2219 14.757 34.21 14.7792 34.1926 14.7967C34.1751 14.8142 34.1528 14.8261 34.1286 14.8309C34.1043 14.8358 34.0792 14.8333 34.0563 14.8238C34.0335 14.8144 34.014 14.7983 34.0002 14.7778C33.9865 14.7572 33.9792 14.7331 33.9792 14.7083C33.9792 14.6752 33.9923 14.6434 34.0158 14.6199C34.0392 14.5965 34.071 14.5833 34.1042 14.5833ZM34.302 19.198C34.3054 19.2015 34.3089 19.2049 34.3125 19.2083H34.1042C34.1077 19.2049 34.1112 19.2015 34.1147 19.198C34.1512 19.1615 34.1826 19.1208 34.2083 19.077C34.2341 19.1208 34.2654 19.1615 34.302 19.198Z" fill="#4FD1C5" stroke="white"/>
</svg>
