<svg width="401" height="245" viewBox="0 0 401 245" fill="none" xmlns="http://www.w3.org/2000/svg">
<mask id="path-1-outside-1_121_1268" maskUnits="userSpaceOnUse" x="102.873" y="5.15284" width="119.96" height="119.16" fill="black">
<rect fill="white" x="102.873" y="5.15284" width="119.96" height="119.16"/>
<path d="M221.667 104.623C217.201 80.6881 204.157 59.2046 184.98 44.2021C165.803 29.1996 141.812 21.709 117.506 23.1351L123.363 122.963L221.667 104.623Z"/>
</mask>
<path d="M221.667 104.623C217.201 80.6881 204.157 59.2046 184.98 44.2021C165.803 29.1996 141.812 21.709 117.506 23.1351L123.363 122.963L221.667 104.623Z" fill="#02B2AF"/>
<path d="M221.667 104.623C217.201 80.6881 204.157 59.2046 184.98 44.2021C165.803 29.1996 141.812 21.709 117.506 23.1351L123.363 122.963L221.667 104.623Z" stroke="white" stroke-width="2" mask="url(#path-1-outside-1_121_1268)"/>
<mask id="path-2-outside-2_121_1268" maskUnits="userSpaceOnUse" x="15.5392" y="21.6922" width="113.856" height="203.424" fill="black">
<rect fill="white" x="15.5392" y="21.6922" width="113.856" height="203.424"/>
<path d="M117.437 22.7463C93.75 24.0661 71.3038 33.7642 54.1081 50.1079C36.9123 66.4517 26.0872 88.3765 23.5665 111.966C21.0457 135.555 26.9935 159.272 40.3474 178.881C53.7013 198.489 73.5914 212.711 96.4645 219.006L123 122.591L117.437 22.7463Z"/>
</mask>
<path d="M117.437 22.7463C93.75 24.0661 71.3038 33.7642 54.1081 50.1079C36.9123 66.4517 26.0872 88.3765 23.5665 111.966C21.0457 135.555 26.9935 159.272 40.3474 178.881C53.7013 198.489 73.5914 212.711 96.4645 219.006L123 122.591L117.437 22.7463Z" fill="#041039"/>
<path d="M117.437 22.7463C93.75 24.0661 71.3038 33.7642 54.1081 50.1079C36.9123 66.4517 26.0872 88.3765 23.5665 111.966C21.0457 135.555 26.9935 159.272 40.3474 178.881C53.7013 198.489 73.5914 212.711 96.4645 219.006L123 122.591L117.437 22.7463Z" stroke="white" stroke-width="2" mask="url(#path-2-outside-2_121_1268)"/>
<mask id="path-3-outside-3_121_1268" maskUnits="userSpaceOnUse" x="72.2623" y="94.4019" width="174.445" height="139.09" fill="black">
<rect fill="white" x="72.2623" y="94.4019" width="174.445" height="139.09"/>
<path d="M96.9242 219.013C113.293 223.435 130.517 223.623 146.978 219.559C163.439 215.495 178.597 207.312 191.026 195.779C203.455 184.246 212.748 169.743 218.031 153.631C223.313 137.519 224.413 120.329 221.225 103.676L123.008 122.474L96.9242 219.013Z"/>
</mask>
<path d="M96.9242 219.013C113.293 223.435 130.517 223.623 146.978 219.559C163.439 215.495 178.597 207.312 191.026 195.779C203.455 184.246 212.748 169.743 218.031 153.631C223.313 137.519 224.413 120.329 221.225 103.676L123.008 122.474L96.9242 219.013Z" fill="#2E96FF"/>
<path d="M96.9242 219.013C113.293 223.435 130.517 223.623 146.978 219.559C163.439 215.495 178.597 207.312 191.026 195.779C203.455 184.246 212.748 169.743 218.031 153.631C223.313 137.519 224.413 120.329 221.225 103.676L123.008 122.474L96.9242 219.013Z" stroke="white" stroke-width="2" mask="url(#path-3-outside-3_121_1268)"/>
<path d="M156.098 78.8125V80H148.653V78.9609L152.38 74.8125C152.838 74.3021 153.192 73.8698 153.442 73.5156C153.697 73.1562 153.874 72.8359 153.973 72.5547C154.078 72.2682 154.13 71.9766 154.13 71.6797C154.13 71.3047 154.052 70.9661 153.895 70.6641C153.744 70.3568 153.52 70.112 153.223 69.9297C152.927 69.7474 152.567 69.6562 152.145 69.6562C151.64 69.6562 151.218 69.7552 150.88 69.9531C150.546 70.1458 150.296 70.4167 150.13 70.7656C149.963 71.1146 149.88 71.5156 149.88 71.9688H148.434C148.434 71.3281 148.575 70.7422 148.856 70.2109C149.138 69.6797 149.554 69.2578 150.106 68.9453C150.658 68.6276 151.338 68.4688 152.145 68.4688C152.864 68.4688 153.479 68.5964 153.989 68.8516C154.499 69.1016 154.89 69.4557 155.161 69.9141C155.437 70.3672 155.575 70.8984 155.575 71.5078C155.575 71.8411 155.518 72.1797 155.403 72.5234C155.294 72.862 155.14 73.2005 154.942 73.5391C154.749 73.8776 154.523 74.2109 154.263 74.5391C154.007 74.8672 153.734 75.1901 153.442 75.5078L150.395 78.8125H156.098ZM159.623 74.5859L158.467 74.2891L159.038 68.625H164.873V69.9609H160.264L159.92 73.0547C160.129 72.9349 160.392 72.8229 160.709 72.7188C161.032 72.6146 161.402 72.5625 161.819 72.5625C162.345 72.5625 162.816 72.6536 163.233 72.8359C163.649 73.013 164.004 73.2682 164.295 73.6016C164.592 73.9349 164.819 74.3359 164.975 74.8047C165.131 75.2734 165.209 75.7969 165.209 76.375C165.209 76.9219 165.134 77.4245 164.983 77.8828C164.837 78.3411 164.616 78.7422 164.319 79.0859C164.022 79.4245 163.647 79.6875 163.194 79.875C162.746 80.0625 162.217 80.1562 161.608 80.1562C161.149 80.1562 160.715 80.0938 160.303 79.9688C159.897 79.8385 159.532 79.6432 159.209 79.3828C158.892 79.1172 158.631 78.7891 158.428 78.3984C158.23 78.0026 158.105 77.5391 158.053 77.0078H159.428C159.491 77.4349 159.616 77.7943 159.803 78.0859C159.991 78.3776 160.235 78.599 160.538 78.75C160.845 78.8958 161.202 78.9688 161.608 78.9688C161.952 78.9688 162.256 78.9089 162.522 78.7891C162.788 78.6693 163.011 78.4974 163.194 78.2734C163.376 78.0495 163.514 77.7786 163.608 77.4609C163.707 77.1432 163.756 76.7865 163.756 76.3906C163.756 76.0312 163.707 75.6979 163.608 75.3906C163.509 75.0833 163.36 74.8151 163.163 74.5859C162.97 74.3568 162.733 74.1797 162.452 74.0547C162.17 73.9245 161.847 73.8594 161.483 73.8594C160.998 73.8594 160.631 73.9245 160.381 74.0547C160.136 74.1849 159.884 74.362 159.623 74.5859ZM166.82 71.4141V70.8125C166.82 70.3802 166.914 69.987 167.102 69.6328C167.289 69.2786 167.557 68.9948 167.906 68.7812C168.255 68.5677 168.669 68.4609 169.148 68.4609C169.638 68.4609 170.055 68.5677 170.398 68.7812C170.747 68.9948 171.016 69.2786 171.203 69.6328C171.391 69.987 171.484 70.3802 171.484 70.8125V71.4141C171.484 71.8359 171.391 72.224 171.203 72.5781C171.021 72.9323 170.755 73.2161 170.406 73.4297C170.062 73.6432 169.648 73.75 169.164 73.75C168.68 73.75 168.26 73.6432 167.906 73.4297C167.557 73.2161 167.289 72.9323 167.102 72.5781C166.914 72.224 166.82 71.8359 166.82 71.4141ZM167.906 70.8125V71.4141C167.906 71.6536 167.951 71.8802 168.039 72.0938C168.133 72.3073 168.273 72.4818 168.461 72.6172C168.648 72.7474 168.883 72.8125 169.164 72.8125C169.445 72.8125 169.677 72.7474 169.859 72.6172C170.042 72.4818 170.177 72.3073 170.266 72.0938C170.354 71.8802 170.398 71.6536 170.398 71.4141V70.8125C170.398 70.5677 170.352 70.3385 170.258 70.125C170.169 69.9062 170.031 69.7318 169.844 69.6016C169.661 69.4661 169.43 69.3984 169.148 69.3984C168.872 69.3984 168.641 69.4661 168.453 69.6016C168.271 69.7318 168.133 69.9062 168.039 70.125C167.951 70.3385 167.906 70.5677 167.906 70.8125ZM172.359 77.8203V77.2109C172.359 76.7839 172.453 76.3932 172.641 76.0391C172.828 75.6849 173.096 75.401 173.445 75.1875C173.794 74.974 174.208 74.8672 174.688 74.8672C175.177 74.8672 175.594 74.974 175.938 75.1875C176.286 75.401 176.555 75.6849 176.742 76.0391C176.93 76.3932 177.023 76.7839 177.023 77.2109V77.8203C177.023 78.2474 176.93 78.638 176.742 78.9922C176.56 79.3464 176.294 79.6302 175.945 79.8438C175.602 80.0573 175.188 80.1641 174.703 80.1641C174.219 80.1641 173.802 80.0573 173.453 79.8438C173.104 79.6302 172.833 79.3464 172.641 78.9922C172.453 78.638 172.359 78.2474 172.359 77.8203ZM173.445 77.2109V77.8203C173.445 78.0599 173.49 78.2891 173.578 78.5078C173.672 78.7214 173.812 78.8958 174 79.0312C174.188 79.1615 174.422 79.2266 174.703 79.2266C174.984 79.2266 175.216 79.1615 175.398 79.0312C175.586 78.8958 175.724 78.7214 175.812 78.5078C175.901 78.2943 175.945 78.0651 175.945 77.8203V77.2109C175.945 76.9661 175.898 76.737 175.805 76.5234C175.716 76.3099 175.578 76.138 175.391 76.0078C175.208 75.8724 174.974 75.8047 174.688 75.8047C174.411 75.8047 174.18 75.8724 173.992 76.0078C173.81 76.138 173.672 76.3099 173.578 76.5234C173.49 76.737 173.445 76.9661 173.445 77.2109ZM175.047 70.2422L169.492 79.1328L168.68 78.6172L174.234 69.7266L175.047 70.2422Z" fill="white"/>
<path d="M146.755 164.602H147.786C148.291 164.602 148.708 164.518 149.036 164.352C149.369 164.18 149.617 163.948 149.778 163.656C149.945 163.359 150.028 163.026 150.028 162.656C150.028 162.219 149.955 161.852 149.809 161.555C149.664 161.258 149.445 161.034 149.153 160.883C148.861 160.732 148.492 160.656 148.044 160.656C147.638 160.656 147.278 160.737 146.966 160.898C146.658 161.055 146.416 161.279 146.239 161.57C146.067 161.862 145.981 162.206 145.981 162.602H144.536C144.536 162.023 144.682 161.497 144.973 161.023C145.265 160.549 145.674 160.172 146.2 159.891C146.731 159.609 147.346 159.469 148.044 159.469C148.731 159.469 149.333 159.591 149.848 159.836C150.364 160.076 150.765 160.435 151.052 160.914C151.338 161.388 151.481 161.979 151.481 162.688C151.481 162.974 151.414 163.281 151.278 163.609C151.148 163.932 150.942 164.234 150.661 164.516C150.385 164.797 150.026 165.029 149.583 165.211C149.14 165.388 148.609 165.477 147.989 165.477H146.755V164.602ZM146.755 165.789V164.922H147.989C148.713 164.922 149.312 165.008 149.786 165.18C150.26 165.352 150.632 165.581 150.903 165.867C151.179 166.154 151.372 166.469 151.481 166.812C151.596 167.151 151.653 167.49 151.653 167.828C151.653 168.359 151.562 168.831 151.38 169.242C151.203 169.654 150.95 170.003 150.622 170.289C150.299 170.576 149.919 170.792 149.481 170.938C149.044 171.083 148.567 171.156 148.052 171.156C147.557 171.156 147.091 171.086 146.653 170.945C146.221 170.805 145.838 170.602 145.505 170.336C145.171 170.065 144.911 169.734 144.723 169.344C144.536 168.948 144.442 168.497 144.442 167.992H145.888C145.888 168.388 145.973 168.734 146.145 169.031C146.322 169.328 146.572 169.56 146.895 169.727C147.223 169.888 147.609 169.969 148.052 169.969C148.494 169.969 148.874 169.893 149.192 169.742C149.515 169.586 149.763 169.352 149.934 169.039C150.111 168.727 150.2 168.333 150.2 167.859C150.2 167.385 150.101 166.997 149.903 166.695C149.705 166.388 149.424 166.161 149.059 166.016C148.7 165.865 148.276 165.789 147.786 165.789H146.755ZM160.936 164.406V166.141C160.936 167.073 160.853 167.859 160.686 168.5C160.519 169.141 160.28 169.656 159.967 170.047C159.655 170.438 159.277 170.721 158.834 170.898C158.397 171.07 157.902 171.156 157.35 171.156C156.913 171.156 156.509 171.102 156.139 170.992C155.769 170.883 155.436 170.708 155.139 170.469C154.847 170.224 154.597 169.906 154.389 169.516C154.181 169.125 154.022 168.651 153.913 168.094C153.803 167.536 153.748 166.885 153.748 166.141V164.406C153.748 163.474 153.832 162.693 153.998 162.062C154.17 161.432 154.413 160.927 154.725 160.547C155.038 160.161 155.413 159.885 155.85 159.719C156.293 159.552 156.788 159.469 157.334 159.469C157.777 159.469 158.183 159.523 158.553 159.633C158.928 159.737 159.261 159.906 159.553 160.141C159.845 160.37 160.092 160.677 160.295 161.062C160.504 161.443 160.663 161.909 160.772 162.461C160.881 163.013 160.936 163.661 160.936 164.406ZM159.483 166.375V164.164C159.483 163.654 159.452 163.206 159.389 162.82C159.332 162.43 159.246 162.096 159.131 161.82C159.017 161.544 158.871 161.32 158.694 161.148C158.522 160.977 158.321 160.852 158.092 160.773C157.868 160.69 157.616 160.648 157.334 160.648C156.991 160.648 156.686 160.714 156.42 160.844C156.155 160.969 155.931 161.169 155.748 161.445C155.571 161.721 155.436 162.083 155.342 162.531C155.248 162.979 155.202 163.523 155.202 164.164V166.375C155.202 166.885 155.23 167.336 155.288 167.727C155.35 168.117 155.441 168.456 155.561 168.742C155.681 169.023 155.827 169.255 155.998 169.438C156.17 169.62 156.368 169.755 156.592 169.844C156.821 169.927 157.074 169.969 157.35 169.969C157.704 169.969 158.014 169.901 158.28 169.766C158.545 169.63 158.767 169.419 158.944 169.133C159.126 168.841 159.261 168.469 159.35 168.016C159.439 167.557 159.483 167.01 159.483 166.375ZM162.82 162.414V161.812C162.82 161.38 162.914 160.987 163.102 160.633C163.289 160.279 163.557 159.995 163.906 159.781C164.255 159.568 164.669 159.461 165.148 159.461C165.638 159.461 166.055 159.568 166.398 159.781C166.747 159.995 167.016 160.279 167.203 160.633C167.391 160.987 167.484 161.38 167.484 161.812V162.414C167.484 162.836 167.391 163.224 167.203 163.578C167.021 163.932 166.755 164.216 166.406 164.43C166.062 164.643 165.648 164.75 165.164 164.75C164.68 164.75 164.26 164.643 163.906 164.43C163.557 164.216 163.289 163.932 163.102 163.578C162.914 163.224 162.82 162.836 162.82 162.414ZM163.906 161.812V162.414C163.906 162.654 163.951 162.88 164.039 163.094C164.133 163.307 164.273 163.482 164.461 163.617C164.648 163.747 164.883 163.812 165.164 163.812C165.445 163.812 165.677 163.747 165.859 163.617C166.042 163.482 166.177 163.307 166.266 163.094C166.354 162.88 166.398 162.654 166.398 162.414V161.812C166.398 161.568 166.352 161.339 166.258 161.125C166.169 160.906 166.031 160.732 165.844 160.602C165.661 160.466 165.43 160.398 165.148 160.398C164.872 160.398 164.641 160.466 164.453 160.602C164.271 160.732 164.133 160.906 164.039 161.125C163.951 161.339 163.906 161.568 163.906 161.812ZM168.359 168.82V168.211C168.359 167.784 168.453 167.393 168.641 167.039C168.828 166.685 169.096 166.401 169.445 166.188C169.794 165.974 170.208 165.867 170.688 165.867C171.177 165.867 171.594 165.974 171.938 166.188C172.286 166.401 172.555 166.685 172.742 167.039C172.93 167.393 173.023 167.784 173.023 168.211V168.82C173.023 169.247 172.93 169.638 172.742 169.992C172.56 170.346 172.294 170.63 171.945 170.844C171.602 171.057 171.188 171.164 170.703 171.164C170.219 171.164 169.802 171.057 169.453 170.844C169.104 170.63 168.833 170.346 168.641 169.992C168.453 169.638 168.359 169.247 168.359 168.82ZM169.445 168.211V168.82C169.445 169.06 169.49 169.289 169.578 169.508C169.672 169.721 169.812 169.896 170 170.031C170.188 170.161 170.422 170.227 170.703 170.227C170.984 170.227 171.216 170.161 171.398 170.031C171.586 169.896 171.724 169.721 171.812 169.508C171.901 169.294 171.945 169.065 171.945 168.82V168.211C171.945 167.966 171.898 167.737 171.805 167.523C171.716 167.31 171.578 167.138 171.391 167.008C171.208 166.872 170.974 166.805 170.688 166.805C170.411 166.805 170.18 166.872 169.992 167.008C169.81 167.138 169.672 167.31 169.578 167.523C169.49 167.737 169.445 167.966 169.445 168.211ZM171.047 161.242L165.492 170.133L164.68 169.617L170.234 160.727L171.047 161.242Z" fill="white"/>
<path d="M64.3328 118.172V119.359H56.1141V118.508L61.2078 110.625H62.3875L61.1219 112.906L57.7547 118.172H64.3328ZM62.7469 110.625V122H61.3016V110.625H62.7469ZM67.6234 116.586L66.4672 116.289L67.0375 110.625H72.8734V111.961H68.2641L67.9203 115.055C68.1286 114.935 68.3917 114.823 68.7094 114.719C69.0323 114.615 69.4021 114.562 69.8188 114.562C70.3448 114.562 70.8161 114.654 71.2328 114.836C71.6495 115.013 72.0036 115.268 72.2953 115.602C72.5922 115.935 72.8188 116.336 72.975 116.805C73.1313 117.273 73.2094 117.797 73.2094 118.375C73.2094 118.922 73.1339 119.424 72.9828 119.883C72.837 120.341 72.6156 120.742 72.3188 121.086C72.0219 121.424 71.6469 121.688 71.1938 121.875C70.7458 122.062 70.2172 122.156 69.6078 122.156C69.1495 122.156 68.7146 122.094 68.3031 121.969C67.8969 121.839 67.5323 121.643 67.2094 121.383C66.8917 121.117 66.6313 120.789 66.4281 120.398C66.2302 120.003 66.1052 119.539 66.0531 119.008H67.4281C67.4906 119.435 67.6156 119.794 67.8031 120.086C67.9906 120.378 68.2354 120.599 68.5375 120.75C68.8448 120.896 69.2016 120.969 69.6078 120.969C69.9516 120.969 70.2563 120.909 70.5219 120.789C70.7875 120.669 71.0115 120.497 71.1938 120.273C71.376 120.049 71.5141 119.779 71.6078 119.461C71.7068 119.143 71.7563 118.786 71.7563 118.391C71.7563 118.031 71.7068 117.698 71.6078 117.391C71.5089 117.083 71.3604 116.815 71.1625 116.586C70.9698 116.357 70.7328 116.18 70.4516 116.055C70.1703 115.924 69.8474 115.859 69.4828 115.859C68.9984 115.859 68.6313 115.924 68.3813 116.055C68.1365 116.185 67.8839 116.362 67.6234 116.586ZM74.8203 113.414V112.812C74.8203 112.38 74.9141 111.987 75.1016 111.633C75.2891 111.279 75.5573 110.995 75.9062 110.781C76.2552 110.568 76.6693 110.461 77.1484 110.461C77.638 110.461 78.0547 110.568 78.3984 110.781C78.7474 110.995 79.0156 111.279 79.2031 111.633C79.3906 111.987 79.4844 112.38 79.4844 112.812V113.414C79.4844 113.836 79.3906 114.224 79.2031 114.578C79.0208 114.932 78.7552 115.216 78.4062 115.43C78.0625 115.643 77.6484 115.75 77.1641 115.75C76.6797 115.75 76.2604 115.643 75.9062 115.43C75.5573 115.216 75.2891 114.932 75.1016 114.578C74.9141 114.224 74.8203 113.836 74.8203 113.414ZM75.9062 112.812V113.414C75.9062 113.654 75.9505 113.88 76.0391 114.094C76.1328 114.307 76.2734 114.482 76.4609 114.617C76.6484 114.747 76.8828 114.812 77.1641 114.812C77.4453 114.812 77.6771 114.747 77.8594 114.617C78.0417 114.482 78.1771 114.307 78.2656 114.094C78.3542 113.88 78.3984 113.654 78.3984 113.414V112.812C78.3984 112.568 78.3516 112.339 78.2578 112.125C78.1693 111.906 78.0312 111.732 77.8438 111.602C77.6615 111.466 77.4297 111.398 77.1484 111.398C76.8724 111.398 76.6406 111.466 76.4531 111.602C76.2708 111.732 76.1328 111.906 76.0391 112.125C75.9505 112.339 75.9062 112.568 75.9062 112.812ZM80.3594 119.82V119.211C80.3594 118.784 80.4531 118.393 80.6406 118.039C80.8281 117.685 81.0964 117.401 81.4453 117.188C81.7943 116.974 82.2083 116.867 82.6875 116.867C83.1771 116.867 83.5938 116.974 83.9375 117.188C84.2865 117.401 84.5547 117.685 84.7422 118.039C84.9297 118.393 85.0234 118.784 85.0234 119.211V119.82C85.0234 120.247 84.9297 120.638 84.7422 120.992C84.5599 121.346 84.2943 121.63 83.9453 121.844C83.6016 122.057 83.1875 122.164 82.7031 122.164C82.2188 122.164 81.8021 122.057 81.4531 121.844C81.1042 121.63 80.8333 121.346 80.6406 120.992C80.4531 120.638 80.3594 120.247 80.3594 119.82ZM81.4453 119.211V119.82C81.4453 120.06 81.4896 120.289 81.5781 120.508C81.6719 120.721 81.8125 120.896 82 121.031C82.1875 121.161 82.4219 121.227 82.7031 121.227C82.9844 121.227 83.2161 121.161 83.3984 121.031C83.5859 120.896 83.724 120.721 83.8125 120.508C83.901 120.294 83.9453 120.065 83.9453 119.82V119.211C83.9453 118.966 83.8984 118.737 83.8047 118.523C83.7161 118.31 83.5781 118.138 83.3906 118.008C83.2083 117.872 82.974 117.805 82.6875 117.805C82.4115 117.805 82.1797 117.872 81.9922 118.008C81.8099 118.138 81.6719 118.31 81.5781 118.523C81.4896 118.737 81.4453 118.966 81.4453 119.211ZM83.0469 112.242L77.4922 121.133L76.6797 120.617L82.2344 111.727L83.0469 112.242Z" fill="white"/>
<rect x="290.668" y="64.4745" width="20" height="20" fill="#041039"/>
<path d="M318.009 76.7714C318.045 77.4224 318.199 77.951 318.47 78.3573C318.985 79.1177 319.894 79.4979 321.196 79.4979C321.779 79.4979 322.311 79.4146 322.79 79.2479C323.717 78.925 324.18 78.3469 324.18 77.5135C324.18 76.8885 323.985 76.4432 323.595 76.1776C323.199 75.9172 322.579 75.6906 321.735 75.4979L320.18 75.1464C319.165 74.9172 318.446 74.6646 318.024 74.3885C317.295 73.9094 316.93 73.1932 316.93 72.2401C316.93 71.2089 317.287 70.3625 318.001 69.701C318.714 69.0396 319.725 68.7089 321.032 68.7089C322.235 68.7089 323.256 69.0005 324.095 69.5839C324.938 70.162 325.36 71.0891 325.36 72.3651H323.899C323.821 71.7505 323.654 71.2792 323.399 70.951C322.925 70.3521 322.121 70.0526 320.985 70.0526C320.068 70.0526 319.41 70.2453 319.009 70.6307C318.608 71.0162 318.407 71.4641 318.407 71.9745C318.407 72.537 318.641 72.9484 319.11 73.2089C319.417 73.3755 320.113 73.5839 321.196 73.8339L322.805 74.201C323.582 74.3781 324.18 74.6203 324.602 74.9276C325.332 75.4641 325.696 76.2427 325.696 77.2635C325.696 78.5344 325.233 79.4432 324.305 79.9901C323.384 80.537 322.311 80.8104 321.087 80.8104C319.66 80.8104 318.542 80.4458 317.735 79.7167C316.928 78.9927 316.532 78.0109 316.548 76.7714H318.009ZM328.705 78.2479C328.705 78.6542 328.854 78.9745 329.151 79.2089C329.448 79.4432 329.799 79.5604 330.205 79.5604C330.7 79.5604 331.179 79.4458 331.643 79.2167C332.424 78.8365 332.815 78.2141 332.815 77.3495V76.2167C332.643 76.326 332.422 76.4172 332.151 76.4901C331.88 76.563 331.614 76.6151 331.354 76.6464L330.502 76.7557C329.992 76.8234 329.609 76.9302 329.354 77.076C328.922 77.3208 328.705 77.7115 328.705 78.2479ZM332.112 75.4042C332.435 75.3625 332.651 75.2271 332.76 74.9979C332.823 74.8729 332.854 74.6932 332.854 74.4589C332.854 73.9797 332.682 73.6333 332.338 73.4198C332 73.201 331.513 73.0917 330.877 73.0917C330.143 73.0917 329.622 73.2896 329.315 73.6854C329.143 73.9042 329.031 74.2297 328.979 74.662H327.666C327.692 73.6307 328.026 72.9146 328.666 72.5135C329.312 72.1073 330.06 71.9042 330.909 71.9042C331.893 71.9042 332.692 72.0917 333.307 72.4667C333.916 72.8417 334.221 73.425 334.221 74.2167V79.037C334.221 79.1828 334.25 79.3 334.307 79.3885C334.37 79.4771 334.497 79.5214 334.69 79.5214C334.752 79.5214 334.823 79.5188 334.901 79.5135C334.979 79.5031 335.062 79.4901 335.151 79.4745V80.5135C334.932 80.576 334.765 80.6151 334.651 80.6307C334.536 80.6464 334.38 80.6542 334.182 80.6542C333.698 80.6542 333.346 80.4823 333.127 80.1385C333.013 79.9563 332.932 79.6984 332.885 79.3651C332.599 79.7401 332.187 80.0656 331.651 80.3417C331.114 80.6177 330.523 80.7557 329.877 80.7557C329.101 80.7557 328.466 80.5214 327.971 80.0526C327.482 79.5787 327.237 78.9875 327.237 78.2792C327.237 77.5031 327.479 76.9016 327.963 76.4745C328.448 76.0474 329.083 75.7844 329.87 75.6854L332.112 75.4042ZM336.723 68.9979H338.129V80.4745H336.723V68.9979ZM341.474 78.2479C341.474 78.6542 341.623 78.9745 341.92 79.2089C342.216 79.4432 342.568 79.5604 342.974 79.5604C343.469 79.5604 343.948 79.4458 344.412 79.2167C345.193 78.8365 345.584 78.2141 345.584 77.3495V76.2167C345.412 76.326 345.19 76.4172 344.92 76.4901C344.649 76.563 344.383 76.6151 344.123 76.6464L343.271 76.7557C342.761 76.8234 342.378 76.9302 342.123 77.076C341.69 77.3208 341.474 77.7115 341.474 78.2479ZM344.88 75.4042C345.203 75.3625 345.42 75.2271 345.529 74.9979C345.591 74.8729 345.623 74.6932 345.623 74.4589C345.623 73.9797 345.451 73.6333 345.107 73.4198C344.768 73.201 344.282 73.0917 343.646 73.0917C342.912 73.0917 342.391 73.2896 342.084 73.6854C341.912 73.9042 341.8 74.2297 341.748 74.662H340.435C340.461 73.6307 340.795 72.9146 341.435 72.5135C342.081 72.1073 342.828 71.9042 343.677 71.9042C344.662 71.9042 345.461 72.0917 346.076 72.4667C346.685 72.8417 346.99 73.425 346.99 74.2167V79.037C346.99 79.1828 347.018 79.3 347.076 79.3885C347.138 79.4771 347.266 79.5214 347.459 79.5214C347.521 79.5214 347.591 79.5188 347.67 79.5135C347.748 79.5031 347.831 79.4901 347.92 79.4745V80.5135C347.701 80.576 347.534 80.6151 347.42 80.6307C347.305 80.6464 347.149 80.6542 346.951 80.6542C346.466 80.6542 346.115 80.4823 345.896 80.1385C345.782 79.9563 345.701 79.6984 345.654 79.3651C345.367 79.7401 344.956 80.0656 344.42 80.3417C343.883 80.6177 343.292 80.7557 342.646 80.7557C341.87 80.7557 341.235 80.5214 340.74 80.0526C340.25 79.5787 340.005 78.9875 340.005 78.2792C340.005 77.5031 340.248 76.9016 340.732 76.4745C341.216 76.0474 341.852 75.7844 342.638 75.6854L344.88 75.4042ZM349.491 72.1073H350.827V73.5526C350.937 73.2714 351.205 72.9302 351.632 72.5292C352.059 72.1229 352.551 71.9198 353.109 71.9198C353.135 71.9198 353.179 71.9224 353.241 71.9276C353.304 71.9328 353.411 71.9432 353.562 71.9589V73.4432C353.478 73.4276 353.4 73.4172 353.327 73.412C353.26 73.4068 353.184 73.4042 353.101 73.4042C352.392 73.4042 351.848 73.6333 351.468 74.0917C351.088 74.5448 350.898 75.0682 350.898 75.662V80.4745H349.491V72.1073ZM354.93 72.1464H356.36V80.4745H354.93V72.1464ZM354.93 68.9979H356.36V70.5917H354.93V68.9979ZM362.127 71.9198C362.721 71.9198 363.297 72.0604 363.854 72.3417C364.411 72.6177 364.836 72.9771 365.127 73.4198C365.409 73.8417 365.596 74.3339 365.69 74.8964C365.773 75.2818 365.815 75.8964 365.815 76.7401H359.682C359.708 77.5891 359.909 78.2714 360.284 78.787C360.659 79.2974 361.239 79.5526 362.026 79.5526C362.76 79.5526 363.346 79.3104 363.784 78.826C364.034 78.5448 364.211 78.2193 364.315 77.8495H365.698C365.661 78.1568 365.539 78.5005 365.33 78.8807C365.127 79.2557 364.898 79.563 364.643 79.8026C364.216 80.2193 363.687 80.5005 363.057 80.6464C362.718 80.7297 362.336 80.7714 361.909 80.7714C360.867 80.7714 359.984 80.3938 359.26 79.6385C358.536 78.8781 358.174 77.8156 358.174 76.451C358.174 75.1073 358.539 74.0162 359.268 73.1776C359.997 72.3391 360.95 71.9198 362.127 71.9198ZM364.37 75.6229C364.312 75.0135 364.179 74.5266 363.971 74.162C363.586 73.4849 362.942 73.1464 362.041 73.1464C361.396 73.1464 360.854 73.3807 360.416 73.8495C359.979 74.313 359.747 74.9042 359.721 75.6229H364.37ZM368.535 77.8495C368.577 78.3182 368.694 78.6776 368.887 78.9276C369.241 79.3807 369.855 79.6073 370.73 79.6073C371.251 79.6073 371.71 79.4953 372.105 79.2714C372.501 79.0422 372.699 78.6906 372.699 78.2167C372.699 77.8573 372.54 77.5839 372.223 77.3964C372.02 77.2818 371.618 77.149 371.02 76.9979L369.902 76.7167C369.189 76.5396 368.663 76.3417 368.324 76.1229C367.72 75.7427 367.418 75.2167 367.418 74.5448C367.418 73.7531 367.702 73.1125 368.27 72.6229C368.842 72.1333 369.611 71.8885 370.574 71.8885C371.835 71.8885 372.743 72.2583 373.301 72.9979C373.65 73.4667 373.819 73.9719 373.809 74.5135H372.48C372.454 74.1958 372.342 73.9068 372.145 73.6464C371.822 73.2766 371.262 73.0917 370.465 73.0917C369.934 73.0917 369.53 73.1932 369.254 73.3964C368.983 73.5995 368.848 73.8677 368.848 74.201C368.848 74.5656 369.027 74.8573 369.387 75.076C369.595 75.2063 369.902 75.3208 370.309 75.4198L371.238 75.6464C372.249 75.8912 372.926 76.1281 373.27 76.3573C373.816 76.7167 374.09 77.2818 374.09 78.0526C374.09 78.7974 373.806 79.4406 373.238 79.9823C372.676 80.524 371.816 80.7948 370.66 80.7948C369.415 80.7948 368.533 80.5135 368.012 79.951C367.496 79.3833 367.22 78.6828 367.184 77.8495H368.535Z" fill="black" fill-opacity="0.87"/>
<rect x="290.668" y="112.474" width="20" height="20" fill="#2196F3"/>
<path d="M317.351 116.998H319.577L322.874 126.701L326.148 116.998H328.351V128.474H326.874V121.701C326.874 121.467 326.879 121.079 326.89 120.537C326.9 119.995 326.905 119.415 326.905 118.795L323.632 128.474H322.093L318.796 118.795V119.146C318.796 119.428 318.801 119.857 318.812 120.435C318.827 121.008 318.835 121.43 318.835 121.701V128.474H317.351V116.998ZM331.759 126.248C331.759 126.654 331.907 126.974 332.204 127.209C332.501 127.443 332.852 127.56 333.259 127.56C333.753 127.56 334.233 127.446 334.696 127.217C335.477 126.836 335.868 126.214 335.868 125.349V124.217C335.696 124.326 335.475 124.417 335.204 124.49C334.933 124.563 334.667 124.615 334.407 124.646L333.555 124.756C333.045 124.823 332.662 124.93 332.407 125.076C331.975 125.321 331.759 125.711 331.759 126.248ZM335.165 123.404C335.488 123.363 335.704 123.227 335.813 122.998C335.876 122.873 335.907 122.693 335.907 122.459C335.907 121.98 335.735 121.633 335.391 121.42C335.053 121.201 334.566 121.092 333.93 121.092C333.196 121.092 332.675 121.29 332.368 121.685C332.196 121.904 332.084 122.23 332.032 122.662H330.72C330.746 121.631 331.079 120.915 331.72 120.514C332.365 120.107 333.113 119.904 333.962 119.904C334.946 119.904 335.746 120.092 336.36 120.467C336.97 120.842 337.274 121.425 337.274 122.217V127.037C337.274 127.183 337.303 127.3 337.36 127.389C337.423 127.477 337.55 127.521 337.743 127.521C337.805 127.521 337.876 127.519 337.954 127.514C338.032 127.503 338.115 127.49 338.204 127.474V128.514C337.985 128.576 337.818 128.615 337.704 128.631C337.589 128.646 337.433 128.654 337.235 128.654C336.751 128.654 336.399 128.482 336.18 128.139C336.066 127.956 335.985 127.698 335.938 127.365C335.652 127.74 335.24 128.066 334.704 128.342C334.167 128.618 333.576 128.756 332.93 128.756C332.154 128.756 331.519 128.521 331.024 128.053C330.535 127.579 330.29 126.988 330.29 126.279C330.29 125.503 330.532 124.902 331.016 124.474C331.501 124.047 332.136 123.784 332.923 123.685L335.165 123.404ZM339.776 120.107H341.112V121.553C341.221 121.271 341.489 120.93 341.916 120.529C342.343 120.123 342.836 119.92 343.393 119.92C343.419 119.92 343.463 119.922 343.526 119.928C343.588 119.933 343.695 119.943 343.846 119.959V121.443C343.763 121.428 343.685 121.417 343.612 121.412C343.544 121.407 343.468 121.404 343.385 121.404C342.677 121.404 342.133 121.633 341.752 122.092C341.372 122.545 341.182 123.068 341.182 123.662V128.474H339.776V120.107ZM345.184 116.998H346.535V123.662L350.145 120.107H351.941L348.738 123.24L352.121 128.474H350.324L347.715 124.256L346.535 125.334V128.474H345.184V116.998ZM356.849 119.92C357.443 119.92 358.018 120.06 358.576 120.342C359.133 120.618 359.558 120.977 359.849 121.42C360.13 121.842 360.318 122.334 360.412 122.896C360.495 123.282 360.537 123.896 360.537 124.74H354.404C354.43 125.589 354.63 126.271 355.005 126.787C355.38 127.297 355.961 127.553 356.748 127.553C357.482 127.553 358.068 127.31 358.505 126.826C358.755 126.545 358.933 126.219 359.037 125.849H360.42C360.383 126.157 360.261 126.501 360.052 126.881C359.849 127.256 359.62 127.563 359.365 127.803C358.938 128.219 358.409 128.501 357.779 128.646C357.44 128.73 357.058 128.771 356.63 128.771C355.589 128.771 354.706 128.394 353.982 127.639C353.258 126.878 352.896 125.816 352.896 124.451C352.896 123.107 353.261 122.016 353.99 121.178C354.719 120.339 355.672 119.92 356.849 119.92ZM359.091 123.623C359.034 123.014 358.901 122.527 358.693 122.162C358.308 121.485 357.664 121.146 356.763 121.146C356.117 121.146 355.576 121.381 355.138 121.849C354.701 122.313 354.469 122.904 354.443 123.623H359.091ZM362.702 117.771H364.124V120.107H365.46V121.256H364.124V126.717C364.124 127.008 364.223 127.204 364.421 127.303C364.53 127.36 364.713 127.389 364.968 127.389C365.036 127.389 365.109 127.389 365.187 127.389C365.265 127.383 365.356 127.376 365.46 127.365V128.474C365.299 128.521 365.129 128.555 364.952 128.576C364.78 128.597 364.593 128.607 364.39 128.607C363.734 128.607 363.288 128.441 363.054 128.107C362.82 127.769 362.702 127.331 362.702 126.795V121.256H361.57V120.107H362.702V117.771ZM367.024 120.146H368.454V128.474H367.024V120.146ZM367.024 116.998H368.454V118.592H367.024V116.998ZM370.737 120.107H372.073V121.295C372.468 120.805 372.888 120.454 373.33 120.24C373.773 120.027 374.265 119.92 374.807 119.92C375.995 119.92 376.797 120.334 377.213 121.162C377.442 121.615 377.557 122.264 377.557 123.107V128.474H376.127V123.201C376.127 122.691 376.052 122.279 375.901 121.967C375.651 121.446 375.198 121.185 374.541 121.185C374.208 121.185 373.935 121.219 373.721 121.287C373.336 121.402 372.997 121.631 372.705 121.974C372.471 122.251 372.317 122.537 372.245 122.834C372.177 123.126 372.143 123.545 372.143 124.092V128.474H370.737V120.107ZM382.746 119.959C383.402 119.959 383.975 120.12 384.465 120.443C384.73 120.626 385.001 120.891 385.277 121.24V120.185H386.574V127.795C386.574 128.857 386.418 129.696 386.105 130.31C385.522 131.446 384.421 132.014 382.801 132.014C381.9 132.014 381.142 131.81 380.527 131.404C379.913 131.003 379.569 130.373 379.496 129.514H380.926C380.993 129.889 381.129 130.178 381.332 130.381C381.65 130.693 382.15 130.849 382.832 130.849C383.91 130.849 384.616 130.469 384.949 129.709C385.147 129.261 385.238 128.461 385.223 127.31C384.941 127.738 384.603 128.055 384.207 128.264C383.811 128.472 383.288 128.576 382.637 128.576C381.73 128.576 380.936 128.256 380.254 127.615C379.577 126.969 379.238 125.904 379.238 124.42C379.238 123.019 379.579 121.925 380.262 121.139C380.949 120.352 381.777 119.959 382.746 119.959ZM385.277 124.256C385.277 123.219 385.064 122.451 384.637 121.951C384.21 121.451 383.665 121.201 383.004 121.201C382.014 121.201 381.337 121.665 380.973 122.592C380.78 123.086 380.684 123.735 380.684 124.537C380.684 125.48 380.874 126.198 381.254 126.693C381.639 127.183 382.155 127.428 382.801 127.428C383.811 127.428 384.522 126.972 384.934 126.06C385.163 125.545 385.277 124.943 385.277 124.256Z" fill="black" fill-opacity="0.87"/>
<rect x="290.668" y="160.474" width="20" height="20" fill="#26A69A"/>
<path d="M322.543 164.685C324.569 164.685 326.069 165.336 327.043 166.639C327.803 167.654 328.184 168.954 328.184 170.537C328.184 172.251 327.749 173.675 326.879 174.81C325.858 176.144 324.402 176.81 322.512 176.81C320.746 176.81 319.358 176.227 318.348 175.06C317.447 173.935 316.996 172.514 316.996 170.795C316.996 169.243 317.382 167.915 318.152 166.81C319.142 165.394 320.605 164.685 322.543 164.685ZM322.699 175.42C324.069 175.42 325.059 174.93 325.668 173.951C326.283 172.967 326.59 171.836 326.59 170.56C326.59 169.211 326.236 168.126 325.527 167.303C324.824 166.48 323.861 166.068 322.637 166.068C321.449 166.068 320.48 166.477 319.73 167.295C318.98 168.107 318.605 169.308 318.605 170.896C318.605 172.167 318.926 173.24 319.566 174.115C320.212 174.985 321.257 175.42 322.699 175.42ZM333.537 175.529C334.193 175.529 334.737 175.256 335.17 174.709C335.607 174.157 335.826 173.334 335.826 172.24C335.826 171.573 335.729 171.001 335.537 170.521C335.172 169.599 334.505 169.139 333.537 169.139C332.563 169.139 331.896 169.626 331.537 170.599C331.344 171.12 331.248 171.782 331.248 172.584C331.248 173.23 331.344 173.779 331.537 174.232C331.901 175.097 332.568 175.529 333.537 175.529ZM329.896 168.146H331.263V169.256C331.545 168.876 331.852 168.581 332.185 168.373C332.659 168.06 333.216 167.904 333.857 167.904C334.805 167.904 335.61 168.269 336.271 168.998C336.933 169.722 337.263 170.758 337.263 172.107C337.263 173.93 336.787 175.232 335.834 176.014C335.229 176.508 334.526 176.756 333.724 176.756C333.094 176.756 332.565 176.618 332.138 176.342C331.888 176.185 331.61 175.917 331.302 175.537V179.81H329.896V168.146ZM342.546 167.92C343.14 167.92 343.715 168.06 344.273 168.342C344.83 168.618 345.254 168.977 345.546 169.42C345.827 169.842 346.015 170.334 346.109 170.896C346.192 171.282 346.234 171.896 346.234 172.74H340.101C340.127 173.589 340.327 174.271 340.702 174.787C341.077 175.297 341.658 175.553 342.445 175.553C343.179 175.553 343.765 175.31 344.202 174.826C344.452 174.545 344.629 174.219 344.734 173.849H346.116C346.08 174.157 345.958 174.501 345.749 174.881C345.546 175.256 345.317 175.563 345.062 175.803C344.635 176.219 344.106 176.501 343.476 176.646C343.137 176.73 342.754 176.771 342.327 176.771C341.286 176.771 340.403 176.394 339.679 175.639C338.955 174.878 338.593 173.816 338.593 172.451C338.593 171.107 338.958 170.016 339.687 169.178C340.416 168.339 341.369 167.92 342.546 167.92ZM344.788 171.623C344.731 171.014 344.598 170.527 344.39 170.162C344.004 169.485 343.361 169.146 342.46 169.146C341.814 169.146 341.273 169.381 340.835 169.849C340.398 170.313 340.166 170.904 340.14 171.623H344.788ZM348.157 168.107H349.493V169.553C349.602 169.271 349.871 168.93 350.298 168.529C350.725 168.123 351.217 167.92 351.774 167.92C351.8 167.92 351.845 167.922 351.907 167.928C351.97 167.933 352.076 167.943 352.227 167.959V169.443C352.144 169.428 352.066 169.417 351.993 169.412C351.925 169.407 351.85 169.404 351.766 169.404C351.058 169.404 350.514 169.633 350.134 170.092C349.753 170.545 349.563 171.068 349.563 171.662V176.474H348.157V168.107ZM354.674 174.248C354.674 174.654 354.823 174.974 355.12 175.209C355.416 175.443 355.768 175.56 356.174 175.56C356.669 175.56 357.148 175.446 357.612 175.217C358.393 174.836 358.784 174.214 358.784 173.349V172.217C358.612 172.326 358.39 172.417 358.12 172.49C357.849 172.563 357.583 172.615 357.323 172.646L356.471 172.756C355.961 172.823 355.578 172.93 355.323 173.076C354.89 173.321 354.674 173.711 354.674 174.248ZM358.08 171.404C358.403 171.363 358.62 171.227 358.729 170.998C358.791 170.873 358.823 170.693 358.823 170.459C358.823 169.98 358.651 169.633 358.307 169.42C357.968 169.201 357.482 169.092 356.846 169.092C356.112 169.092 355.591 169.29 355.284 169.685C355.112 169.904 355 170.23 354.948 170.662H353.635C353.661 169.631 353.995 168.915 354.635 168.514C355.281 168.107 356.028 167.904 356.877 167.904C357.862 167.904 358.661 168.092 359.276 168.467C359.885 168.842 360.19 169.425 360.19 170.217V175.037C360.19 175.183 360.218 175.3 360.276 175.389C360.338 175.477 360.466 175.521 360.659 175.521C360.721 175.521 360.791 175.519 360.87 175.514C360.948 175.503 361.031 175.49 361.12 175.474V176.514C360.901 176.576 360.734 176.615 360.62 176.631C360.505 176.646 360.349 176.654 360.151 176.654C359.666 176.654 359.315 176.482 359.096 176.139C358.982 175.956 358.901 175.698 358.854 175.365C358.567 175.74 358.156 176.066 357.62 176.342C357.083 176.618 356.492 176.756 355.846 176.756C355.07 176.756 354.435 176.521 353.94 176.053C353.45 175.579 353.205 174.988 353.205 174.279C353.205 173.503 353.448 172.902 353.932 172.474C354.416 172.047 355.052 171.784 355.838 171.685L358.08 171.404ZM362.934 165.771H364.355V168.107H365.691V169.256H364.355V174.717C364.355 175.008 364.454 175.204 364.652 175.303C364.762 175.36 364.944 175.389 365.199 175.389C365.267 175.389 365.34 175.389 365.418 175.389C365.496 175.383 365.587 175.376 365.691 175.365V176.474C365.53 176.521 365.361 176.555 365.184 176.576C365.012 176.597 364.824 176.607 364.621 176.607C363.965 176.607 363.52 176.441 363.285 176.107C363.051 175.769 362.934 175.331 362.934 174.795V169.256H361.801V168.107H362.934V165.771ZM367.255 168.146H368.685V176.474H367.255V168.146ZM367.255 164.998H368.685V166.592H367.255V164.998ZM374.288 175.568C375.221 175.568 375.859 175.217 376.202 174.514C376.551 173.805 376.726 173.019 376.726 172.154C376.726 171.373 376.601 170.738 376.351 170.248C375.955 169.477 375.273 169.092 374.304 169.092C373.445 169.092 372.82 169.42 372.429 170.076C372.038 170.732 371.843 171.524 371.843 172.451C371.843 173.342 372.038 174.084 372.429 174.678C372.82 175.271 373.439 175.568 374.288 175.568ZM374.343 167.865C375.421 167.865 376.333 168.224 377.077 168.943C377.822 169.662 378.195 170.719 378.195 172.115C378.195 173.464 377.866 174.579 377.21 175.459C376.554 176.339 375.536 176.779 374.155 176.779C373.004 176.779 372.09 176.391 371.413 175.615C370.736 174.834 370.398 173.787 370.398 172.474C370.398 171.068 370.754 169.948 371.468 169.115C372.182 168.282 373.14 167.865 374.343 167.865ZM380.024 168.107H381.36V169.295C381.756 168.805 382.175 168.454 382.618 168.24C383.061 168.027 383.553 167.92 384.095 167.92C385.282 167.92 386.084 168.334 386.501 169.162C386.73 169.615 386.845 170.264 386.845 171.107V176.474H385.415V171.201C385.415 170.691 385.339 170.279 385.188 169.967C384.938 169.446 384.485 169.185 383.829 169.185C383.496 169.185 383.222 169.219 383.009 169.287C382.623 169.402 382.285 169.631 381.993 169.974C381.759 170.251 381.605 170.537 381.532 170.834C381.464 171.126 381.43 171.545 381.43 172.092V176.474H380.024V168.107ZM390.159 174.248C390.159 174.654 390.307 174.974 390.604 175.209C390.901 175.443 391.252 175.56 391.659 175.56C392.153 175.56 392.633 175.446 393.096 175.217C393.877 174.836 394.268 174.214 394.268 173.349V172.217C394.096 172.326 393.875 172.417 393.604 172.49C393.333 172.563 393.067 172.615 392.807 172.646L391.955 172.756C391.445 172.823 391.062 172.93 390.807 173.076C390.375 173.321 390.159 173.711 390.159 174.248ZM393.565 171.404C393.888 171.363 394.104 171.227 394.213 170.998C394.276 170.873 394.307 170.693 394.307 170.459C394.307 169.98 394.135 169.633 393.791 169.42C393.453 169.201 392.966 169.092 392.33 169.092C391.596 169.092 391.075 169.29 390.768 169.685C390.596 169.904 390.484 170.23 390.432 170.662H389.12C389.146 169.631 389.479 168.915 390.12 168.514C390.765 168.107 391.513 167.904 392.362 167.904C393.346 167.904 394.146 168.092 394.76 168.467C395.37 168.842 395.674 169.425 395.674 170.217V175.037C395.674 175.183 395.703 175.3 395.76 175.389C395.823 175.477 395.95 175.521 396.143 175.521C396.205 175.521 396.276 175.519 396.354 175.514C396.432 175.503 396.515 175.49 396.604 175.474V176.514C396.385 176.576 396.218 176.615 396.104 176.631C395.989 176.646 395.833 176.654 395.635 176.654C395.151 176.654 394.799 176.482 394.58 176.139C394.466 175.956 394.385 175.698 394.338 175.365C394.052 175.74 393.64 176.066 393.104 176.342C392.567 176.618 391.976 176.756 391.33 176.756C390.554 176.756 389.919 176.521 389.424 176.053C388.935 175.579 388.69 174.988 388.69 174.279C388.69 173.503 388.932 172.902 389.416 172.474C389.901 172.047 390.536 171.784 391.323 171.685L393.565 171.404ZM398.176 164.998H399.582V176.474H398.176V164.998Z" fill="black" fill-opacity="0.87"/>
</svg>
