<svg width="36" height="37" viewBox="0 0 36 37" fill="none" xmlns="http://www.w3.org/2000/svg">
<g filter="url(#filter0_d_155_776)">
<rect x="5.49902" y="2.75" width="25" height="25" rx="6" fill="#4FD1C5"/>
</g>
<path d="M23.411 9.93465C23.4066 9.91306 23.3961 9.89319 23.3807 9.87736C23.3654 9.86154 23.3458 9.85041 23.3244 9.8453C21.8944 9.49569 18.5905 10.7415 16.8005 12.5308C16.4812 12.8475 16.1901 13.1914 15.9306 13.5587C15.3786 13.5098 14.8266 13.5506 14.3561 13.7557C13.0287 14.3399 12.6423 15.8643 12.5346 16.5201C12.5285 16.556 12.5308 16.5928 12.5413 16.6277C12.5518 16.6625 12.5703 16.6944 12.5953 16.721C12.6203 16.7475 12.651 16.7678 12.6852 16.7804C12.7193 16.793 12.756 16.7975 12.7922 16.7935L14.9237 16.5584C14.9253 16.7191 14.935 16.8797 14.9528 17.0394C14.9635 17.1503 15.0128 17.254 15.092 17.3324L15.9174 18.1558C15.9959 18.2349 16.0995 18.2842 16.2104 18.295C16.3692 18.3128 16.5288 18.3225 16.6886 18.3241L16.4547 20.453C16.4508 20.4891 16.4554 20.5257 16.468 20.5599C16.4806 20.594 16.501 20.6248 16.5274 20.6497C16.5539 20.6747 16.5858 20.6931 16.6207 20.7037C16.6555 20.7142 16.6923 20.7166 16.7282 20.7105C17.3827 20.6055 18.9098 20.2191 19.4906 18.8917C19.6957 18.4212 19.7377 17.8719 19.6903 17.3226C20.0585 17.063 20.4033 16.7719 20.7209 16.4525C22.5165 14.6659 23.7553 11.4356 23.411 9.93465ZM18.9294 14.3211C18.7654 14.1573 18.6537 13.9485 18.6084 13.7211C18.5631 13.4938 18.5863 13.2581 18.675 13.0439C18.7637 12.8298 18.9139 12.6467 19.1066 12.5179C19.2993 12.3891 19.5259 12.3203 19.7577 12.3203C19.9895 12.3203 20.2161 12.3891 20.4089 12.5179C20.6016 12.6467 20.7518 12.8298 20.8405 13.0439C20.9291 13.2581 20.9523 13.4938 20.907 13.7211C20.8617 13.9485 20.7501 14.1573 20.5861 14.3211C20.4774 14.43 20.3482 14.5164 20.2061 14.5753C20.064 14.6343 19.9116 14.6646 19.7577 14.6646C19.6039 14.6646 19.4515 14.6343 19.3093 14.5753C19.1672 14.5164 19.0381 14.43 18.9294 14.3211Z" fill="white"/>
<path d="M15.8613 18.7523C15.7275 18.8864 15.5129 18.9386 15.2546 18.9833C14.6743 19.0822 14.1619 18.5807 14.2661 17.994C14.3059 17.7716 14.4236 17.4598 14.4968 17.3866C14.5128 17.3709 14.5235 17.3506 14.5273 17.3285C14.5311 17.3064 14.5278 17.2836 14.5179 17.2635C14.5081 17.2433 14.4921 17.2268 14.4723 17.2163C14.4525 17.2057 14.4299 17.2017 14.4077 17.2047C14.0832 17.2444 13.7813 17.3916 13.55 17.6227C12.9761 18.1971 12.9219 20.3287 12.9219 20.3287C12.9219 20.3287 15.0547 20.2745 15.6287 19.7001C15.8605 19.469 16.0078 19.1667 16.0469 18.8417C16.0559 18.7396 15.9316 18.6788 15.8613 18.7523Z" fill="white"/>
<defs>
<filter id="filter0_d_155_776" x="-0.000977039" y="0.75" width="36" height="36" filterUnits="userSpaceOnUse" color-interpolation-filters="sRGB">
<feFlood flood-opacity="0" result="BackgroundImageFix"/>
<feColorMatrix in="SourceAlpha" type="matrix" values="0 0 0 0 0 0 0 0 0 0 0 0 0 0 0 0 0 0 127 0" result="hardAlpha"/>
<feOffset dy="3.5"/>
<feGaussianBlur stdDeviation="2.75"/>
<feColorMatrix type="matrix" values="0 0 0 0 0 0 0 0 0 0 0 0 0 0 0 0 0 0 0.02 0"/>
<feBlend mode="normal" in2="BackgroundImageFix" result="effect1_dropShadow_155_776"/>
<feBlend mode="normal" in="SourceGraphic" in2="effect1_dropShadow_155_776" result="shape"/>
</filter>
</defs>
</svg>
