<svg width="667" height="553" viewBox="0 0 667 553" fill="none" xmlns="http://www.w3.org/2000/svg">
<g filter="url(#filter0_dddd_87_2342)">
<mask id="path-1-inside-1_87_2342" fill="white">
<path d="M164 49.6504C164 40.8138 171.163 33.6504 180 33.6504H444C452.837 33.6504 460 40.8138 460 49.6504V421.65C460 430.487 452.837 437.65 444 437.65H180C171.163 437.65 164 430.487 164 421.65V49.6504Z"/>
</mask>
<path d="M164 49.6504C164 40.8138 171.163 33.6504 180 33.6504H444C452.837 33.6504 460 40.8138 460 49.6504V421.65C460 430.487 452.837 437.65 444 437.65H180C171.163 437.65 164 430.487 164 421.65V49.6504Z" fill="white"/>
<path d="M164 49.6504C164 40.8138 171.163 33.6504 180 33.6504H444C452.837 33.6504 460 40.8138 460 49.6504V421.65C460 430.487 452.837 437.65 444 437.65H180C171.163 437.65 164 430.487 164 421.65V49.6504Z" fill="url(#paint0_linear_87_2342)" fill-opacity="0.16" style="mix-blend-mode:luminosity"/>
<path d="M180 35.1504H444V32.1504H180V35.1504ZM458.5 49.6504V421.65H461.5V49.6504H458.5ZM444 436.15H180V439.15H444V436.15ZM165.5 421.65V49.6504H162.5V421.65H165.5ZM180 436.15C171.992 436.15 165.5 429.659 165.5 421.65H162.5C162.5 431.315 170.335 439.15 180 439.15V436.15ZM458.5 421.65C458.5 429.659 452.008 436.15 444 436.15V439.15C453.665 439.15 461.5 431.315 461.5 421.65H458.5ZM444 35.1504C452.008 35.1504 458.5 41.6423 458.5 49.6504H461.5C461.5 39.9854 453.665 32.1504 444 32.1504V35.1504ZM180 32.1504C170.335 32.1504 162.5 39.9854 162.5 49.6504H165.5C165.5 41.6423 171.992 35.1504 180 35.1504V32.1504Z" fill="#496E6B" fill-opacity="0.2" mask="url(#path-1-inside-1_87_2342)"/>
<path d="M192 69.6504C192 65.2321 195.582 61.6504 200 61.6504H326C330.418 61.6504 334 65.2321 334 69.6504V85.6504C334 90.0687 330.418 93.6504 326 93.6504H200C195.582 93.6504 192 90.0687 192 85.6504V69.6504Z" fill="#041039" fill-opacity="0.6"/>
<path opacity="0.5" d="M192 121.65C192 117.232 195.582 113.65 200 113.65H424C428.418 113.65 432 117.232 432 121.65V401.65C432 406.069 428.418 409.65 424 409.65H200C195.582 409.65 192 406.069 192 401.65V121.65Z" fill="#041039"/>
</g>
<g filter="url(#filter1_dddd_87_2342)">
<mask id="path-5-inside-2_87_2342" fill="white">
<path d="M53 305.65C53 296.814 60.1634 289.65 69 289.65H318C326.837 289.65 334 296.814 334 305.65V345.65C334 354.487 326.837 361.65 318 361.65H69C60.1634 361.65 53 354.487 53 345.65V305.65Z"/>
</mask>
<path d="M53 305.65C53 296.814 60.1634 289.65 69 289.65H318C326.837 289.65 334 296.814 334 305.65V345.65C334 354.487 326.837 361.65 318 361.65H69C60.1634 361.65 53 354.487 53 345.65V305.65Z" fill="white"/>
<path d="M53 305.65C53 296.814 60.1634 289.65 69 289.65H318C326.837 289.65 334 296.814 334 305.65V345.65C334 354.487 326.837 361.65 318 361.65H69C60.1634 361.65 53 354.487 53 345.65V305.65Z" fill="#257E76" fill-opacity="0.09"/>
<path d="M53 305.65C53 296.814 60.1634 289.65 69 289.65H318C326.837 289.65 334 296.814 334 305.65V345.65C334 354.487 326.837 361.65 318 361.65H69C60.1634 361.65 53 354.487 53 345.65V305.65Z" fill="url(#paint1_linear_87_2342)" fill-opacity="0.32" style="mix-blend-mode:luminosity"/>
<path d="M69 291.15H318V288.15H69V291.15ZM332.5 305.65V345.65H335.5V305.65H332.5ZM318 360.15H69V363.15H318V360.15ZM54.5 345.65V305.65H51.5V345.65H54.5ZM69 360.15C60.9919 360.15 54.5 353.659 54.5 345.65H51.5C51.5 355.315 59.335 363.15 69 363.15V360.15ZM332.5 345.65C332.5 353.659 326.008 360.15 318 360.15V363.15C327.665 363.15 335.5 355.315 335.5 345.65H332.5ZM318 291.15C326.008 291.15 332.5 297.642 332.5 305.65H335.5C335.5 295.985 327.665 288.15 318 288.15V291.15ZM69 288.15C59.335 288.15 51.5 295.985 51.5 305.65H54.5C54.5 297.642 60.9919 291.15 69 291.15V288.15Z" fill="#496E6B" fill-opacity="0.2" mask="url(#path-5-inside-2_87_2342)"/>
<path d="M123.62 334.65V320.19H133.55L133.54 322.65H126.55V326.16H132.62V328.57H126.53V332.16L133.65 332.17V334.65H123.62ZM134.567 334.65L138.537 329.26L134.907 324.31H137.967L140.117 327.21L142.257 324.31H145.307L141.647 329.26L145.627 334.65H142.567L140.097 331.28L137.627 334.65H134.567ZM146.825 337.87V324.31H149.755L149.765 325.8C149.918 325.554 150.105 325.33 150.325 325.13C150.552 324.924 150.802 324.744 151.075 324.59C151.348 324.437 151.645 324.32 151.965 324.24C152.285 324.154 152.622 324.11 152.975 324.11C153.742 324.11 154.425 324.3 155.025 324.68C155.625 325.054 156.095 325.634 156.435 326.42C156.782 327.2 156.955 328.194 156.955 329.4C156.955 330.654 156.768 331.684 156.395 332.49C156.028 333.29 155.522 333.884 154.875 334.27C154.228 334.657 153.498 334.85 152.685 334.85C152.352 334.85 152.038 334.804 151.745 334.71C151.452 334.624 151.178 334.5 150.925 334.34C150.678 334.18 150.455 333.997 150.255 333.79C150.062 333.577 149.892 333.347 149.745 333.1V337.87H146.825ZM151.985 332.71C152.618 332.71 153.148 332.447 153.575 331.92C154.008 331.394 154.225 330.56 154.225 329.42C154.225 328.42 154.018 327.64 153.605 327.08C153.198 326.514 152.658 326.23 151.985 326.23C151.232 326.23 150.668 326.537 150.295 327.15C149.928 327.757 149.745 328.514 149.745 329.42C149.745 330 149.825 330.54 149.985 331.04C150.152 331.54 150.398 331.944 150.725 332.25C151.058 332.557 151.478 332.71 151.985 332.71ZM163.323 334.85C162.297 334.85 161.393 334.637 160.613 334.21C159.84 333.777 159.237 333.167 158.803 332.38C158.37 331.594 158.153 330.667 158.153 329.6C158.153 328.567 158.35 327.637 158.743 326.81C159.143 325.977 159.717 325.32 160.463 324.84C161.21 324.354 162.113 324.11 163.173 324.11C164.227 324.11 165.11 324.334 165.823 324.78C166.537 325.22 167.077 325.837 167.443 326.63C167.81 327.417 167.993 328.327 167.993 329.36V330.15H161.043C161.043 330.677 161.13 331.137 161.303 331.53C161.477 331.917 161.727 332.217 162.053 332.43C162.387 332.637 162.787 332.74 163.253 332.74C163.753 332.74 164.19 332.634 164.563 332.42C164.937 332.207 165.2 331.857 165.353 331.37H167.983C167.863 332.104 167.57 332.73 167.103 333.25C166.637 333.77 166.07 334.167 165.403 334.44C164.737 334.714 164.043 334.85 163.323 334.85ZM161.043 328.41H165.263C165.263 327.997 165.183 327.617 165.023 327.27C164.87 326.924 164.637 326.65 164.323 326.45C164.017 326.25 163.63 326.15 163.163 326.15C162.717 326.15 162.333 326.26 162.013 326.48C161.7 326.694 161.457 326.974 161.283 327.32C161.117 327.667 161.037 328.03 161.043 328.41ZM169.697 334.65V324.31H172.567V325.77C172.727 325.517 172.934 325.274 173.187 325.04C173.447 324.8 173.774 324.604 174.167 324.45C174.56 324.297 175.027 324.22 175.567 324.22C176.2 324.22 176.79 324.344 177.337 324.59C177.89 324.837 178.337 325.227 178.677 325.76C179.017 326.287 179.187 326.977 179.187 327.83V334.65H176.267V328.19C176.267 327.63 176.1 327.21 175.767 326.93C175.434 326.65 175.027 326.51 174.547 326.51C174.227 326.51 173.917 326.567 173.617 326.68C173.324 326.794 173.084 326.964 172.897 327.19C172.71 327.417 172.617 327.697 172.617 328.03V334.65H169.697ZM185.215 334.85C184.495 334.85 183.801 334.734 183.135 334.5C182.475 334.26 181.911 333.887 181.445 333.38C180.985 332.867 180.695 332.204 180.575 331.39H183.095C183.188 331.757 183.348 332.047 183.575 332.26C183.808 332.474 184.071 332.627 184.365 332.72C184.658 332.807 184.938 332.85 185.205 332.85C185.765 332.85 186.215 332.764 186.555 332.59C186.901 332.41 187.075 332.137 187.075 331.77C187.075 331.49 186.971 331.267 186.765 331.1C186.565 330.934 186.231 330.807 185.765 330.72L183.945 330.34C183.031 330.147 182.295 329.82 181.735 329.36C181.181 328.894 180.901 328.234 180.895 327.38C180.888 326.76 181.048 326.204 181.375 325.71C181.708 325.217 182.198 324.827 182.845 324.54C183.498 324.254 184.295 324.11 185.235 324.11C186.508 324.11 187.525 324.39 188.285 324.95C189.051 325.51 189.441 326.3 189.455 327.32H187.015C186.941 326.92 186.741 326.614 186.415 326.4C186.095 326.18 185.688 326.07 185.195 326.07C184.695 326.07 184.281 326.16 183.955 326.34C183.628 326.52 183.465 326.794 183.465 327.16C183.465 327.434 183.598 327.65 183.865 327.81C184.131 327.964 184.545 328.097 185.105 328.21L186.785 328.59C187.365 328.73 187.835 328.924 188.195 329.17C188.561 329.41 188.845 329.674 189.045 329.96C189.245 330.247 189.381 330.537 189.455 330.83C189.535 331.117 189.575 331.377 189.575 331.61C189.575 332.297 189.391 332.884 189.025 333.37C188.658 333.85 188.148 334.217 187.495 334.47C186.841 334.724 186.081 334.85 185.215 334.85ZM195.952 334.85C194.925 334.85 194.022 334.637 193.242 334.21C192.468 333.777 191.865 333.167 191.432 332.38C190.998 331.594 190.782 330.667 190.782 329.6C190.782 328.567 190.978 327.637 191.372 326.81C191.772 325.977 192.345 325.32 193.092 324.84C193.838 324.354 194.742 324.11 195.802 324.11C196.855 324.11 197.738 324.334 198.452 324.78C199.165 325.22 199.705 325.837 200.072 326.63C200.438 327.417 200.622 328.327 200.622 329.36V330.15H193.672C193.672 330.677 193.758 331.137 193.932 331.53C194.105 331.917 194.355 332.217 194.682 332.43C195.015 332.637 195.415 332.74 195.882 332.74C196.382 332.74 196.818 332.634 197.192 332.42C197.565 332.207 197.828 331.857 197.982 331.37H200.612C200.492 332.104 200.198 332.73 199.732 333.25C199.265 333.77 198.698 334.167 198.032 334.44C197.365 334.714 196.672 334.85 195.952 334.85ZM193.672 328.41H197.892C197.892 327.997 197.812 327.617 197.652 327.27C197.498 326.924 197.265 326.65 196.952 326.45C196.645 326.25 196.258 326.15 195.792 326.15C195.345 326.15 194.962 326.26 194.642 326.48C194.328 326.694 194.085 326.974 193.912 327.32C193.745 327.667 193.665 328.03 193.672 328.41ZM212.758 334.85C211.391 334.85 210.208 334.554 209.208 333.96C208.215 333.36 207.445 332.51 206.898 331.41C206.358 330.304 206.088 328.984 206.088 327.45C206.088 325.91 206.361 324.584 206.908 323.47C207.461 322.357 208.238 321.5 209.238 320.9C210.238 320.294 211.411 319.99 212.758 319.99C214.098 319.99 215.265 320.29 216.258 320.89C217.251 321.49 218.018 322.347 218.558 323.46C219.105 324.574 219.378 325.904 219.378 327.45C219.378 328.977 219.108 330.294 218.568 331.4C218.035 332.507 217.271 333.36 216.278 333.96C215.285 334.554 214.111 334.85 212.758 334.85ZM212.758 332.45C213.465 332.45 214.075 332.284 214.588 331.95C215.108 331.61 215.508 331.077 215.788 330.35C216.068 329.617 216.208 328.664 216.208 327.49C216.208 326.284 216.065 325.307 215.778 324.56C215.498 323.814 215.098 323.267 214.578 322.92C214.065 322.567 213.458 322.39 212.758 322.39C212.058 322.39 211.448 322.567 210.928 322.92C210.408 323.267 210.005 323.817 209.718 324.57C209.431 325.317 209.288 326.29 209.288 327.49C209.288 328.67 209.431 329.624 209.718 330.35C210.005 331.077 210.408 331.61 210.928 331.95C211.448 332.284 212.058 332.45 212.758 332.45ZM224.093 334.65L220.213 324.31H222.853L225.113 330.9H225.193L227.423 324.31H230.093L226.213 334.65H224.093ZM235.641 334.85C234.614 334.85 233.711 334.637 232.931 334.21C232.157 333.777 231.554 333.167 231.121 332.38C230.687 331.594 230.471 330.667 230.471 329.6C230.471 328.567 230.667 327.637 231.061 326.81C231.461 325.977 232.034 325.32 232.781 324.84C233.527 324.354 234.431 324.11 235.491 324.11C236.544 324.11 237.427 324.334 238.141 324.78C238.854 325.22 239.394 325.837 239.761 326.63C240.127 327.417 240.311 328.327 240.311 329.36V330.15H233.361C233.361 330.677 233.447 331.137 233.621 331.53C233.794 331.917 234.044 332.217 234.371 332.43C234.704 332.637 235.104 332.74 235.571 332.74C236.071 332.74 236.507 332.634 236.881 332.42C237.254 332.207 237.517 331.857 237.671 331.37H240.301C240.181 332.104 239.887 332.73 239.421 333.25C238.954 333.77 238.387 334.167 237.721 334.44C237.054 334.714 236.361 334.85 235.641 334.85ZM233.361 328.41H237.581C237.581 327.997 237.501 327.617 237.341 327.27C237.187 326.924 236.954 326.65 236.641 326.45C236.334 326.25 235.947 326.15 235.481 326.15C235.034 326.15 234.651 326.26 234.331 326.48C234.017 326.694 233.774 326.974 233.601 327.32C233.434 327.667 233.354 328.03 233.361 328.41ZM242.014 334.65V324.31H244.824V326.76C244.991 326.234 245.224 325.774 245.524 325.38C245.831 324.98 246.201 324.67 246.634 324.45C247.067 324.224 247.557 324.11 248.104 324.11C248.197 324.11 248.284 324.117 248.364 324.13C248.451 324.137 248.514 324.15 248.554 324.17V326.95C248.494 326.924 248.421 326.907 248.334 326.9C248.254 326.894 248.181 326.887 248.114 326.88C247.541 326.834 247.051 326.85 246.644 326.93C246.237 327.01 245.907 327.147 245.654 327.34C245.401 327.534 245.217 327.77 245.104 328.05C244.991 328.33 244.934 328.644 244.934 328.99V334.65H242.014ZM252.971 334.65L249.091 324.31H251.731L253.991 330.9H254.071L256.301 324.31H258.971L255.091 334.65H252.971ZM260.111 334.65V324.31H262.901V334.65H260.111ZM260.081 322.83V320.2H262.921V322.83H260.081ZM269.763 334.85C268.737 334.85 267.833 334.637 267.053 334.21C266.28 333.777 265.677 333.167 265.243 332.38C264.81 331.594 264.593 330.667 264.593 329.6C264.593 328.567 264.79 327.637 265.183 326.81C265.583 325.977 266.157 325.32 266.903 324.84C267.65 324.354 268.553 324.11 269.613 324.11C270.667 324.11 271.55 324.334 272.263 324.78C272.977 325.22 273.517 325.837 273.883 326.63C274.25 327.417 274.433 328.327 274.433 329.36V330.15H267.483C267.483 330.677 267.57 331.137 267.743 331.53C267.917 331.917 268.167 332.217 268.493 332.43C268.827 332.637 269.227 332.74 269.693 332.74C270.193 332.74 270.63 332.634 271.003 332.42C271.377 332.207 271.64 331.857 271.793 331.37H274.423C274.303 332.104 274.01 332.73 273.543 333.25C273.077 333.77 272.51 334.167 271.843 334.44C271.177 334.714 270.483 334.85 269.763 334.85ZM267.483 328.41H271.703C271.703 327.997 271.623 327.617 271.463 327.27C271.31 326.924 271.077 326.65 270.763 326.45C270.457 326.25 270.07 326.15 269.603 326.15C269.157 326.15 268.773 326.26 268.453 326.48C268.14 326.694 267.897 326.974 267.723 327.32C267.557 327.667 267.477 328.03 267.483 328.41ZM278.263 334.65L274.913 324.31H277.493L279.473 330.72H279.543L281.443 324.31H283.533L285.453 330.72H285.533L287.453 324.31H290.093L286.693 334.65H284.363L282.443 328.39L280.513 334.65H278.263Z" fill="#1B2827"/>
<path d="M74.4792 325.226C74.4792 325.226 79.8126 314.56 89.1459 314.56C98.4792 314.56 103.813 325.226 103.813 325.226C103.813 325.226 98.4792 335.893 89.1459 335.893C79.8126 335.893 74.4792 325.226 74.4792 325.226Z" stroke="#1A645D" stroke-width="1.5" stroke-linecap="round" stroke-linejoin="round"/>
<path d="M89.1459 329.226C91.3551 329.226 93.1459 327.436 93.1459 325.226C93.1459 323.017 91.3551 321.226 89.1459 321.226C86.9368 321.226 85.1459 323.017 85.1459 325.226C85.1459 327.436 86.9368 329.226 89.1459 329.226Z" stroke="#1A645D" stroke-width="1.5" stroke-linecap="round" stroke-linejoin="round"/>
</g>
<g filter="url(#filter2_dddd_87_2342)">
<path d="M343 174.65C343 165.814 350.163 158.65 359 158.65H608C616.837 158.65 624 165.814 624 174.65V214.65C624 223.487 616.837 230.65 608 230.65H359C350.163 230.65 343 223.487 343 214.65V174.65Z" fill="white"/>
<path d="M343 174.65C343 165.814 350.163 158.65 359 158.65H608C616.837 158.65 624 165.814 624 174.65V214.65C624 223.487 616.837 230.65 608 230.65H359C350.163 230.65 343 223.487 343 214.65V174.65Z" fill="#4FD1C5" fill-opacity="0.6"/>
<path d="M343 174.65C343 165.814 350.163 158.65 359 158.65H608C616.837 158.65 624 165.814 624 174.65V214.65C624 223.487 616.837 230.65 608 230.65H359C350.163 230.65 343 223.487 343 214.65V174.65Z" fill="url(#paint2_linear_87_2342)" fill-opacity="0.32" style="mix-blend-mode:luminosity"/>
<path d="M413.62 201.65V187.19H423.55L423.54 189.65H416.55V193.16H422.62V195.57H416.53V199.16L423.65 199.17V201.65H413.62ZM424.567 201.65L428.537 196.26L424.907 191.31H427.967L430.117 194.21L432.257 191.31H435.307L431.647 196.26L435.627 201.65H432.567L430.097 198.28L427.627 201.65H424.567ZM436.825 204.87V191.31H439.755L439.765 192.8C439.918 192.554 440.105 192.33 440.325 192.13C440.552 191.924 440.802 191.744 441.075 191.59C441.348 191.437 441.645 191.32 441.965 191.24C442.285 191.154 442.622 191.11 442.975 191.11C443.742 191.11 444.425 191.3 445.025 191.68C445.625 192.054 446.095 192.634 446.435 193.42C446.782 194.2 446.955 195.194 446.955 196.4C446.955 197.654 446.768 198.684 446.395 199.49C446.028 200.29 445.522 200.884 444.875 201.27C444.228 201.657 443.498 201.85 442.685 201.85C442.352 201.85 442.038 201.804 441.745 201.71C441.452 201.624 441.178 201.5 440.925 201.34C440.678 201.18 440.455 200.997 440.255 200.79C440.062 200.577 439.892 200.347 439.745 200.1V204.87H436.825ZM441.985 199.71C442.618 199.71 443.148 199.447 443.575 198.92C444.008 198.394 444.225 197.56 444.225 196.42C444.225 195.42 444.018 194.64 443.605 194.08C443.198 193.514 442.658 193.23 441.985 193.23C441.232 193.23 440.668 193.537 440.295 194.15C439.928 194.757 439.745 195.514 439.745 196.42C439.745 197 439.825 197.54 439.985 198.04C440.152 198.54 440.398 198.944 440.725 199.25C441.058 199.557 441.478 199.71 441.985 199.71ZM453.323 201.85C452.297 201.85 451.393 201.637 450.613 201.21C449.84 200.777 449.237 200.167 448.803 199.38C448.37 198.594 448.153 197.667 448.153 196.6C448.153 195.567 448.35 194.637 448.743 193.81C449.143 192.977 449.717 192.32 450.463 191.84C451.21 191.354 452.113 191.11 453.173 191.11C454.227 191.11 455.11 191.334 455.823 191.78C456.537 192.22 457.077 192.837 457.443 193.63C457.81 194.417 457.993 195.327 457.993 196.36V197.15H451.043C451.043 197.677 451.13 198.137 451.303 198.53C451.477 198.917 451.727 199.217 452.053 199.43C452.387 199.637 452.787 199.74 453.253 199.74C453.753 199.74 454.19 199.634 454.563 199.42C454.937 199.207 455.2 198.857 455.353 198.37H457.983C457.863 199.104 457.57 199.73 457.103 200.25C456.637 200.77 456.07 201.167 455.403 201.44C454.737 201.714 454.043 201.85 453.323 201.85ZM451.043 195.41H455.263C455.263 194.997 455.183 194.617 455.023 194.27C454.87 193.924 454.637 193.65 454.323 193.45C454.017 193.25 453.63 193.15 453.163 193.15C452.717 193.15 452.333 193.26 452.013 193.48C451.7 193.694 451.457 193.974 451.283 194.32C451.117 194.667 451.037 195.03 451.043 195.41ZM459.697 201.65V191.31H462.567V192.77C462.727 192.517 462.934 192.274 463.187 192.04C463.447 191.8 463.774 191.604 464.167 191.45C464.56 191.297 465.027 191.22 465.567 191.22C466.2 191.22 466.79 191.344 467.337 191.59C467.89 191.837 468.337 192.227 468.677 192.76C469.017 193.287 469.187 193.977 469.187 194.83V201.65H466.267V195.19C466.267 194.63 466.1 194.21 465.767 193.93C465.434 193.65 465.027 193.51 464.547 193.51C464.227 193.51 463.917 193.567 463.617 193.68C463.324 193.794 463.084 193.964 462.897 194.19C462.71 194.417 462.617 194.697 462.617 195.03V201.65H459.697ZM475.215 201.85C474.495 201.85 473.801 201.734 473.135 201.5C472.475 201.26 471.911 200.887 471.445 200.38C470.985 199.867 470.695 199.204 470.575 198.39H473.095C473.188 198.757 473.348 199.047 473.575 199.26C473.808 199.474 474.071 199.627 474.365 199.72C474.658 199.807 474.938 199.85 475.205 199.85C475.765 199.85 476.215 199.764 476.555 199.59C476.901 199.41 477.075 199.137 477.075 198.77C477.075 198.49 476.971 198.267 476.765 198.1C476.565 197.934 476.231 197.807 475.765 197.72L473.945 197.34C473.031 197.147 472.295 196.82 471.735 196.36C471.181 195.894 470.901 195.234 470.895 194.38C470.888 193.76 471.048 193.204 471.375 192.71C471.708 192.217 472.198 191.827 472.845 191.54C473.498 191.254 474.295 191.11 475.235 191.11C476.508 191.11 477.525 191.39 478.285 191.95C479.051 192.51 479.441 193.3 479.455 194.32H477.015C476.941 193.92 476.741 193.614 476.415 193.4C476.095 193.18 475.688 193.07 475.195 193.07C474.695 193.07 474.281 193.16 473.955 193.34C473.628 193.52 473.465 193.794 473.465 194.16C473.465 194.434 473.598 194.65 473.865 194.81C474.131 194.964 474.545 195.097 475.105 195.21L476.785 195.59C477.365 195.73 477.835 195.924 478.195 196.17C478.561 196.41 478.845 196.674 479.045 196.96C479.245 197.247 479.381 197.537 479.455 197.83C479.535 198.117 479.575 198.377 479.575 198.61C479.575 199.297 479.391 199.884 479.025 200.37C478.658 200.85 478.148 201.217 477.495 201.47C476.841 201.724 476.081 201.85 475.215 201.85ZM485.952 201.85C484.925 201.85 484.022 201.637 483.242 201.21C482.468 200.777 481.865 200.167 481.432 199.38C480.998 198.594 480.782 197.667 480.782 196.6C480.782 195.567 480.978 194.637 481.372 193.81C481.772 192.977 482.345 192.32 483.092 191.84C483.838 191.354 484.742 191.11 485.802 191.11C486.855 191.11 487.738 191.334 488.452 191.78C489.165 192.22 489.705 192.837 490.072 193.63C490.438 194.417 490.622 195.327 490.622 196.36V197.15H483.672C483.672 197.677 483.758 198.137 483.932 198.53C484.105 198.917 484.355 199.217 484.682 199.43C485.015 199.637 485.415 199.74 485.882 199.74C486.382 199.74 486.818 199.634 487.192 199.42C487.565 199.207 487.828 198.857 487.982 198.37H490.612C490.492 199.104 490.198 199.73 489.732 200.25C489.265 200.77 488.698 201.167 488.032 201.44C487.365 201.714 486.672 201.85 485.952 201.85ZM483.672 195.41H487.892C487.892 194.997 487.812 194.617 487.652 194.27C487.498 193.924 487.265 193.65 486.952 193.45C486.645 193.25 486.258 193.15 485.792 193.15C485.345 193.15 484.962 193.26 484.642 193.48C484.328 193.694 484.085 193.974 483.912 194.32C483.745 194.667 483.665 195.03 483.672 195.41ZM499.878 201.65V189.79H495.508V187.19H507.078V189.79H502.808V201.65H499.878ZM507.99 201.65V191.31H510.8V193.76C510.967 193.234 511.2 192.774 511.5 192.38C511.807 191.98 512.177 191.67 512.61 191.45C513.043 191.224 513.533 191.11 514.08 191.11C514.173 191.11 514.26 191.117 514.34 191.13C514.427 191.137 514.49 191.15 514.53 191.17V193.95C514.47 193.924 514.397 193.907 514.31 193.9C514.23 193.894 514.157 193.887 514.09 193.88C513.517 193.834 513.027 193.85 512.62 193.93C512.213 194.01 511.883 194.147 511.63 194.34C511.377 194.534 511.193 194.77 511.08 195.05C510.967 195.33 510.91 195.644 510.91 195.99V201.65H507.99ZM518.668 201.85C518.014 201.85 517.421 201.727 516.888 201.48C516.361 201.234 515.944 200.877 515.638 200.41C515.331 199.937 515.178 199.364 515.178 198.69C515.178 197.557 515.601 196.697 516.448 196.11C517.294 195.517 518.631 195.21 520.458 195.19L521.758 195.17V194.55C521.758 194.077 521.618 193.714 521.338 193.46C521.064 193.2 520.634 193.074 520.048 193.08C519.628 193.087 519.224 193.187 518.838 193.38C518.458 193.574 518.194 193.91 518.048 194.39H515.618C515.658 193.644 515.874 193.03 516.268 192.55C516.668 192.064 517.204 191.704 517.878 191.47C518.551 191.23 519.321 191.11 520.188 191.11C521.241 191.11 522.088 191.244 522.728 191.51C523.368 191.77 523.831 192.147 524.118 192.64C524.411 193.127 524.558 193.707 524.558 194.38V201.65H522.118L521.878 199.87C521.524 200.617 521.081 201.134 520.548 201.42C520.021 201.707 519.394 201.85 518.668 201.85ZM519.658 199.93C519.918 199.93 520.171 199.884 520.418 199.79C520.671 199.69 520.898 199.56 521.098 199.4C521.298 199.234 521.454 199.047 521.568 198.84C521.688 198.634 521.751 198.42 521.758 198.2V196.67L520.708 196.69C520.221 196.697 519.768 196.757 519.348 196.87C518.928 196.977 518.588 197.154 518.328 197.4C518.074 197.647 517.948 197.98 517.948 198.4C517.948 198.88 518.111 199.257 518.438 199.53C518.771 199.797 519.178 199.93 519.658 199.93ZM531.026 201.85C530.066 201.85 529.209 201.637 528.456 201.21C527.702 200.784 527.109 200.174 526.676 199.38C526.249 198.58 526.036 197.627 526.036 196.52C526.036 195.454 526.242 194.514 526.656 193.7C527.069 192.887 527.649 192.254 528.396 191.8C529.149 191.34 530.026 191.11 531.026 191.11C531.892 191.11 532.639 191.287 533.266 191.64C533.899 191.994 534.396 192.47 534.756 193.07C535.122 193.67 535.332 194.34 535.386 195.08H532.956C532.909 194.807 532.812 194.537 532.666 194.27C532.519 193.997 532.312 193.774 532.046 193.6C531.779 193.42 531.446 193.33 531.046 193.33C530.366 193.33 529.812 193.594 529.386 194.12C528.966 194.64 528.756 195.434 528.756 196.5C528.756 197.507 528.962 198.307 529.376 198.9C529.789 199.487 530.366 199.78 531.106 199.78C531.499 199.78 531.826 199.684 532.086 199.49C532.352 199.297 532.559 199.067 532.706 198.8C532.852 198.527 532.946 198.274 532.986 198.04H535.356C535.309 198.754 535.102 199.4 534.736 199.98C534.369 200.554 533.869 201.01 533.236 201.35C532.609 201.684 531.872 201.85 531.026 201.85ZM537.005 201.65V186.79H539.925V195.6L543.725 191.31H546.865L543.105 195.43L546.995 201.65H544.085L541.295 197.19L539.925 198.65V201.65H537.005ZM548.217 201.65V191.31H551.007V201.65H548.217ZM548.187 189.83V187.2H551.027V189.83H548.187ZM553.177 201.65V191.31H556.047V192.77C556.207 192.517 556.414 192.274 556.667 192.04C556.927 191.8 557.254 191.604 557.647 191.45C558.041 191.297 558.507 191.22 559.047 191.22C559.681 191.22 560.271 191.344 560.817 191.59C561.371 191.837 561.817 192.227 562.157 192.76C562.497 193.287 562.667 193.977 562.667 194.83V201.65H559.747V195.19C559.747 194.63 559.581 194.21 559.247 193.93C558.914 193.65 558.507 193.51 558.027 193.51C557.707 193.51 557.397 193.567 557.097 193.68C556.804 193.794 556.564 193.964 556.377 194.19C556.191 194.417 556.097 194.697 556.097 195.03V201.65H553.177ZM569.433 205.07C567.593 205.07 566.193 204.837 565.233 204.37C564.279 203.904 563.803 203.29 563.803 202.53C563.803 202.177 563.893 201.88 564.073 201.64C564.259 201.4 564.476 201.21 564.723 201.07C564.976 200.924 565.206 200.814 565.413 200.74C565.626 200.66 565.759 200.607 565.813 200.58C565.706 200.52 565.549 200.434 565.343 200.32C565.143 200.2 564.959 200.04 564.793 199.84C564.626 199.634 564.543 199.367 564.543 199.04C564.543 198.674 564.716 198.334 565.063 198.02C565.416 197.707 565.949 197.49 566.663 197.37C565.983 197.05 565.463 196.617 565.103 196.07C564.749 195.524 564.573 194.964 564.573 194.39C564.573 193.71 564.786 193.127 565.213 192.64C565.639 192.154 566.223 191.784 566.963 191.53C567.703 191.277 568.539 191.15 569.473 191.15C570.179 191.15 570.759 191.227 571.213 191.38C571.673 191.527 572.096 191.72 572.483 191.96C572.636 191.9 572.836 191.824 573.083 191.73C573.336 191.63 573.609 191.524 573.903 191.41C574.203 191.29 574.493 191.174 574.773 191.06C575.053 190.94 575.303 190.834 575.523 190.74L575.503 193L573.723 193.29C573.789 193.47 573.843 193.664 573.883 193.87C573.923 194.077 573.943 194.247 573.943 194.38C573.943 194.98 573.766 195.54 573.413 196.06C573.066 196.58 572.546 197 571.853 197.32C571.159 197.64 570.296 197.8 569.263 197.8C569.143 197.8 568.976 197.797 568.763 197.79C568.549 197.784 568.376 197.774 568.243 197.76C567.856 197.78 567.586 197.83 567.433 197.91C567.286 197.99 567.213 198.084 567.213 198.19C567.213 198.35 567.363 198.457 567.663 198.51C567.963 198.557 568.416 198.6 569.023 198.64C569.243 198.654 569.543 198.67 569.923 198.69C570.303 198.71 570.719 198.737 571.173 198.77C572.439 198.857 573.383 199.17 574.003 199.71C574.629 200.244 574.943 200.917 574.943 201.73C574.943 202.697 574.483 203.494 573.563 204.12C572.649 204.754 571.273 205.07 569.433 205.07ZM569.903 203.44C570.709 203.44 571.286 203.34 571.633 203.14C571.986 202.94 572.163 202.654 572.163 202.28C572.163 201.967 572.026 201.714 571.753 201.52C571.486 201.32 571.099 201.204 570.593 201.17L568.223 201.01C567.909 200.997 567.636 201.044 567.403 201.15C567.169 201.257 566.986 201.404 566.853 201.59C566.726 201.777 566.663 201.977 566.663 202.19C566.663 202.624 566.926 202.94 567.453 203.14C567.979 203.34 568.796 203.44 569.903 203.44ZM569.353 196.17C569.906 196.17 570.349 196.02 570.683 195.72C571.016 195.414 571.183 195 571.183 194.48C571.183 193.94 571.016 193.507 570.683 193.18C570.349 192.854 569.906 192.69 569.353 192.69C568.799 192.69 568.353 192.854 568.013 193.18C567.673 193.507 567.503 193.94 567.503 194.48C567.503 194.994 567.666 195.404 567.993 195.71C568.326 196.017 568.779 196.17 569.353 196.17Z" fill="#1B2827"/>
<path d="M383.893 183.865H386.56C387.267 183.865 387.945 184.146 388.446 184.646C388.946 185.146 389.227 185.824 389.227 186.532V205.198C389.227 205.905 388.946 206.584 388.446 207.084C387.945 207.584 387.267 207.865 386.56 207.865H370.56C369.853 207.865 369.174 207.584 368.674 207.084C368.174 206.584 367.893 205.905 367.893 205.198V186.532C367.893 185.824 368.174 185.146 368.674 184.646C369.174 184.146 369.853 183.865 370.56 183.865H373.227M374.56 181.198H382.56C383.296 181.198 383.893 181.795 383.893 182.532V185.198C383.893 185.935 383.296 186.532 382.56 186.532H374.56C373.824 186.532 373.227 185.935 373.227 185.198V182.532C373.227 181.795 373.824 181.198 374.56 181.198Z" stroke="#1A645D" stroke-width="1.5" stroke-linecap="round" stroke-linejoin="round"/>
</g>
<defs>
<filter id="filter0_dddd_87_2342" x="141" y="27.6504" width="362" height="525" filterUnits="userSpaceOnUse" color-interpolation-filters="sRGB">
<feFlood flood-opacity="0" result="BackgroundImageFix"/>
<feColorMatrix in="SourceAlpha" type="matrix" values="0 0 0 0 0 0 0 0 0 0 0 0 0 0 0 0 0 0 127 0" result="hardAlpha"/>
<feOffset dx="1" dy="5"/>
<feGaussianBlur stdDeviation="5.5"/>
<feColorMatrix type="matrix" values="0 0 0 0 0 0 0 0 0 0 0 0 0 0 0 0 0 0 0.08 0"/>
<feBlend mode="normal" in2="BackgroundImageFix" result="effect1_dropShadow_87_2342"/>
<feColorMatrix in="SourceAlpha" type="matrix" values="0 0 0 0 0 0 0 0 0 0 0 0 0 0 0 0 0 0 127 0" result="hardAlpha"/>
<feOffset dx="2" dy="20"/>
<feGaussianBlur stdDeviation="10.5"/>
<feColorMatrix type="matrix" values="0 0 0 0 0 0 0 0 0 0 0 0 0 0 0 0 0 0 0.06 0"/>
<feBlend mode="normal" in2="effect1_dropShadow_87_2342" result="effect2_dropShadow_87_2342"/>
<feColorMatrix in="SourceAlpha" type="matrix" values="0 0 0 0 0 0 0 0 0 0 0 0 0 0 0 0 0 0 127 0" result="hardAlpha"/>
<feOffset dx="5" dy="46"/>
<feGaussianBlur stdDeviation="14"/>
<feColorMatrix type="matrix" values="0 0 0 0 0 0 0 0 0 0 0 0 0 0 0 0 0 0 0.04 0"/>
<feBlend mode="normal" in2="effect2_dropShadow_87_2342" result="effect3_dropShadow_87_2342"/>
<feColorMatrix in="SourceAlpha" type="matrix" values="0 0 0 0 0 0 0 0 0 0 0 0 0 0 0 0 0 0 127 0" result="hardAlpha"/>
<feOffset dx="10" dy="82"/>
<feGaussianBlur stdDeviation="16.5"/>
<feColorMatrix type="matrix" values="0 0 0 0 0 0 0 0 0 0 0 0 0 0 0 0 0 0 0.01 0"/>
<feBlend mode="normal" in2="effect3_dropShadow_87_2342" result="effect4_dropShadow_87_2342"/>
<feBlend mode="normal" in="SourceGraphic" in2="effect4_dropShadow_87_2342" result="shape"/>
</filter>
<filter id="filter1_dddd_87_2342" x="30" y="283.65" width="347" height="193" filterUnits="userSpaceOnUse" color-interpolation-filters="sRGB">
<feFlood flood-opacity="0" result="BackgroundImageFix"/>
<feColorMatrix in="SourceAlpha" type="matrix" values="0 0 0 0 0 0 0 0 0 0 0 0 0 0 0 0 0 0 127 0" result="hardAlpha"/>
<feOffset dx="1" dy="5"/>
<feGaussianBlur stdDeviation="5.5"/>
<feColorMatrix type="matrix" values="0 0 0 0 0 0 0 0 0 0 0 0 0 0 0 0 0 0 0.08 0"/>
<feBlend mode="normal" in2="BackgroundImageFix" result="effect1_dropShadow_87_2342"/>
<feColorMatrix in="SourceAlpha" type="matrix" values="0 0 0 0 0 0 0 0 0 0 0 0 0 0 0 0 0 0 127 0" result="hardAlpha"/>
<feOffset dx="2" dy="20"/>
<feGaussianBlur stdDeviation="10.5"/>
<feColorMatrix type="matrix" values="0 0 0 0 0 0 0 0 0 0 0 0 0 0 0 0 0 0 0.06 0"/>
<feBlend mode="normal" in2="effect1_dropShadow_87_2342" result="effect2_dropShadow_87_2342"/>
<feColorMatrix in="SourceAlpha" type="matrix" values="0 0 0 0 0 0 0 0 0 0 0 0 0 0 0 0 0 0 127 0" result="hardAlpha"/>
<feOffset dx="5" dy="46"/>
<feGaussianBlur stdDeviation="14"/>
<feColorMatrix type="matrix" values="0 0 0 0 0 0 0 0 0 0 0 0 0 0 0 0 0 0 0.04 0"/>
<feBlend mode="normal" in2="effect2_dropShadow_87_2342" result="effect3_dropShadow_87_2342"/>
<feColorMatrix in="SourceAlpha" type="matrix" values="0 0 0 0 0 0 0 0 0 0 0 0 0 0 0 0 0 0 127 0" result="hardAlpha"/>
<feOffset dx="10" dy="82"/>
<feGaussianBlur stdDeviation="16.5"/>
<feColorMatrix type="matrix" values="0 0 0 0 0 0 0 0 0 0 0 0 0 0 0 0 0 0 0.01 0"/>
<feBlend mode="normal" in2="effect3_dropShadow_87_2342" result="effect4_dropShadow_87_2342"/>
<feBlend mode="normal" in="SourceGraphic" in2="effect4_dropShadow_87_2342" result="shape"/>
</filter>
<filter id="filter2_dddd_87_2342" x="320" y="152.65" width="347" height="193" filterUnits="userSpaceOnUse" color-interpolation-filters="sRGB">
<feFlood flood-opacity="0" result="BackgroundImageFix"/>
<feColorMatrix in="SourceAlpha" type="matrix" values="0 0 0 0 0 0 0 0 0 0 0 0 0 0 0 0 0 0 127 0" result="hardAlpha"/>
<feOffset dx="1" dy="5"/>
<feGaussianBlur stdDeviation="5.5"/>
<feColorMatrix type="matrix" values="0 0 0 0 0 0 0 0 0 0 0 0 0 0 0 0 0 0 0.08 0"/>
<feBlend mode="normal" in2="BackgroundImageFix" result="effect1_dropShadow_87_2342"/>
<feColorMatrix in="SourceAlpha" type="matrix" values="0 0 0 0 0 0 0 0 0 0 0 0 0 0 0 0 0 0 127 0" result="hardAlpha"/>
<feOffset dx="2" dy="20"/>
<feGaussianBlur stdDeviation="10.5"/>
<feColorMatrix type="matrix" values="0 0 0 0 0 0 0 0 0 0 0 0 0 0 0 0 0 0 0.06 0"/>
<feBlend mode="normal" in2="effect1_dropShadow_87_2342" result="effect2_dropShadow_87_2342"/>
<feColorMatrix in="SourceAlpha" type="matrix" values="0 0 0 0 0 0 0 0 0 0 0 0 0 0 0 0 0 0 127 0" result="hardAlpha"/>
<feOffset dx="5" dy="46"/>
<feGaussianBlur stdDeviation="14"/>
<feColorMatrix type="matrix" values="0 0 0 0 0 0 0 0 0 0 0 0 0 0 0 0 0 0 0.04 0"/>
<feBlend mode="normal" in2="effect2_dropShadow_87_2342" result="effect3_dropShadow_87_2342"/>
<feColorMatrix in="SourceAlpha" type="matrix" values="0 0 0 0 0 0 0 0 0 0 0 0 0 0 0 0 0 0 127 0" result="hardAlpha"/>
<feOffset dx="10" dy="82"/>
<feGaussianBlur stdDeviation="16.5"/>
<feColorMatrix type="matrix" values="0 0 0 0 0 0 0 0 0 0 0 0 0 0 0 0 0 0 0.01 0"/>
<feBlend mode="normal" in2="effect3_dropShadow_87_2342" result="effect4_dropShadow_87_2342"/>
<feBlend mode="normal" in="SourceGraphic" in2="effect4_dropShadow_87_2342" result="shape"/>
</filter>
<linearGradient id="paint0_linear_87_2342" x1="189.517" y1="-0.0162764" x2="523.637" y2="340.559" gradientUnits="userSpaceOnUse">
<stop stop-opacity="0"/>
<stop offset="1" stop-opacity="0.5"/>
</linearGradient>
<linearGradient id="paint1_linear_87_2342" x1="77.2241" y1="283.65" x2="98.4419" y2="398.856" gradientUnits="userSpaceOnUse">
<stop stop-color="#FAFCFF" stop-opacity="0"/>
<stop offset="1" stop-color="#0054AD" stop-opacity="0.16"/>
</linearGradient>
<linearGradient id="paint2_linear_87_2342" x1="367.224" y1="152.65" x2="388.442" y2="267.856" gradientUnits="userSpaceOnUse">
<stop stop-color="#FAFCFF" stop-opacity="0"/>
<stop offset="1" stop-color="#0054AD" stop-opacity="0.16"/>
</linearGradient>
</defs>
</svg>
